G04*
G04 #@! TF.GenerationSoftware,Altium Limited,Altium Designer,26.3.0 (6)*
G04*
G04 Layer_Physical_Order=2*
G04 Layer_Color=16711680*
%FSLAX44Y44*%
%MOMM*%
G71*
G04*
G04 #@! TF.SameCoordinates,4C14F550-D084-4FEC-AB9C-BD04F664B0F9*
G04*
G04*
G04 #@! TF.FilePolarity,Positive*
G04*
G01*
G75*
%ADD14C,0.2000*%
%ADD17C,0.3000*%
%ADD26R,1.3000X1.4500*%
%ADD27R,1.3098X0.9061*%
%ADD28R,1.4500X1.3000*%
%ADD31R,0.9061X1.3098*%
%ADD44C,1.3900*%
%ADD50R,1.3900X1.3900*%
%ADD56C,0.3048*%
%ADD57C,0.7000*%
%ADD58C,0.2540*%
%ADD59C,0.5000*%
%ADD61O,2.7178X1.1938*%
%ADD62O,2.2098X1.1938*%
%ADD63C,2.0000*%
%ADD64C,4.6500*%
%ADD65C,5.3850*%
%ADD66R,1.5200X1.5200*%
%ADD67C,1.5200*%
%ADD68R,2.0000X2.0000*%
%ADD69C,2.7000*%
%ADD70C,1.0000*%
%ADD71C,0.7000*%
%ADD72C,0.4500*%
%ADD73C,0.0254*%
%ADD74R,1.5250X0.6500*%
%ADD75R,1.5500X2.2000*%
%ADD76R,1.7000X0.9500*%
%ADD77R,2.2000X1.5500*%
%ADD78R,0.8984X0.6310*%
%ADD79C,0.4000*%
G36*
X974491Y610968D02*
X979114Y609054D01*
X983274Y606274D01*
X986812Y602736D01*
X989592Y598576D01*
X991506Y593953D01*
X992482Y589046D01*
X992482Y586544D01*
X992482D01*
X992482Y586544D01*
Y444075D01*
X992132Y443550D01*
X991925Y442509D01*
Y441623D01*
X989925Y440655D01*
X988911Y441433D01*
X986841Y442290D01*
X984620Y442582D01*
X969380D01*
X967159Y442290D01*
X965089Y441433D01*
X963311Y440069D01*
X961947Y438291D01*
X961090Y436221D01*
X960798Y434000D01*
X961090Y431779D01*
X961947Y429709D01*
X963311Y427931D01*
X964473Y427040D01*
X963794Y425040D01*
X960710D01*
Y408139D01*
X948377D01*
X946201Y409040D01*
X943799D01*
X941623Y408139D01*
X931478D01*
X931467Y408146D01*
X929500Y408538D01*
X899302D01*
X899195Y408644D01*
X896975Y409564D01*
X894573D01*
X892397Y408663D01*
X873357D01*
X868319Y413701D01*
Y418014D01*
X868319D01*
Y419134D01*
X868319D01*
Y430714D01*
X868319D01*
Y431834D01*
X868319D01*
Y443414D01*
X868319D01*
Y444534D01*
X868319D01*
Y456114D01*
X847989D01*
Y444534D01*
X847989D01*
Y443414D01*
X847989D01*
Y431834D01*
X847989D01*
Y430714D01*
X847989D01*
Y419134D01*
X847989D01*
Y418014D01*
X847989D01*
Y406434D01*
X861052D01*
X867595Y399890D01*
X869262Y398776D01*
X871229Y398385D01*
X892397D01*
X894573Y397484D01*
X896975D01*
X898849Y398260D01*
X927921D01*
X927932Y398252D01*
X929899Y397861D01*
X939861D01*
Y381377D01*
X938960Y379201D01*
Y376799D01*
X939880Y374579D01*
X941579Y372879D01*
X943799Y371960D01*
X946201D01*
X948421Y372879D01*
X950120Y374579D01*
X951040Y376799D01*
Y379201D01*
X950139Y381377D01*
Y397861D01*
X965750D01*
X966246Y397960D01*
X981290D01*
Y423418D01*
X981290Y425040D01*
X983134Y425418D01*
X984620D01*
X986841Y425710D01*
X988911Y426567D01*
X989925Y427345D01*
X991925Y426377D01*
Y355223D01*
X989925Y354255D01*
X988911Y355033D01*
X986841Y355890D01*
X984620Y356182D01*
X982968D01*
X981290Y356960D01*
X981290Y358182D01*
Y369230D01*
X971000D01*
X960710D01*
Y356960D01*
X964234D01*
X965009Y355164D01*
X964994Y354960D01*
X963311Y353669D01*
X961947Y351891D01*
X961090Y349821D01*
X960798Y347600D01*
X961090Y345379D01*
X961947Y343309D01*
X963311Y341531D01*
X965089Y340167D01*
X967159Y339310D01*
X969380Y339017D01*
X984620D01*
X986841Y339310D01*
X988911Y340167D01*
X989925Y340945D01*
X991925Y339977D01*
Y339091D01*
X992132Y338050D01*
X992482Y337525D01*
X992482Y57274D01*
X992482Y14482D01*
X992482Y13477D01*
X992090Y11504D01*
X991321Y9647D01*
X990203Y7975D01*
X988781Y6553D01*
X987109Y5435D01*
X985251Y4666D01*
X984221Y4461D01*
X982273Y4274D01*
Y4274D01*
X982273Y4274D01*
X87300D01*
X86985Y47740D01*
X88567Y48963D01*
X89423Y48734D01*
X92725D01*
X95914Y49588D01*
X98774Y51239D01*
X101108Y53574D01*
X102731Y56385D01*
X102937Y56434D01*
X104611D01*
X104817Y56385D01*
X106439Y53574D01*
X108774Y51239D01*
X111634Y49588D01*
X114823Y48734D01*
X118125D01*
X121314Y49588D01*
X124174Y51239D01*
X126508Y53574D01*
X128131Y56385D01*
X128337Y56434D01*
X130011D01*
X130217Y56385D01*
X131839Y53574D01*
X134174Y51239D01*
X137034Y49588D01*
X140223Y48734D01*
X143525D01*
X146714Y49588D01*
X149574Y51239D01*
X151908Y53574D01*
X153531Y56385D01*
X153737Y56434D01*
X155411D01*
X155617Y56385D01*
X157239Y53574D01*
X159574Y51239D01*
X162434Y49588D01*
X165623Y48734D01*
X168925D01*
X172114Y49588D01*
X174974Y51239D01*
X177308Y53574D01*
X178931Y56385D01*
X179137Y56434D01*
X180811D01*
X181017Y56385D01*
X182639Y53574D01*
X184974Y51239D01*
X187834Y49588D01*
X191023Y48734D01*
X194325D01*
X197514Y49588D01*
X200374Y51239D01*
X202708Y53574D01*
X204331Y56385D01*
X204537Y56434D01*
X206211D01*
X206417Y56385D01*
X208039Y53574D01*
X210374Y51239D01*
X213234Y49588D01*
X216423Y48734D01*
X219725D01*
X222914Y49588D01*
X225774Y51239D01*
X228108Y53574D01*
X229731Y56385D01*
X229937Y56434D01*
X231611D01*
X231817Y56385D01*
X233439Y53574D01*
X235774Y51239D01*
X238634Y49588D01*
X241823Y48734D01*
X245125D01*
X248314Y49588D01*
X251174Y51239D01*
X253508Y53574D01*
X255131Y56385D01*
X255337Y56434D01*
X257011D01*
X257217Y56385D01*
X258839Y53574D01*
X261174Y51239D01*
X264034Y49588D01*
X267223Y48734D01*
X270525D01*
X273714Y49588D01*
X276574Y51239D01*
X278908Y53574D01*
X280531Y56385D01*
X280737Y56434D01*
X282411D01*
X282617Y56385D01*
X284239Y53574D01*
X286574Y51239D01*
X289434Y49588D01*
X292623Y48734D01*
X295925D01*
X299114Y49588D01*
X301974Y51239D01*
X304308Y53574D01*
X305931Y56385D01*
X306137Y56434D01*
X307811D01*
X308017Y56385D01*
X309639Y53574D01*
X311974Y51239D01*
X314834Y49588D01*
X318023Y48734D01*
X321325D01*
X324514Y49588D01*
X327374Y51239D01*
X329708Y53574D01*
X331331Y56385D01*
X331537Y56434D01*
X333211D01*
X333417Y56385D01*
X335039Y53574D01*
X337374Y51239D01*
X340234Y49588D01*
X343423Y48734D01*
X346725D01*
X349914Y49588D01*
X352774Y51239D01*
X355108Y53574D01*
X356731Y56385D01*
X356937Y56434D01*
X358611D01*
X358817Y56385D01*
X360439Y53574D01*
X362774Y51239D01*
X365634Y49588D01*
X368823Y48734D01*
X372125D01*
X375314Y49588D01*
X376171Y50083D01*
X389727Y36527D01*
X390987Y35685D01*
X392474Y35389D01*
X438617D01*
X439852Y34153D01*
X442072Y33234D01*
X444475D01*
X446695Y34153D01*
X448394Y35852D01*
X449314Y38073D01*
Y40475D01*
X448394Y42695D01*
X446695Y44394D01*
X444475Y45314D01*
X442072D01*
X439852Y44394D01*
X438617Y43158D01*
X394083D01*
X388499Y48742D01*
X389727Y50343D01*
X391034Y49588D01*
X394223Y48734D01*
X394604D01*
Y61274D01*
Y73814D01*
X394223D01*
X391034Y72959D01*
X388174Y71308D01*
X385839Y68974D01*
X384217Y66163D01*
X384011Y66114D01*
X382337D01*
X382131Y66163D01*
X380508Y68974D01*
X378174Y71308D01*
X375314Y72959D01*
X372125Y73814D01*
X368823D01*
X365634Y72959D01*
X362774Y71308D01*
X360439Y68974D01*
X358817Y66163D01*
X358611Y66114D01*
X356937D01*
X356731Y66163D01*
X355108Y68974D01*
X352774Y71308D01*
X349914Y72959D01*
X346725Y73814D01*
X343423D01*
X340234Y72959D01*
X338927Y72205D01*
X337699Y73805D01*
X356283Y92389D01*
X550939D01*
X564923Y78405D01*
X566184Y77563D01*
X567670Y77267D01*
X636094D01*
X637330Y76032D01*
X639550Y75112D01*
X641953D01*
X644173Y76032D01*
X645872Y77731D01*
X646791Y79951D01*
Y82353D01*
X646629Y82745D01*
X647740Y84408D01*
X658089D01*
Y93055D01*
X666747Y101713D01*
X667589Y102973D01*
X667885Y104460D01*
Y125343D01*
X668120Y125579D01*
X669040Y127799D01*
Y130201D01*
X668120Y132421D01*
X666421Y134121D01*
X664201Y135040D01*
X661799D01*
X659579Y134121D01*
X657879Y132421D01*
X656960Y130201D01*
Y127799D01*
X657879Y125579D01*
X659579Y123879D01*
X660115Y123657D01*
Y107981D01*
X660089Y107963D01*
X658089Y109032D01*
Y114070D01*
X652909D01*
Y124274D01*
X652613Y125760D01*
X651771Y127021D01*
X650510Y127863D01*
X649024Y128159D01*
X636721D01*
X627359Y137521D01*
X626098Y138363D01*
X624612Y138659D01*
X266174D01*
X264687Y138363D01*
X263427Y137521D01*
X198371Y72465D01*
X197514Y72959D01*
X194325Y73814D01*
X191023D01*
X187834Y72959D01*
X186527Y72205D01*
X185299Y73805D01*
X212316Y100822D01*
X213158Y102083D01*
X213454Y103569D01*
Y106960D01*
X250133Y143639D01*
X306958D01*
X308445Y143935D01*
X309705Y144777D01*
X490927Y325999D01*
X506884D01*
X508371Y326295D01*
X509631Y327137D01*
X514463Y331969D01*
X516661Y332879D01*
X518360Y334579D01*
X519279Y336799D01*
Y339201D01*
X518360Y341421D01*
X516661Y343120D01*
X514441Y344040D01*
X512038D01*
X509818Y343120D01*
X508119Y341421D01*
X507199Y339201D01*
Y336799D01*
X507523Y336017D01*
X505275Y333769D01*
X489318D01*
X487831Y333473D01*
X486571Y332631D01*
X447506Y293566D01*
X445659Y294331D01*
Y337415D01*
X493478Y385234D01*
X495225D01*
X497445Y386153D01*
X499144Y387853D01*
X500064Y390073D01*
Y392475D01*
X499144Y394695D01*
X497445Y396394D01*
X495225Y397314D01*
X492822D01*
X490602Y396394D01*
X488904Y394695D01*
X487984Y392475D01*
Y390728D01*
X439027Y341771D01*
X438185Y340510D01*
X437889Y339024D01*
Y291133D01*
X327710Y180954D01*
X181279D01*
X179792Y180658D01*
X178532Y179816D01*
X137329Y138613D01*
X128682D01*
Y125929D01*
X88554Y85800D01*
X86703Y86559D01*
X85313Y278143D01*
X87301Y279889D01*
X313574D01*
X315061Y280185D01*
X316321Y281027D01*
X339377Y304083D01*
X340234Y303589D01*
X343423Y302734D01*
X346725D01*
X349914Y303589D01*
X352774Y305239D01*
X355108Y307574D01*
X356731Y310385D01*
X356937Y310434D01*
X358611D01*
X358817Y310385D01*
X360439Y307574D01*
X362774Y305239D01*
X365634Y303589D01*
X368823Y302734D01*
X372125D01*
X375314Y303589D01*
X378174Y305239D01*
X380508Y307574D01*
X382131Y310385D01*
X382337Y310434D01*
X384011D01*
X384217Y310385D01*
X385839Y307574D01*
X388174Y305239D01*
X391034Y303589D01*
X394223Y302734D01*
X394604D01*
Y315274D01*
Y327814D01*
X394223D01*
X391034Y326959D01*
X388174Y325308D01*
X385839Y322974D01*
X384217Y320163D01*
X384011Y320114D01*
X382337D01*
X382131Y320163D01*
X380508Y322974D01*
X378174Y325308D01*
X375314Y326959D01*
X372125Y327814D01*
X368823D01*
X365634Y326959D01*
X362774Y325308D01*
X360439Y322974D01*
X358817Y320163D01*
X358611Y320114D01*
X356937D01*
X356731Y320163D01*
X355108Y322974D01*
X352774Y325308D01*
X349914Y326959D01*
X346725Y327814D01*
X343423D01*
X340234Y326959D01*
X337374Y325308D01*
X335039Y322974D01*
X333417Y320163D01*
X333211Y320114D01*
X331537D01*
X331331Y320163D01*
X329708Y322974D01*
X327374Y325308D01*
X324514Y326959D01*
X321325Y327814D01*
X318023D01*
X314834Y326959D01*
X311974Y325308D01*
X309639Y322974D01*
X308017Y320163D01*
X307811Y320114D01*
X306137D01*
X305931Y320163D01*
X304308Y322974D01*
X301974Y325308D01*
X299114Y326959D01*
X295925Y327814D01*
X292623D01*
X289434Y326959D01*
X286574Y325308D01*
X284239Y322974D01*
X282617Y320163D01*
X282411Y320114D01*
X280737D01*
X280531Y320163D01*
X278908Y322974D01*
X276574Y325308D01*
X273714Y326959D01*
X270525Y327814D01*
X267223D01*
X264034Y326959D01*
X261174Y325308D01*
X258839Y322974D01*
X257217Y320163D01*
X257011Y320114D01*
X255337D01*
X255131Y320163D01*
X253508Y322974D01*
X251174Y325308D01*
X248314Y326959D01*
X245125Y327814D01*
X241823D01*
X238634Y326959D01*
X237777Y326465D01*
X229909Y334333D01*
Y381867D01*
X231144Y383102D01*
X232064Y385322D01*
Y387725D01*
X231144Y389945D01*
X229445Y391644D01*
X227225Y392564D01*
X224823D01*
X222603Y391644D01*
X220903Y389945D01*
X219984Y387725D01*
Y385322D01*
X220903Y383102D01*
X222139Y381867D01*
Y332724D01*
X222435Y331237D01*
X223277Y329977D01*
X225449Y327805D01*
X224221Y326205D01*
X222914Y326959D01*
X219725Y327814D01*
X216423D01*
X213234Y326959D01*
X210374Y325308D01*
X208039Y322974D01*
X206417Y320163D01*
X206211Y320114D01*
X204537D01*
X204331Y320163D01*
X202708Y322974D01*
X200374Y325308D01*
X197514Y326959D01*
X194325Y327814D01*
X191023D01*
X187834Y326959D01*
X184974Y325308D01*
X182639Y322974D01*
X181017Y320163D01*
X180811Y320114D01*
X179137D01*
X178931Y320163D01*
X177308Y322974D01*
X174974Y325308D01*
X172114Y326959D01*
X168925Y327814D01*
X165623D01*
X162434Y326959D01*
X159574Y325308D01*
X157239Y322974D01*
X155617Y320163D01*
X155411Y320114D01*
X153737D01*
X153531Y320163D01*
X151908Y322974D01*
X149574Y325308D01*
X146714Y326959D01*
X143525Y327814D01*
X140223D01*
X137034Y326959D01*
X134174Y325308D01*
X131839Y322974D01*
X130217Y320163D01*
X130011Y320114D01*
X128337D01*
X128131Y320163D01*
X126508Y322974D01*
X124174Y325308D01*
X121314Y326959D01*
X118125Y327814D01*
X114823D01*
X111634Y326959D01*
X108774Y325308D01*
X106439Y322974D01*
X104817Y320163D01*
X104611Y320114D01*
X102937D01*
X102731Y320163D01*
X101108Y322974D01*
X98774Y325308D01*
X95914Y326959D01*
X94959Y327215D01*
Y364303D01*
X96179Y365524D01*
X97927D01*
X100147Y366443D01*
X101846Y368143D01*
X102765Y370363D01*
Y372765D01*
X101846Y374985D01*
X100147Y376684D01*
X99344Y377017D01*
X98874Y379376D01*
X104832Y385334D01*
X105072Y385234D01*
X107475D01*
X109695Y386153D01*
X111394Y387853D01*
X112314Y390073D01*
Y392475D01*
X111394Y394695D01*
X109695Y396394D01*
X107475Y397314D01*
X105072D01*
X102853Y396394D01*
X101153Y394695D01*
X100234Y392475D01*
Y392456D01*
X86429Y378651D01*
X84579Y379410D01*
X83284Y557843D01*
X84693Y559262D01*
X291924Y559262D01*
X293035Y557599D01*
X293012Y557544D01*
X305136D01*
X305237Y557935D01*
X306124Y559262D01*
X407274Y559262D01*
X407273Y560543D01*
X407772Y563056D01*
X408751Y565424D01*
X410174Y567554D01*
X411984Y569367D01*
X414114Y570791D01*
X416480Y571772D01*
X418993Y572273D01*
X420274Y572274D01*
X420274Y572274D01*
X522262Y572274D01*
X523544Y572274D01*
X526058Y571774D01*
X528426Y570793D01*
X530557Y569369D01*
X532369Y567557D01*
X533793Y565426D01*
X534774Y563058D01*
X535154Y561148D01*
X535273Y559277D01*
X535274Y559263D01*
X535274Y559262D01*
X537274Y559262D01*
X789274D01*
X790548Y559325D01*
X793048Y559822D01*
X795402Y560797D01*
X797521Y562213D01*
X799323Y564015D01*
X800739Y566134D01*
X801714Y568489D01*
X802211Y570988D01*
X802274Y572262D01*
Y588376D01*
X803250Y593283D01*
X805165Y597905D01*
X807944Y602065D01*
X811482Y605603D01*
X815642Y608383D01*
X820265Y610298D01*
X825172Y611274D01*
X827674Y611274D01*
X827674Y611274D01*
X928272Y611422D01*
X967082Y611944D01*
X969584Y611944D01*
X974491Y610968D01*
D02*
G37*
G36*
X104817Y310385D02*
X106439Y307574D01*
X108774Y305239D01*
X111634Y303589D01*
X114823Y302734D01*
X118125D01*
X121314Y303589D01*
X124174Y305239D01*
X126508Y307574D01*
X128131Y310385D01*
X128337Y310434D01*
X130011D01*
X130217Y310385D01*
X131839Y307574D01*
X134174Y305239D01*
X137034Y303589D01*
X140223Y302734D01*
X143525D01*
X146714Y303589D01*
X149574Y305239D01*
X151908Y307574D01*
X153531Y310385D01*
X153737Y310434D01*
X155411D01*
X155617Y310385D01*
X157239Y307574D01*
X159574Y305239D01*
X162434Y303589D01*
X165623Y302734D01*
X168925D01*
X172114Y303589D01*
X174974Y305239D01*
X177308Y307574D01*
X178931Y310385D01*
X179137Y310434D01*
X180811D01*
X181017Y310385D01*
X182639Y307574D01*
X184974Y305239D01*
X187834Y303589D01*
X191023Y302734D01*
X194325D01*
X197514Y303589D01*
X200374Y305239D01*
X202708Y307574D01*
X204331Y310385D01*
X204537Y310434D01*
X206211D01*
X206417Y310385D01*
X208039Y307574D01*
X210374Y305239D01*
X213234Y303589D01*
X216423Y302734D01*
X219725D01*
X222914Y303589D01*
X225774Y305239D01*
X228108Y307574D01*
X229731Y310385D01*
X229937Y310434D01*
X231611D01*
X231817Y310385D01*
X233439Y307574D01*
X235774Y305239D01*
X238634Y303589D01*
X241823Y302734D01*
X245125D01*
X248314Y303589D01*
X251174Y305239D01*
X253508Y307574D01*
X255131Y310385D01*
X255337Y310434D01*
X257011D01*
X257217Y310385D01*
X258839Y307574D01*
X261174Y305239D01*
X264034Y303589D01*
X267223Y302734D01*
X270525D01*
X273714Y303589D01*
X276574Y305239D01*
X278908Y307574D01*
X280531Y310385D01*
X280737Y310434D01*
X282411D01*
X282617Y310385D01*
X284239Y307574D01*
X286574Y305239D01*
X289434Y303589D01*
X292623Y302734D01*
X295925D01*
X299114Y303589D01*
X301974Y305239D01*
X304308Y307574D01*
X305931Y310385D01*
X306137Y310434D01*
X307811D01*
X308017Y310385D01*
X309639Y307574D01*
X311974Y305239D01*
X314834Y303589D01*
X318023Y302734D01*
X321325D01*
X324514Y303589D01*
X325821Y304343D01*
X327049Y302742D01*
X311965Y287659D01*
X87534D01*
X85227Y289965D01*
X85140Y302099D01*
X87130Y303348D01*
X89423Y302734D01*
X92725D01*
X95914Y303589D01*
X98774Y305239D01*
X101108Y307574D01*
X102731Y310385D01*
X102937Y310434D01*
X104611D01*
X104817Y310385D01*
D02*
G37*
G36*
X325277Y171337D02*
X305349Y151409D01*
X248524D01*
X247037Y151113D01*
X245777Y150271D01*
X206822Y111316D01*
X205980Y110056D01*
X205685Y108569D01*
Y105178D01*
X172971Y72465D01*
X172114Y72959D01*
X168925Y73814D01*
X165623D01*
X162434Y72959D01*
X159574Y71308D01*
X157239Y68974D01*
X155617Y66163D01*
X155411Y66114D01*
X153737D01*
X153531Y66163D01*
X151908Y68974D01*
X149574Y71308D01*
X146714Y72959D01*
X143525Y73814D01*
X140223D01*
X137034Y72959D01*
X134174Y71308D01*
X131839Y68974D01*
X130217Y66163D01*
X130011Y66114D01*
X128337D01*
X128131Y66163D01*
X126508Y68974D01*
X124174Y71308D01*
X121314Y72959D01*
X118125Y73814D01*
X114823D01*
X111634Y72959D01*
X108774Y71308D01*
X106439Y68974D01*
X104817Y66163D01*
X104611Y66114D01*
X102937D01*
X102731Y66163D01*
X101108Y68974D01*
X98774Y71308D01*
X95914Y72959D01*
X92725Y73814D01*
X90383D01*
X89555Y75814D01*
X134176Y120435D01*
X136201D01*
X136973Y118590D01*
X129128Y110643D01*
X127694Y109249D01*
X126786Y108012D01*
X126591Y107685D01*
X126368Y107314D01*
X126073D01*
X123853Y106394D01*
X122154Y104695D01*
X121234Y102475D01*
Y100072D01*
X122154Y97852D01*
X123853Y96153D01*
X126073Y95234D01*
X128475D01*
X130695Y96153D01*
X132394Y97852D01*
X133314Y100072D01*
Y101674D01*
X133369Y103647D01*
X133506Y103979D01*
X134803Y105333D01*
X149711Y120435D01*
X158344D01*
Y138613D01*
X150929D01*
X150164Y140461D01*
X182888Y173185D01*
X324512D01*
X325277Y171337D01*
D02*
G37*
G36*
X568597Y128889D02*
X567653Y127945D01*
X566734Y125725D01*
Y123322D01*
X567653Y121103D01*
X568889Y119867D01*
Y113592D01*
X564911D01*
Y99451D01*
X564911Y99451D01*
Y98070D01*
X564911D01*
X564911Y97451D01*
Y92018D01*
X563063Y91253D01*
X555295Y99021D01*
X554035Y99863D01*
X552548Y100159D01*
X543779D01*
X542950Y102158D01*
X543894Y103103D01*
X544814Y105323D01*
Y107725D01*
X543894Y109945D01*
X542195Y111644D01*
X539975Y112564D01*
X539043D01*
X537707Y114564D01*
X537814Y114823D01*
Y117225D01*
X536894Y119445D01*
X535195Y121144D01*
X532975Y122064D01*
X530573D01*
X528353Y121144D01*
X527912Y120703D01*
X526230Y121827D01*
X526221Y121848D01*
X526314Y122072D01*
Y124475D01*
X525394Y126695D01*
X523695Y128394D01*
X522500Y128889D01*
X522898Y130889D01*
X567769D01*
X568597Y128889D01*
D02*
G37*
G36*
X534300Y101938D02*
X533513Y100159D01*
X354674D01*
X353187Y99863D01*
X351927Y99021D01*
X325371Y72465D01*
X324514Y72959D01*
X321325Y73814D01*
X318023D01*
X314834Y72959D01*
X313527Y72205D01*
X312299Y73805D01*
X341883Y103389D01*
X533215D01*
X534300Y101938D01*
D02*
G37*
G36*
X338920Y110889D02*
X338787Y110863D01*
X337527Y110021D01*
X299971Y72465D01*
X299114Y72959D01*
X295925Y73814D01*
X292623D01*
X289434Y72959D01*
X288127Y72205D01*
X286899Y73805D01*
X325983Y112889D01*
X338723D01*
X338920Y110889D01*
D02*
G37*
G36*
X319694Y117587D02*
X274571Y72465D01*
X273714Y72959D01*
X270525Y73814D01*
X267223D01*
X264034Y72959D01*
X262727Y72205D01*
X261499Y73805D01*
X307281Y119587D01*
X318865D01*
X319694Y117587D01*
D02*
G37*
G36*
X518047Y128889D02*
X516852Y128394D01*
X515815Y127356D01*
X305672D01*
X304185Y127061D01*
X302925Y126219D01*
X249171Y72465D01*
X248314Y72959D01*
X245125Y73814D01*
X241823D01*
X238634Y72959D01*
X235774Y71308D01*
X233439Y68974D01*
X231817Y66163D01*
X231611Y66114D01*
X229937D01*
X229731Y66163D01*
X228108Y68974D01*
X225774Y71308D01*
X222914Y72959D01*
X219725Y73814D01*
X216423D01*
X213234Y72959D01*
X211927Y72205D01*
X210699Y73805D01*
X267783Y130889D01*
X517649D01*
X518047Y128889D01*
D02*
G37*
%LPC*%
G36*
X160583Y550363D02*
X159965Y550363D01*
X146443D01*
Y546409D01*
X128681D01*
X127445Y547644D01*
X125225Y548564D01*
X122823D01*
X120603Y547644D01*
X118904Y545945D01*
X117984Y543725D01*
Y541323D01*
X118904Y539103D01*
X120603Y537403D01*
X122823Y536484D01*
X125225D01*
X127445Y537403D01*
X128681Y538639D01*
X146443D01*
Y532185D01*
X159965D01*
X161964Y532185D01*
X162583Y532185D01*
X167765D01*
Y541274D01*
Y550363D01*
X162583D01*
X160583Y550363D01*
D02*
G37*
G36*
X305035Y555004D02*
X293012D01*
X293904Y552853D01*
X295602Y551153D01*
X297299Y550451D01*
X297353Y550081D01*
X297143Y548386D01*
X295352Y547644D01*
X293654Y545945D01*
X292762Y543794D01*
X304785D01*
X303894Y545945D01*
X302195Y547644D01*
X300499Y548347D01*
X300445Y548716D01*
X300654Y550412D01*
X302445Y551153D01*
X304144Y552853D01*
X305035Y555004D01*
D02*
G37*
G36*
X170305Y550363D02*
Y542544D01*
X176105D01*
Y550363D01*
X170305D01*
D02*
G37*
G36*
X304785Y541254D02*
X300044D01*
Y536512D01*
X302195Y537403D01*
X303894Y539103D01*
X304785Y541254D01*
D02*
G37*
G36*
X297504D02*
X292762D01*
X293654Y539103D01*
X295352Y537403D01*
X297504Y536512D01*
Y541254D01*
D02*
G37*
G36*
X176105Y540004D02*
X170305D01*
Y532185D01*
X176105D01*
Y540004D01*
D02*
G37*
G36*
X244113Y535594D02*
X225935D01*
Y527314D01*
X204344Y505723D01*
X203446Y504378D01*
X203130Y502793D01*
Y483740D01*
X180345Y460955D01*
X178564Y462002D01*
X178564Y463269D01*
Y470004D01*
X170794D01*
Y461484D01*
X176640D01*
X178046Y461484D01*
X179093Y459703D01*
X144809Y425419D01*
X139311D01*
X138335Y426396D01*
X136115Y427315D01*
X133712D01*
X131492Y426396D01*
X129793Y424697D01*
X128873Y422477D01*
Y420074D01*
X129793Y417854D01*
X131492Y416155D01*
X133712Y415235D01*
X136115D01*
X138335Y416155D01*
X139311Y417132D01*
X146525D01*
X148111Y417447D01*
X149455Y418345D01*
X210204Y479094D01*
X211102Y480438D01*
X211418Y482024D01*
Y501076D01*
X224087Y513746D01*
X225935Y512980D01*
Y505932D01*
X233754D01*
Y513002D01*
X236294D01*
Y505932D01*
X243902D01*
X244192Y505643D01*
X246411Y504723D01*
X248814D01*
X250990Y505624D01*
X273175D01*
X283275Y495525D01*
X282290Y493682D01*
X281524Y493834D01*
X250531D01*
X248355Y494735D01*
X245952D01*
X243732Y493816D01*
X242033Y492117D01*
X241113Y489897D01*
Y487494D01*
X242033Y485274D01*
X243732Y483575D01*
X245952Y482655D01*
X248355D01*
X250531Y483557D01*
X279395D01*
X281311Y481640D01*
X282978Y480526D01*
X284945Y480135D01*
X318774D01*
X320740Y480526D01*
X322407Y481640D01*
X325520Y484753D01*
X329821D01*
X331073Y484234D01*
X333475D01*
X335695Y485153D01*
X337394Y486852D01*
X338314Y489072D01*
Y491475D01*
X337394Y493695D01*
X335695Y495394D01*
X333475Y496314D01*
X331410D01*
X330749Y497242D01*
X330429Y498162D01*
X330443Y498176D01*
X331557Y499843D01*
X331782Y500973D01*
X334443Y503635D01*
X335695Y504153D01*
X337394Y505853D01*
X338314Y508073D01*
Y510475D01*
X337394Y512695D01*
X335695Y514394D01*
X333475Y515314D01*
X331073D01*
X328853Y514394D01*
X327153Y512695D01*
X326234Y510475D01*
Y509960D01*
X323176Y506902D01*
X322062Y505235D01*
X321837Y504104D01*
X321145Y503413D01*
X289922D01*
X278937Y514397D01*
X277270Y515511D01*
X275304Y515902D01*
X250990D01*
X248814Y516803D01*
X246411D01*
X246113Y516679D01*
X244113Y518016D01*
Y520073D01*
X244113Y520073D01*
Y521454D01*
X244113D01*
X244113Y522072D01*
Y524639D01*
X249867D01*
X251103Y523403D01*
X253323Y522484D01*
X255725D01*
X257945Y523403D01*
X259644Y525103D01*
X260564Y527323D01*
Y529725D01*
X259644Y531945D01*
X257945Y533644D01*
X255725Y534564D01*
X253323D01*
X251103Y533644D01*
X249867Y532408D01*
X244113D01*
Y535594D01*
D02*
G37*
G36*
X178564Y526064D02*
X170794D01*
Y517544D01*
X178564D01*
Y526064D01*
D02*
G37*
G36*
X299294Y520285D02*
Y515544D01*
X304035D01*
X303144Y517695D01*
X301445Y519394D01*
X299294Y520285D01*
D02*
G37*
G36*
X296754D02*
X294603Y519394D01*
X292903Y517695D01*
X292012Y515544D01*
X296754D01*
Y520285D01*
D02*
G37*
G36*
X304035Y513004D02*
X299294D01*
Y508262D01*
X301445Y509153D01*
X303144Y510853D01*
X304035Y513004D01*
D02*
G37*
G36*
X296754D02*
X292012D01*
X292903Y510853D01*
X294603Y509153D01*
X296754Y508262D01*
Y513004D01*
D02*
G37*
G36*
X178564Y515004D02*
X170794D01*
Y506484D01*
X178564D01*
Y515004D01*
D02*
G37*
G36*
X168254Y526064D02*
X143984D01*
Y513059D01*
X133318Y502393D01*
X131697D01*
X130695Y503394D01*
X128475Y504314D01*
X126073D01*
X123853Y503394D01*
X122851Y502393D01*
X108980D01*
X105314Y506059D01*
Y507475D01*
X104394Y509695D01*
X102695Y511394D01*
X100475Y512314D01*
X98073D01*
X95852Y511394D01*
X94153Y509695D01*
X93234Y507475D01*
Y505073D01*
X94153Y502853D01*
X95852Y501153D01*
X98073Y500234D01*
X99489D01*
X104361Y495361D01*
X105698Y494468D01*
X107274Y494155D01*
X122851D01*
X123853Y493153D01*
X126073Y492234D01*
X127337D01*
X127447Y491677D01*
X128340Y490340D01*
X141109Y477571D01*
X142446Y476678D01*
X142569Y476654D01*
X143984Y475238D01*
Y461484D01*
X168254D01*
Y471274D01*
Y481064D01*
X150582D01*
X149881Y481984D01*
X150872Y483984D01*
X168254D01*
Y493774D01*
Y503564D01*
X149896D01*
X148816Y505564D01*
X149023Y505922D01*
X149528Y506484D01*
X168254D01*
Y516274D01*
Y526064D01*
D02*
G37*
G36*
X178564Y503564D02*
X170794D01*
Y495044D01*
X178564D01*
Y503564D01*
D02*
G37*
G36*
Y492504D02*
X170794D01*
Y483984D01*
X178564D01*
Y492504D01*
D02*
G37*
G36*
X930270Y487012D02*
Y482270D01*
X935012D01*
X934120Y484421D01*
X932421Y486120D01*
X930270Y487012D01*
D02*
G37*
G36*
X927730D02*
X925579Y486120D01*
X923879Y484421D01*
X922988Y482270D01*
X927730D01*
Y487012D01*
D02*
G37*
G36*
X935012Y479730D02*
X930270D01*
Y474988D01*
X932421Y475880D01*
X934120Y477579D01*
X935012Y479730D01*
D02*
G37*
G36*
X927730D02*
X922988D01*
X923879Y477579D01*
X925579Y475880D01*
X927730Y474988D01*
Y479730D01*
D02*
G37*
G36*
X178564Y481064D02*
X170794D01*
Y472544D01*
X178564D01*
Y481064D01*
D02*
G37*
G36*
X328274Y476413D02*
X286544D01*
X284578Y476021D01*
X282911Y474907D01*
X278416Y470413D01*
X241651D01*
X239475Y471314D01*
X237073D01*
X234853Y470394D01*
X233153Y468695D01*
X232234Y466475D01*
Y464072D01*
X233153Y461852D01*
X234853Y460153D01*
X237073Y459234D01*
X239475D01*
X241651Y460135D01*
X248730D01*
X249964Y458135D01*
X249512Y457044D01*
X261535D01*
X261084Y458135D01*
X262318Y460135D01*
X280544D01*
X282511Y460526D01*
X284178Y461640D01*
X288673Y466135D01*
X326145D01*
X331252Y461028D01*
X332154Y458853D01*
X333853Y457153D01*
X336073Y456234D01*
X338475D01*
X340695Y457153D01*
X342394Y458853D01*
X343314Y461073D01*
Y463475D01*
X342394Y465695D01*
X340695Y467394D01*
X338519Y468296D01*
X331908Y474907D01*
X330240Y476021D01*
X328274Y476413D01*
D02*
G37*
G36*
X261535Y454504D02*
X256794D01*
Y449762D01*
X258945Y450653D01*
X260644Y452352D01*
X261535Y454504D01*
D02*
G37*
G36*
X254254D02*
X249512D01*
X250403Y452352D01*
X252103Y450653D01*
X254254Y449762D01*
Y454504D01*
D02*
G37*
G36*
X134794Y452285D02*
Y447544D01*
X139536D01*
X138644Y449695D01*
X136945Y451394D01*
X134794Y452285D01*
D02*
G37*
G36*
X132254D02*
X130103Y451394D01*
X128404Y449695D01*
X127512Y447544D01*
X132254D01*
Y452285D01*
D02*
G37*
G36*
X139536Y445004D02*
X134794D01*
Y440262D01*
X136945Y441153D01*
X138644Y442853D01*
X139536Y445004D01*
D02*
G37*
G36*
X132254D02*
X127512D01*
X128404Y442853D01*
X130103Y441153D01*
X132254Y440262D01*
Y445004D01*
D02*
G37*
G36*
X602544Y445363D02*
Y437544D01*
X608344D01*
Y445363D01*
X602544D01*
D02*
G37*
G36*
X754430Y441313D02*
Y436572D01*
X759172D01*
X758280Y438723D01*
X756581Y440422D01*
X754430Y441313D01*
D02*
G37*
G36*
X751890D02*
X749739Y440422D01*
X748039Y438723D01*
X747148Y436572D01*
X751890D01*
Y441313D01*
D02*
G37*
G36*
X759172Y434031D02*
X754430D01*
Y429290D01*
X756581Y430181D01*
X758280Y431880D01*
X759172Y434031D01*
D02*
G37*
G36*
X751890D02*
X747148D01*
X748039Y431880D01*
X749739Y430181D01*
X751890Y429290D01*
Y434031D01*
D02*
G37*
G36*
X608344Y435004D02*
X602544D01*
Y427185D01*
X608344D01*
Y435004D01*
D02*
G37*
G36*
X572475Y481314D02*
X570073D01*
X567853Y480394D01*
X566153Y478695D01*
X565234Y476475D01*
Y474072D01*
X566153Y471852D01*
X567389Y470617D01*
Y469175D01*
X564380Y466166D01*
X563538Y464906D01*
X563243Y463419D01*
Y456918D01*
X563538Y455431D01*
X564380Y454171D01*
X578682Y439869D01*
Y427185D01*
X592204D01*
X594204Y427185D01*
X594823Y427185D01*
X600004D01*
Y436274D01*
Y445363D01*
X594823D01*
X592823Y445363D01*
X592204Y445363D01*
X584176D01*
X571012Y458527D01*
Y461810D01*
X574021Y464819D01*
X574863Y466079D01*
X575159Y467566D01*
Y470617D01*
X576394Y471852D01*
X577314Y474072D01*
Y476475D01*
X576394Y478695D01*
X574695Y480394D01*
X572475Y481314D01*
D02*
G37*
G36*
X928480Y442582D02*
X918320D01*
X916099Y442290D01*
X914029Y441433D01*
X912251Y440069D01*
X910887Y438291D01*
X910030Y436221D01*
X909737Y434000D01*
X910030Y431779D01*
X910887Y429709D01*
X912251Y427931D01*
X914029Y426567D01*
X916099Y425710D01*
X918320Y425418D01*
X928480D01*
X930701Y425710D01*
X932771Y426567D01*
X934549Y427931D01*
X935912Y429709D01*
X936770Y431779D01*
X937062Y434000D01*
X936770Y436221D01*
X935912Y438291D01*
X934549Y440069D01*
X932771Y441433D01*
X930701Y442290D01*
X928480Y442582D01*
D02*
G37*
G36*
X326544Y427285D02*
Y422544D01*
X331286D01*
X330394Y424695D01*
X328695Y426394D01*
X326544Y427285D01*
D02*
G37*
G36*
X324004D02*
X321852Y426394D01*
X320154Y424695D01*
X319262Y422544D01*
X324004D01*
Y427285D01*
D02*
G37*
G36*
X905270Y426012D02*
Y421270D01*
X910012D01*
X909120Y423421D01*
X907421Y425121D01*
X905270Y426012D01*
D02*
G37*
G36*
X902730D02*
X900579Y425121D01*
X898879Y423421D01*
X897988Y421270D01*
X902730D01*
Y426012D01*
D02*
G37*
G36*
X331286Y420004D02*
X326544D01*
Y415262D01*
X328695Y416153D01*
X330394Y417853D01*
X331286Y420004D01*
D02*
G37*
G36*
X324004D02*
X319262D01*
X320154Y417853D01*
X321852Y416153D01*
X324004Y415262D01*
Y420004D01*
D02*
G37*
G36*
X910012Y418730D02*
X905270D01*
Y413988D01*
X907421Y414879D01*
X909120Y416579D01*
X910012Y418730D01*
D02*
G37*
G36*
X902730D02*
X897988D01*
X898879Y416579D01*
X900579Y414879D01*
X902730Y413988D01*
Y418730D01*
D02*
G37*
G36*
X787314Y493064D02*
X766734D01*
Y465984D01*
X787314D01*
Y477085D01*
X804380D01*
Y466842D01*
X804771Y464875D01*
X805885Y463208D01*
X810980Y458114D01*
X810413Y456114D01*
X794229D01*
Y454443D01*
X791921D01*
X790345Y454129D01*
X789009Y453237D01*
X787915Y452143D01*
X783274D01*
X782876Y452064D01*
X766734D01*
Y424984D01*
X781489D01*
X786652Y419820D01*
Y410396D01*
X786652Y410013D01*
X784652Y409616D01*
X784445Y410117D01*
X783894Y411445D01*
X782195Y413144D01*
X780044Y414035D01*
Y408024D01*
Y402012D01*
X782195Y402903D01*
X783894Y404603D01*
X784814Y406823D01*
Y407699D01*
X784814Y408219D01*
X786814Y408416D01*
X786966Y407652D01*
X787859Y406316D01*
X794398Y399777D01*
Y394496D01*
X793497Y393894D01*
Y388892D01*
X790957D01*
Y394115D01*
X790057Y395343D01*
Y395532D01*
X789328Y397293D01*
X787981Y398640D01*
X786537Y399238D01*
Y394579D01*
Y389356D01*
X787437Y388129D01*
Y387939D01*
X788051Y386457D01*
X787797Y385762D01*
X787704Y385603D01*
X787694Y385590D01*
Y379819D01*
Y374394D01*
X788127Y373526D01*
X787694Y373076D01*
Y367247D01*
X786424D01*
Y365977D01*
X781765D01*
X782363Y364534D01*
X783711Y363186D01*
X785471Y362457D01*
X786803D01*
X787755Y360739D01*
X786435Y359314D01*
X785072D01*
X782852Y358394D01*
X781153Y356695D01*
X780234Y354475D01*
Y352072D01*
X781153Y349852D01*
X782852Y348153D01*
X784300Y347554D01*
X784522Y347198D01*
X784861Y345531D01*
X784836Y345332D01*
X770286Y330782D01*
X769307Y330588D01*
X767640Y329473D01*
X765616Y327450D01*
X760929D01*
X760432Y327351D01*
X753242D01*
Y315961D01*
X767306D01*
Y317172D01*
X767745D01*
X769712Y317563D01*
X771379Y318677D01*
X773599Y320898D01*
X774577Y321092D01*
X776245Y322206D01*
X791123Y337085D01*
X794229D01*
Y336434D01*
X799255D01*
Y329404D01*
X799646Y327438D01*
X800760Y325771D01*
X808569Y317962D01*
X807804Y316114D01*
X794229D01*
X794229Y316114D01*
Y316114D01*
X794229Y316114D01*
X792454Y316658D01*
X791814Y317298D01*
Y318225D01*
X790894Y320445D01*
X789195Y322144D01*
X786975Y323064D01*
X784573D01*
X782353Y322144D01*
X780654Y320445D01*
X779734Y318225D01*
Y315823D01*
X780654Y313603D01*
X780889Y313367D01*
Y312457D01*
X774538Y306105D01*
X762185D01*
Y292583D01*
X762185Y290583D01*
X762185Y289964D01*
Y284783D01*
X771274D01*
X780363D01*
Y289964D01*
X780363Y291964D01*
X780363Y292583D01*
Y300280D01*
X787921Y307838D01*
X787937Y307862D01*
X788762Y308699D01*
X790099Y307806D01*
X791675Y307492D01*
X794229D01*
Y304534D01*
X794229Y304534D01*
Y303414D01*
X794229D01*
X794229Y302534D01*
Y291834D01*
X794229D01*
Y290714D01*
X794229D01*
Y279134D01*
X794229D01*
Y278014D01*
X794229D01*
Y266434D01*
X814559D01*
Y278014D01*
X814559D01*
Y279134D01*
X814559D01*
Y290714D01*
X814559D01*
Y291834D01*
X814559D01*
Y296147D01*
X817022Y298610D01*
X817516Y298940D01*
X820153Y301576D01*
X821266Y303243D01*
X821658Y305210D01*
Y317279D01*
X821266Y319246D01*
X820153Y320913D01*
X809533Y331533D01*
Y336434D01*
X814559D01*
Y348014D01*
X814559D01*
Y349134D01*
X814559D01*
Y360714D01*
X814559D01*
Y361834D01*
X814559D01*
Y366147D01*
X817022Y368610D01*
X817516Y368940D01*
X820153Y371576D01*
X821266Y373243D01*
X821554Y374691D01*
X821764Y374927D01*
X822792Y375556D01*
X823658Y375820D01*
X825072Y375234D01*
X827475D01*
X829695Y376153D01*
X829993Y376451D01*
X835984Y370460D01*
Y368322D01*
X836904Y366102D01*
X838603Y364403D01*
X840823Y363484D01*
X843225D01*
X845445Y364403D01*
X845989Y364947D01*
X847989Y364119D01*
Y361834D01*
X847989D01*
Y360714D01*
X847989D01*
Y349134D01*
X847989D01*
Y348014D01*
X847989D01*
Y336434D01*
X861052D01*
X911885Y285600D01*
Y274151D01*
X910984Y271975D01*
Y269573D01*
X911904Y267353D01*
X913603Y265653D01*
X915823Y264734D01*
X918225D01*
X920445Y265653D01*
X922144Y267353D01*
X923064Y269573D01*
Y271975D01*
X922163Y274151D01*
Y281635D01*
X930984D01*
Y273234D01*
X951564D01*
Y300314D01*
X930984D01*
Y291913D01*
X920107D01*
X868319Y343701D01*
Y348014D01*
X868319D01*
Y349134D01*
X868818Y349733D01*
X870353Y350903D01*
X872504Y350012D01*
Y356024D01*
Y362035D01*
X870352Y361144D01*
X870203Y360994D01*
X869910Y360951D01*
X868319Y362342D01*
Y373414D01*
X868319D01*
Y374534D01*
X868319D01*
Y382159D01*
X870319Y382557D01*
X870404Y382352D01*
X872103Y380653D01*
X874254Y379762D01*
Y385774D01*
Y391786D01*
X872103Y390894D01*
X870404Y389195D01*
X869716Y387535D01*
X868868Y386672D01*
X867732Y386114D01*
X867484Y386114D01*
X847989D01*
Y374929D01*
X846377Y373849D01*
X846190Y373900D01*
X845445Y374644D01*
X843225Y375564D01*
X841088D01*
X833783Y382869D01*
X832612Y383652D01*
X831756Y383822D01*
X831394Y384695D01*
X830383Y385706D01*
Y397524D01*
X830695Y397653D01*
X832394Y399352D01*
X833314Y401572D01*
Y403975D01*
X832394Y406195D01*
X830695Y407894D01*
X828475Y408814D01*
X826072D01*
X823852Y407894D01*
X822153Y406195D01*
X821234Y403975D01*
Y401572D01*
X822153Y399352D01*
X823165Y398341D01*
Y393182D01*
X821309Y391945D01*
X821165Y391961D01*
X820153Y393475D01*
X814658Y398970D01*
Y411474D01*
X814559Y411970D01*
Y418014D01*
X814559D01*
Y419134D01*
X814559D01*
Y430714D01*
X814559D01*
Y431834D01*
X814559D01*
Y436147D01*
X817022Y438610D01*
X817516Y438940D01*
X820153Y441576D01*
X821266Y443243D01*
X821658Y445210D01*
Y459842D01*
X821266Y461808D01*
X820153Y463475D01*
X814658Y468970D01*
Y481474D01*
X814267Y483440D01*
X813153Y485107D01*
X812402Y485858D01*
X810735Y486971D01*
X808769Y487363D01*
X787314D01*
Y493064D01*
D02*
G37*
G36*
X777504Y414035D02*
X775353Y413144D01*
X773653Y411445D01*
X772762Y409294D01*
X777504D01*
Y414035D01*
D02*
G37*
G36*
Y406754D02*
X772762D01*
X773653Y404603D01*
X775353Y402903D01*
X777504Y402012D01*
Y406754D01*
D02*
G37*
G36*
X466262Y415702D02*
X465667Y415584D01*
X465061D01*
X464695Y415432D01*
X441555D01*
X439199Y414963D01*
X437201Y413629D01*
X435931Y412359D01*
X435594Y411854D01*
X435165Y411425D01*
X434933Y410865D01*
X434596Y410361D01*
X434478Y409766D01*
X434245Y409205D01*
Y408599D01*
X434127Y408004D01*
X434245Y407409D01*
Y406802D01*
X434478Y406242D01*
X434596Y405647D01*
X434933Y405143D01*
X435165Y404582D01*
X435594Y404154D01*
X435931Y403649D01*
X436435Y403312D01*
X436864Y402883D01*
X437425Y402651D01*
X437929Y402314D01*
X438524Y402196D01*
X439084Y401964D01*
X439691D01*
X440285Y401846D01*
X440880Y401964D01*
X441487D01*
X442047Y402196D01*
X442642Y402314D01*
X443147Y402651D01*
X443707Y402883D01*
X443939Y403116D01*
X465992D01*
X468349Y403584D01*
X469476Y404337D01*
X469684Y404423D01*
X469842Y404582D01*
X470347Y404919D01*
X470617Y405189D01*
X470954Y405694D01*
X471383Y406123D01*
X471615Y406683D01*
X471952Y407187D01*
X472070Y407782D01*
X472302Y408343D01*
Y408949D01*
X472421Y409544D01*
X472302Y410139D01*
Y410745D01*
X472070Y411306D01*
X471952Y411901D01*
X471615Y412405D01*
X471383Y412965D01*
X470954Y413394D01*
X470617Y413899D01*
X470112Y414235D01*
X469684Y414664D01*
X469123Y414897D01*
X468619Y415233D01*
X468024Y415352D01*
X467464Y415584D01*
X466857D01*
X466262Y415702D01*
D02*
G37*
G36*
X783997Y399238D02*
X782554Y398640D01*
X781207Y397293D01*
X780609Y395849D01*
X783997D01*
Y399238D01*
D02*
G37*
G36*
X326544Y395285D02*
Y390544D01*
X331286D01*
X330394Y392695D01*
X328695Y394394D01*
X326544Y395285D01*
D02*
G37*
G36*
X324004D02*
X321852Y394394D01*
X320154Y392695D01*
X319262Y390544D01*
X324004D01*
Y395285D01*
D02*
G37*
G36*
X783997Y393309D02*
X780609D01*
X781207Y391866D01*
X782554Y390518D01*
X783997Y389921D01*
Y393309D01*
D02*
G37*
G36*
X876794Y391786D02*
Y387044D01*
X881535D01*
X880644Y389195D01*
X878945Y390894D01*
X876794Y391786D01*
D02*
G37*
G36*
X331286Y388004D02*
X326544D01*
Y383262D01*
X328695Y384153D01*
X330394Y385853D01*
X331286Y388004D01*
D02*
G37*
G36*
X324004D02*
X319262D01*
X320154Y385853D01*
X321852Y384153D01*
X324004Y383262D01*
Y388004D01*
D02*
G37*
G36*
X785154Y384478D02*
X783711Y383880D01*
X782363Y382533D01*
X781765Y381090D01*
X785154D01*
Y384478D01*
D02*
G37*
G36*
X881535Y384504D02*
X876794D01*
Y379762D01*
X878945Y380653D01*
X880644Y382352D01*
X881535Y384504D01*
D02*
G37*
G36*
X501270Y383012D02*
Y378270D01*
X506012D01*
X505121Y380421D01*
X503421Y382121D01*
X501270Y383012D01*
D02*
G37*
G36*
X498730D02*
X496579Y382121D01*
X494879Y380421D01*
X493988Y378270D01*
X498730D01*
Y383012D01*
D02*
G37*
G36*
X682314Y383564D02*
X672544D01*
Y377544D01*
X682314D01*
Y383564D01*
D02*
G37*
G36*
X670004D02*
X660234D01*
Y377544D01*
X670004D01*
Y383564D01*
D02*
G37*
G36*
X785154Y378549D02*
X781765D01*
X782363Y377106D01*
X783711Y375759D01*
X785154Y375161D01*
Y378549D01*
D02*
G37*
G36*
X896475Y384314D02*
X894072D01*
X891852Y383394D01*
X890154Y381695D01*
X889234Y379475D01*
Y377072D01*
X890154Y374852D01*
X891852Y373153D01*
X894072Y372234D01*
X896475D01*
X898695Y373153D01*
X900394Y374852D01*
X901314Y377072D01*
Y379475D01*
X900394Y381695D01*
X898695Y383394D01*
X896475Y384314D01*
D02*
G37*
G36*
X981290Y384040D02*
X972270D01*
Y371770D01*
X981290D01*
Y384040D01*
D02*
G37*
G36*
X969730D02*
X960710D01*
Y371770D01*
X969730D01*
Y384040D01*
D02*
G37*
G36*
X506012Y375730D02*
X501270D01*
Y370988D01*
X503421Y371880D01*
X505121Y373579D01*
X506012Y375730D01*
D02*
G37*
G36*
X498730D02*
X493988D01*
X494879Y373579D01*
X496579Y371880D01*
X498730Y370988D01*
Y375730D01*
D02*
G37*
G36*
X682314Y375004D02*
X672544D01*
Y368984D01*
X682314D01*
Y375004D01*
D02*
G37*
G36*
X670004D02*
X660234D01*
Y368984D01*
X670004D01*
Y375004D01*
D02*
G37*
G36*
X785154Y371906D02*
X783711Y371308D01*
X782363Y369960D01*
X781765Y368517D01*
X785154D01*
Y371906D01*
D02*
G37*
G36*
X773084Y367035D02*
Y362294D01*
X777825D01*
X776934Y364445D01*
X775235Y366144D01*
X773084Y367035D01*
D02*
G37*
G36*
X700004Y367504D02*
X692185D01*
Y361704D01*
X700004D01*
Y367504D01*
D02*
G37*
G36*
X945270Y366012D02*
Y361270D01*
X950012D01*
X949120Y363421D01*
X947421Y365121D01*
X945270Y366012D01*
D02*
G37*
G36*
X942730D02*
X940579Y365121D01*
X938879Y363421D01*
X937988Y361270D01*
X942730D01*
Y366012D01*
D02*
G37*
G36*
X875044Y362035D02*
Y357294D01*
X879786D01*
X878894Y359445D01*
X877195Y361144D01*
X875044Y362035D01*
D02*
G37*
G36*
X777825Y359754D02*
X773084D01*
Y355012D01*
X775235Y355903D01*
X776934Y357603D01*
X777825Y359754D01*
D02*
G37*
G36*
X950012Y358730D02*
X945270D01*
Y353988D01*
X947421Y354879D01*
X949120Y356579D01*
X950012Y358730D01*
D02*
G37*
G36*
X942730D02*
X937988D01*
X938879Y356579D01*
X940579Y354879D01*
X942730Y353988D01*
Y358730D01*
D02*
G37*
G36*
X879786Y354754D02*
X875044D01*
Y350012D01*
X877195Y350903D01*
X878894Y352603D01*
X879786Y354754D01*
D02*
G37*
G36*
X754475Y409314D02*
X752073D01*
X749853Y408394D01*
X748154Y406695D01*
X747234Y404475D01*
Y402072D01*
X748154Y399852D01*
X749389Y398617D01*
Y383524D01*
X749685Y382037D01*
X750527Y380777D01*
X752323Y378981D01*
X753583Y378139D01*
X755070Y377843D01*
X756504D01*
X757234Y377113D01*
Y376572D01*
X758135Y374397D01*
Y348219D01*
X753242D01*
Y345942D01*
X736214D01*
X734945Y347210D01*
X732725Y348130D01*
X730322D01*
X728102Y347210D01*
X726403Y345511D01*
X725484Y343291D01*
Y340888D01*
X723636Y340159D01*
X710363D01*
Y343344D01*
X710363Y343344D01*
Y344725D01*
X710363D01*
X710363Y345344D01*
Y353372D01*
X713840Y356849D01*
X714682Y358109D01*
X714978Y359596D01*
Y376495D01*
X714682Y377982D01*
X713840Y379242D01*
X710363Y382719D01*
Y391366D01*
X692185D01*
Y377844D01*
X692185Y377225D01*
X692185D01*
Y375844D01*
X692185D01*
Y370044D01*
X701274D01*
Y368774D01*
X702544D01*
Y361704D01*
X703561D01*
X704561Y359704D01*
X703932Y358866D01*
X692185D01*
Y350219D01*
X687124Y345159D01*
X682314D01*
Y348564D01*
X660234D01*
Y339478D01*
X478415Y157659D01*
X355431D01*
X354195Y158894D01*
X351975Y159814D01*
X349572D01*
X347352Y158894D01*
X345653Y157195D01*
X344734Y154975D01*
Y152572D01*
X345653Y150352D01*
X347352Y148653D01*
X349572Y147734D01*
X351975D01*
X354195Y148653D01*
X355431Y149889D01*
X480024D01*
X481511Y150185D01*
X482771Y151027D01*
X621396Y289653D01*
X623092Y288520D01*
X622988Y288270D01*
X627730D01*
Y293012D01*
X627480Y292908D01*
X626347Y294604D01*
X665728Y333984D01*
X682314D01*
Y337389D01*
X688734D01*
X690220Y337685D01*
X692185Y336592D01*
Y329204D01*
X710363D01*
Y332389D01*
X726524D01*
X728010Y332685D01*
X729271Y333527D01*
X731794Y336050D01*
X732725D01*
X734945Y336969D01*
X736148Y338172D01*
X753242D01*
Y336829D01*
X767306D01*
Y342486D01*
X768021Y343557D01*
X768413Y345524D01*
Y354095D01*
X770076Y355206D01*
X770544Y355012D01*
Y361024D01*
Y367035D01*
X770076Y366842D01*
X768413Y367953D01*
Y374397D01*
X769314Y376572D01*
Y378975D01*
X768394Y381195D01*
X766695Y382894D01*
X764475Y383814D01*
X762073D01*
X761682Y383652D01*
X760860Y384475D01*
X759600Y385317D01*
X758113Y385612D01*
X757159D01*
Y398617D01*
X758394Y399852D01*
X759314Y402072D01*
Y404475D01*
X758394Y406695D01*
X756695Y408394D01*
X754475Y409314D01*
D02*
G37*
G36*
X928480Y356182D02*
X918320D01*
X916099Y355890D01*
X914029Y355033D01*
X912251Y353669D01*
X910887Y351891D01*
X910030Y349821D01*
X909737Y347600D01*
X910030Y345379D01*
X910887Y343309D01*
X912251Y341531D01*
X914029Y340167D01*
X916099Y339310D01*
X918320Y339017D01*
X928480D01*
X930701Y339310D01*
X932771Y340167D01*
X934549Y341531D01*
X935912Y343309D01*
X936770Y345379D01*
X937062Y347600D01*
X936770Y349821D01*
X935912Y351891D01*
X934549Y353669D01*
X932771Y355033D01*
X930701Y355890D01*
X928480Y356182D01*
D02*
G37*
G36*
X580764Y395764D02*
X561784D01*
Y376784D01*
X566498D01*
X567034Y374784D01*
X565447Y373868D01*
X563680Y372101D01*
X562431Y369937D01*
X561784Y367523D01*
Y365024D01*
X562431Y362611D01*
X563680Y360447D01*
X565447Y358680D01*
X567611Y357431D01*
X568064Y357309D01*
Y355239D01*
X567611Y355117D01*
X565447Y353868D01*
X563680Y352101D01*
X562431Y349937D01*
X561784Y347523D01*
Y345024D01*
X562431Y342611D01*
X563680Y340447D01*
X565447Y338680D01*
X567611Y337431D01*
X570024Y336784D01*
X572523D01*
X574937Y337431D01*
X577101Y338680D01*
X578868Y340447D01*
X580117Y342611D01*
X580764Y345024D01*
Y347523D01*
X580117Y349937D01*
X578868Y352101D01*
X577101Y353868D01*
X574937Y355117D01*
X574484Y355239D01*
Y357309D01*
X574937Y357431D01*
X577101Y358680D01*
X578868Y360447D01*
X580117Y362611D01*
X580764Y365024D01*
Y367523D01*
X580117Y369937D01*
X578868Y372101D01*
X577101Y373868D01*
X575514Y374784D01*
X576050Y376784D01*
X580764D01*
Y395764D01*
D02*
G37*
G36*
X633270Y329012D02*
Y324270D01*
X638012D01*
X637121Y326421D01*
X635421Y328120D01*
X633270Y329012D01*
D02*
G37*
G36*
X630730D02*
X628579Y328120D01*
X626880Y326421D01*
X625960Y324201D01*
Y323195D01*
X624702Y322666D01*
X623960Y322582D01*
X622421Y324120D01*
X620270Y325012D01*
Y319000D01*
Y312988D01*
X622421Y313880D01*
X624120Y315579D01*
X625040Y317799D01*
Y318805D01*
X626298Y319334D01*
X627040Y319418D01*
X628579Y317880D01*
X630730Y316988D01*
Y323000D01*
Y329012D01*
D02*
G37*
G36*
X432274Y364432D02*
X429375D01*
X427018Y363963D01*
X425020Y362629D01*
X420919Y358528D01*
X419584Y356530D01*
X419116Y354173D01*
Y327814D01*
X408734D01*
Y322080D01*
X406734Y321544D01*
X405908Y322974D01*
X403574Y325308D01*
X400714Y326959D01*
X397525Y327814D01*
X397144D01*
Y315274D01*
Y302734D01*
X397525D01*
X400714Y303589D01*
X403574Y305239D01*
X405908Y307574D01*
X406734Y309004D01*
X408734Y308468D01*
Y302734D01*
X433814D01*
Y327814D01*
X431432D01*
Y351623D01*
X431925Y352116D01*
X432274D01*
X432869Y352234D01*
X433475D01*
X434036Y352466D01*
X434631Y352584D01*
X435135Y352921D01*
X435695Y353153D01*
X436124Y353582D01*
X436628Y353919D01*
X436965Y354424D01*
X437394Y354852D01*
X437626Y355413D01*
X437963Y355917D01*
X438082Y356512D01*
X438314Y357072D01*
Y357679D01*
X438432Y358274D01*
X438314Y358869D01*
Y359475D01*
X438082Y360036D01*
X437963Y360631D01*
X437626Y361135D01*
X437394Y361695D01*
X436965Y362124D01*
X436628Y362629D01*
X436124Y362966D01*
X435695Y363394D01*
X435135Y363627D01*
X434631Y363963D01*
X434036Y364082D01*
X433475Y364314D01*
X432869D01*
X432274Y364432D01*
D02*
G37*
G36*
X617730Y325012D02*
X615579Y324120D01*
X613880Y322421D01*
X612988Y320270D01*
X617730D01*
Y325012D01*
D02*
G37*
G36*
X638012Y321730D02*
X633270D01*
Y316988D01*
X635421Y317880D01*
X637121Y319579D01*
X638012Y321730D01*
D02*
G37*
G36*
X617730Y317730D02*
X612988D01*
X613880Y315579D01*
X615579Y313880D01*
X617730Y312988D01*
Y317730D01*
D02*
G37*
G36*
X608270Y314012D02*
Y309270D01*
X613012D01*
X612121Y311421D01*
X610421Y313120D01*
X608270Y314012D01*
D02*
G37*
G36*
X605730D02*
X603579Y313120D01*
X601880Y311421D01*
X600988Y309270D01*
X605730D01*
Y314012D01*
D02*
G37*
G36*
X652270Y311012D02*
Y306270D01*
X657012D01*
X656121Y308421D01*
X654421Y310121D01*
X652270Y311012D01*
D02*
G37*
G36*
X649730D02*
X647579Y310121D01*
X645880Y308421D01*
X644988Y306270D01*
X649730D01*
Y311012D01*
D02*
G37*
G36*
X501867Y318614D02*
X499881D01*
X497964Y318100D01*
X496244Y317107D01*
X494840Y315704D01*
X493848Y313984D01*
X493334Y312067D01*
Y310081D01*
X493848Y308164D01*
X494840Y306444D01*
X496244Y305040D01*
X497964Y304048D01*
X499881Y303534D01*
X501867D01*
X503784Y304048D01*
X505504Y305040D01*
X506907Y306444D01*
X507900Y308164D01*
X508414Y310081D01*
Y312067D01*
X507900Y313984D01*
X506907Y315704D01*
X505504Y317107D01*
X503784Y318100D01*
X501867Y318614D01*
D02*
G37*
G36*
X613012Y306730D02*
X608270D01*
Y301988D01*
X610421Y302880D01*
X612121Y304579D01*
X613012Y306730D01*
D02*
G37*
G36*
X605730D02*
X600988D01*
X601880Y304579D01*
X603579Y302880D01*
X605730Y301988D01*
Y306730D01*
D02*
G37*
G36*
X649730Y303730D02*
X644988D01*
X645121Y303410D01*
X643590Y301879D01*
X643270Y302012D01*
Y297270D01*
X648012D01*
X647879Y297590D01*
X649410Y299121D01*
X649730Y298988D01*
Y303730D01*
D02*
G37*
G36*
X657012D02*
X652270D01*
Y298988D01*
X654421Y299879D01*
X656121Y301579D01*
X657012Y303730D01*
D02*
G37*
G36*
X640730Y302012D02*
X638579Y301120D01*
X636880Y299421D01*
X635988Y297270D01*
X640730D01*
Y302012D01*
D02*
G37*
G36*
X648012Y294730D02*
X643270D01*
Y289988D01*
X645421Y290879D01*
X647121Y292579D01*
X648012Y294730D01*
D02*
G37*
G36*
X640730D02*
X635988D01*
X636880Y292579D01*
X638579Y290879D01*
X640730Y289988D01*
Y294730D01*
D02*
G37*
G36*
X630270Y293012D02*
Y288270D01*
X635012D01*
X634120Y290421D01*
X632421Y292120D01*
X630270Y293012D01*
D02*
G37*
G36*
X635012Y285730D02*
X630270D01*
Y280988D01*
X632421Y281880D01*
X634120Y283579D01*
X635012Y285730D01*
D02*
G37*
G36*
X627730D02*
X622988D01*
X623880Y283579D01*
X625579Y281880D01*
X627730Y280988D01*
Y285730D01*
D02*
G37*
G36*
X780363Y282243D02*
X772544D01*
Y276443D01*
X780363D01*
Y282243D01*
D02*
G37*
G36*
X770004D02*
X762185D01*
Y276443D01*
X770004D01*
Y282243D01*
D02*
G37*
G36*
X337725Y270564D02*
X335322D01*
X333102Y269644D01*
X331867Y268409D01*
X298181D01*
X296945Y269644D01*
X294725Y270564D01*
X292323D01*
X290103Y269644D01*
X288403Y267945D01*
X287484Y265725D01*
Y263323D01*
X288403Y261103D01*
X290103Y259403D01*
X292323Y258484D01*
X294725D01*
X296945Y259403D01*
X298181Y260639D01*
X331867D01*
X333102Y259403D01*
X335322Y258484D01*
X337725D01*
X339945Y259403D01*
X341644Y261103D01*
X342564Y263323D01*
Y265725D01*
X341644Y267945D01*
X339945Y269644D01*
X337725Y270564D01*
D02*
G37*
G36*
X474725Y263064D02*
X472323D01*
X470103Y262144D01*
X468867Y260909D01*
X458347D01*
X456861Y260613D01*
X455600Y259771D01*
X454738Y258909D01*
X451181D01*
X449695Y260394D01*
X447475Y261314D01*
X445073D01*
X442853Y260394D01*
X441153Y258695D01*
X440234Y256475D01*
Y254072D01*
X441153Y251852D01*
X442853Y250153D01*
X445073Y249234D01*
X447475D01*
X449695Y250153D01*
X450681Y251139D01*
X456347D01*
X457834Y251435D01*
X459094Y252277D01*
X459956Y253139D01*
X468867D01*
X470103Y251903D01*
X472323Y250984D01*
X474725D01*
X476945Y251903D01*
X478644Y253603D01*
X479564Y255823D01*
Y258225D01*
X478644Y260445D01*
X476945Y262144D01*
X474725Y263064D01*
D02*
G37*
G36*
X951564Y259314D02*
X942544D01*
Y247044D01*
X951564D01*
Y259314D01*
D02*
G37*
G36*
X940004D02*
X930984D01*
Y247044D01*
X940004D01*
Y259314D01*
D02*
G37*
G36*
X785270Y246012D02*
Y241270D01*
X790012D01*
X789120Y243421D01*
X787421Y245121D01*
X785270Y246012D01*
D02*
G37*
G36*
X782730D02*
X780579Y245121D01*
X778879Y243421D01*
X777988Y241270D01*
X782730D01*
Y246012D01*
D02*
G37*
G36*
X395475Y281314D02*
X393073D01*
X390853Y280394D01*
X389154Y278695D01*
X388234Y276475D01*
Y275780D01*
X352356Y239903D01*
X300274D01*
X300274Y239903D01*
X298503Y239550D01*
X297001Y238547D01*
X297001Y238547D01*
X259768Y201314D01*
X259072D01*
X256852Y200394D01*
X255154Y198695D01*
X254234Y196475D01*
Y194072D01*
X255154Y191852D01*
X256852Y190153D01*
X259072Y189234D01*
X261475D01*
X263695Y190153D01*
X265394Y191852D01*
X266314Y194072D01*
Y194767D01*
X302191Y230645D01*
X354274D01*
X354274Y230645D01*
X356045Y230997D01*
X357547Y232001D01*
X394780Y269234D01*
X395475D01*
X397695Y270153D01*
X399394Y271852D01*
X400314Y274072D01*
Y276475D01*
X399394Y278695D01*
X397695Y280394D01*
X395475Y281314D01*
D02*
G37*
G36*
X517274Y291432D02*
X516679Y291314D01*
X516073D01*
X515512Y291082D01*
X514917Y290963D01*
X514413Y290626D01*
X513853Y290394D01*
X513424Y289965D01*
X512919Y289629D01*
X491895Y268604D01*
X490560Y266606D01*
X490091Y264250D01*
Y248309D01*
X478570Y236788D01*
X476609Y237178D01*
X476394Y237695D01*
X474695Y239394D01*
X472475Y240314D01*
X470073D01*
X467853Y239394D01*
X466617Y238158D01*
X412524D01*
X411037Y237863D01*
X410590Y237564D01*
X408573D01*
X406353Y236644D01*
X404654Y234945D01*
X403734Y232725D01*
Y230322D01*
X404654Y228102D01*
X406353Y226403D01*
X408573Y225484D01*
X410975D01*
X413195Y226403D01*
X414894Y228102D01*
X415814Y230322D01*
Y230389D01*
X466617D01*
X467853Y229153D01*
X467497Y227136D01*
X466902Y226432D01*
X443374D01*
X441018Y225963D01*
X439020Y224629D01*
X434919Y220528D01*
X433584Y218530D01*
X433116Y216173D01*
Y212274D01*
X433234Y211679D01*
Y211073D01*
X433466Y210512D01*
X433584Y209917D01*
X433921Y209413D01*
X434154Y208853D01*
X434582Y208424D01*
X434919Y207919D01*
X435424Y207582D01*
X435853Y207153D01*
X436413Y206921D01*
X436917Y206584D01*
X437512Y206466D01*
X438073Y206234D01*
X438679D01*
X439274Y206116D01*
X439869Y206234D01*
X440475D01*
X441036Y206466D01*
X441631Y206584D01*
X442135Y206921D01*
X442695Y207153D01*
X443124Y207582D01*
X443629Y207919D01*
X443965Y208424D01*
X444394Y208853D01*
X444627Y209413D01*
X444963Y209917D01*
X445082Y210512D01*
X445314Y211073D01*
Y211679D01*
X445432Y212274D01*
Y213622D01*
X445925Y214116D01*
X470765D01*
X473122Y214584D01*
X475120Y215919D01*
X500604Y241404D01*
X501939Y243401D01*
X502408Y245758D01*
Y261699D01*
X521628Y280919D01*
X521965Y281424D01*
X522394Y281852D01*
X522626Y282413D01*
X522963Y282917D01*
X523082Y283512D01*
X523314Y284072D01*
Y284679D01*
X523432Y285274D01*
X523314Y285869D01*
Y286475D01*
X523082Y287036D01*
X522963Y287631D01*
X522626Y288135D01*
X522394Y288695D01*
X521965Y289124D01*
X521628Y289629D01*
X521124Y289965D01*
X520695Y290394D01*
X520135Y290626D01*
X519631Y290963D01*
X519036Y291082D01*
X518475Y291314D01*
X517869D01*
X517274Y291432D01*
D02*
G37*
G36*
X790012Y238730D02*
X785270D01*
Y233988D01*
X787421Y234879D01*
X789120Y236579D01*
X790012Y238730D01*
D02*
G37*
G36*
X782730D02*
X777988D01*
X778879Y236579D01*
X780579Y234879D01*
X782730Y233988D01*
Y238730D01*
D02*
G37*
G36*
X951564Y244504D02*
X942544D01*
Y232234D01*
X951564D01*
Y244504D01*
D02*
G37*
G36*
X940004D02*
X930984D01*
Y232234D01*
X940004D01*
Y244504D01*
D02*
G37*
G36*
X868319Y316114D02*
X847989D01*
Y304534D01*
X847989D01*
Y303414D01*
X847989D01*
Y291834D01*
X847989D01*
Y290714D01*
X847989D01*
Y279134D01*
X847989Y279134D01*
Y278014D01*
X847989D01*
X847989Y277134D01*
Y275698D01*
X837725Y265434D01*
X836390Y263436D01*
X835921Y261079D01*
Y234000D01*
X836039Y233405D01*
Y232799D01*
X836271Y232238D01*
X836390Y231643D01*
X836727Y231139D01*
X836959Y230579D01*
X837388Y230150D01*
X837725Y229645D01*
X838229Y229308D01*
X838658Y228880D01*
X839218Y228647D01*
X839723Y228310D01*
X840318Y228192D01*
X840878Y227960D01*
X841484D01*
X842079Y227842D01*
X842674Y227960D01*
X843281D01*
X843841Y228192D01*
X844436Y228310D01*
X844940Y228647D01*
X845501Y228880D01*
X845929Y229308D01*
X846434Y229645D01*
X846771Y230150D01*
X847200Y230579D01*
X847432Y231139D01*
X847769Y231643D01*
X847887Y232238D01*
X848119Y232799D01*
Y233405D01*
X848238Y234000D01*
Y258528D01*
X856143Y266434D01*
X868319D01*
Y278014D01*
X868319D01*
Y279134D01*
X868319D01*
Y290714D01*
X868319D01*
Y291834D01*
X868319D01*
Y303414D01*
X868319D01*
Y304534D01*
X868319D01*
Y316114D01*
D02*
G37*
G36*
X636544Y222285D02*
Y217544D01*
X641285D01*
X640394Y219695D01*
X638695Y221394D01*
X636544Y222285D01*
D02*
G37*
G36*
X634004D02*
X631852Y221394D01*
X630154Y219695D01*
X629262Y217544D01*
X634004D01*
Y222285D01*
D02*
G37*
G36*
X125274Y244432D02*
X123274D01*
X120917Y243963D01*
X118919Y242628D01*
X98919Y222628D01*
X98582Y222124D01*
X98153Y221695D01*
X97921Y221135D01*
X97584Y220631D01*
X97466Y220036D01*
X97234Y219475D01*
Y218869D01*
X97116Y218274D01*
X97234Y217679D01*
Y217073D01*
X97466Y216512D01*
X97584Y215917D01*
X97921Y215413D01*
X98153Y214853D01*
X98582Y214424D01*
X98919Y213919D01*
X99424Y213582D01*
X99853Y213153D01*
X100413Y212921D01*
X100917Y212584D01*
X101512Y212466D01*
X102072Y212234D01*
X102679D01*
X103274Y212116D01*
X103869Y212234D01*
X104475D01*
X105036Y212466D01*
X105631Y212584D01*
X106135Y212921D01*
X106695Y213153D01*
X107124Y213582D01*
X107628Y213919D01*
X125943Y232234D01*
X126475D01*
X127036Y232466D01*
X127631Y232584D01*
X128135Y232921D01*
X128695Y233153D01*
X129124Y233582D01*
X129628Y233919D01*
X129965Y234424D01*
X130394Y234853D01*
X130626Y235413D01*
X130963Y235917D01*
X131082Y236512D01*
X131314Y237073D01*
Y237679D01*
X131432Y238274D01*
X131314Y238869D01*
Y239475D01*
X131082Y240036D01*
X130963Y240631D01*
X130626Y241135D01*
X130394Y241695D01*
X129965Y242124D01*
X129628Y242628D01*
X129124Y242966D01*
X128695Y243394D01*
X128135Y243626D01*
X127631Y243963D01*
X127036Y244082D01*
X126475Y244314D01*
X125869D01*
X125274Y244432D01*
D02*
G37*
G36*
X641285Y215004D02*
X636544D01*
Y210262D01*
X638695Y211153D01*
X640394Y212852D01*
X641285Y215004D01*
D02*
G37*
G36*
X634004D02*
X629262D01*
X630154Y212852D01*
X631852Y211153D01*
X634004Y210262D01*
Y215004D01*
D02*
G37*
G36*
X395754Y211064D02*
X387984D01*
Y202544D01*
X395754D01*
Y211064D01*
D02*
G37*
G36*
Y200004D02*
X387984D01*
Y191484D01*
X395754D01*
Y200004D01*
D02*
G37*
G36*
X422564Y211064D02*
X398294D01*
Y201274D01*
Y191484D01*
X417460D01*
X420595Y188348D01*
X420234Y187475D01*
Y185072D01*
X421153Y182852D01*
X422853Y181153D01*
X425073Y180234D01*
X427475D01*
X429695Y181153D01*
X431394Y182852D01*
X432314Y185072D01*
Y187475D01*
X431394Y189695D01*
X429695Y191394D01*
X427475Y192314D01*
X426838D01*
X422564Y196588D01*
Y211064D01*
D02*
G37*
G36*
X876540Y179790D02*
X875270D01*
Y155270D01*
X899790D01*
Y156540D01*
X898799Y161523D01*
X896855Y166216D01*
X894032Y170440D01*
X890440Y174032D01*
X886216Y176855D01*
X881523Y178799D01*
X876540Y179790D01*
D02*
G37*
G36*
X872730D02*
X871460D01*
X866477Y178799D01*
X861784Y176855D01*
X857560Y174032D01*
X853968Y170440D01*
X851145Y166216D01*
X849201Y161523D01*
X848210Y156540D01*
Y155270D01*
X872730D01*
Y179790D01*
D02*
G37*
G36*
X554274Y198432D02*
X553679Y198314D01*
X553073D01*
X552512Y198082D01*
X551917Y197963D01*
X551413Y197626D01*
X550853Y197394D01*
X550424Y196966D01*
X549919Y196628D01*
X513919Y160629D01*
X513582Y160124D01*
X513153Y159695D01*
X512921Y159135D01*
X512584Y158631D01*
X512466Y158036D01*
X512234Y157475D01*
Y156869D01*
X512116Y156274D01*
X512234Y155679D01*
Y155072D01*
X512466Y154512D01*
X512584Y153917D01*
X512921Y153413D01*
X513153Y152852D01*
X513582Y152424D01*
X513919Y151919D01*
X514424Y151582D01*
X514852Y151153D01*
X515413Y150921D01*
X515917Y150584D01*
X516512Y150466D01*
X517072Y150234D01*
X517679D01*
X518274Y150115D01*
X518869Y150234D01*
X519475D01*
X520036Y150466D01*
X520631Y150584D01*
X521135Y150921D01*
X521695Y151153D01*
X522124Y151582D01*
X522629Y151919D01*
X558629Y187919D01*
X558965Y188424D01*
X559394Y188853D01*
X559627Y189413D01*
X559963Y189917D01*
X560082Y190512D01*
X560314Y191073D01*
Y191679D01*
X560432Y192274D01*
X560314Y192869D01*
Y193475D01*
X560082Y194036D01*
X559963Y194631D01*
X559627Y195135D01*
X559394Y195695D01*
X558965Y196124D01*
X558629Y196628D01*
X558124Y196966D01*
X557695Y197394D01*
X557135Y197626D01*
X556631Y197963D01*
X556036Y198082D01*
X555475Y198314D01*
X554869D01*
X554274Y198432D01*
D02*
G37*
G36*
X702274Y195432D02*
X701679Y195314D01*
X701072D01*
X700512Y195082D01*
X699917Y194963D01*
X699413Y194627D01*
X698853Y194394D01*
X698424Y193965D01*
X697919Y193629D01*
X672919Y168629D01*
X671584Y166631D01*
X671116Y164274D01*
Y155274D01*
X671234Y154679D01*
Y154073D01*
X671466Y153512D01*
X671584Y152917D01*
X671921Y152413D01*
X672153Y151853D01*
X672582Y151424D01*
X672919Y150919D01*
X673424Y150582D01*
X673853Y150153D01*
X674413Y149921D01*
X674917Y149584D01*
X675512Y149466D01*
X676072Y149234D01*
X676679D01*
X677274Y149116D01*
X677869Y149234D01*
X678475D01*
X679036Y149466D01*
X679631Y149584D01*
X680135Y149921D01*
X680695Y150153D01*
X681124Y150582D01*
X681628Y150919D01*
X681965Y151424D01*
X682394Y151853D01*
X682626Y152413D01*
X682963Y152917D01*
X683082Y153512D01*
X683314Y154073D01*
Y154679D01*
X683432Y155274D01*
Y161723D01*
X706628Y184919D01*
X706965Y185424D01*
X707394Y185853D01*
X707626Y186413D01*
X707963Y186917D01*
X708082Y187512D01*
X708314Y188072D01*
Y188679D01*
X708432Y189274D01*
X708314Y189869D01*
Y190475D01*
X708082Y191036D01*
X707963Y191631D01*
X707626Y192135D01*
X707394Y192695D01*
X706965Y193124D01*
X706628Y193629D01*
X706124Y193965D01*
X705695Y194394D01*
X705135Y194627D01*
X704631Y194963D01*
X704036Y195082D01*
X703475Y195314D01*
X702869D01*
X702274Y195432D01*
D02*
G37*
G36*
X872730Y152730D02*
X848210D01*
Y151460D01*
X849201Y146477D01*
X851145Y141784D01*
X853968Y137560D01*
X854737Y136790D01*
X853783Y134916D01*
X850319Y135465D01*
X845681D01*
X841100Y134740D01*
X836689Y133306D01*
X832557Y131201D01*
X828805Y128475D01*
X825525Y125195D01*
X822799Y121443D01*
X820694Y117311D01*
X819260Y112900D01*
X818535Y108319D01*
Y103681D01*
X819260Y99100D01*
X820694Y94689D01*
X822799Y90557D01*
X825525Y86805D01*
X828805Y83525D01*
X832557Y80799D01*
X836689Y78694D01*
X841100Y77260D01*
X845681Y76535D01*
X850319D01*
X854900Y77260D01*
X855520Y77462D01*
X872960Y60023D01*
Y46710D01*
X900040D01*
Y67290D01*
X880227D01*
X866429Y81089D01*
X866585Y83082D01*
X867195Y83525D01*
X870475Y86805D01*
X873201Y90557D01*
X875306Y94689D01*
X876740Y99100D01*
X877465Y103681D01*
Y108319D01*
X876740Y112900D01*
X875306Y117311D01*
X873201Y121443D01*
X870475Y125195D01*
X869012Y126658D01*
X869997Y128501D01*
X871460Y128210D01*
X872730D01*
Y152730D01*
D02*
G37*
G36*
X899790D02*
X875270D01*
Y128210D01*
X876540D01*
X881523Y129201D01*
X886216Y131145D01*
X890440Y133968D01*
X894032Y137560D01*
X896855Y141784D01*
X898799Y146477D01*
X899790Y151460D01*
Y152730D01*
D02*
G37*
G36*
X785790Y131540D02*
X777270D01*
Y123770D01*
X785790D01*
Y131540D01*
D02*
G37*
G36*
X774730D02*
X766210D01*
Y123770D01*
X774730D01*
Y131540D01*
D02*
G37*
G36*
X752270Y130540D02*
Y122770D01*
X760790D01*
Y130540D01*
X752270D01*
D02*
G37*
G36*
X710790D02*
X702270D01*
Y122770D01*
X710790D01*
Y130540D01*
D02*
G37*
G36*
X723730D02*
X715210D01*
Y122770D01*
X723730D01*
Y130540D01*
D02*
G37*
G36*
X699730D02*
X691210D01*
Y122770D01*
X699730D01*
Y130540D01*
D02*
G37*
G36*
X912540Y131790D02*
X911270D01*
Y107270D01*
X935790D01*
Y108540D01*
X934799Y113523D01*
X932855Y118216D01*
X930032Y122440D01*
X926440Y126032D01*
X922216Y128855D01*
X917523Y130799D01*
X912540Y131790D01*
D02*
G37*
G36*
X908730D02*
X907460D01*
X902477Y130799D01*
X897784Y128855D01*
X893560Y126032D01*
X889968Y122440D01*
X887145Y118216D01*
X885201Y113523D01*
X884210Y108540D01*
Y107270D01*
X908730D01*
Y131790D01*
D02*
G37*
G36*
X935790Y104730D02*
X911270D01*
Y80210D01*
X912540D01*
X917523Y81201D01*
X922216Y83145D01*
X926440Y85968D01*
X930032Y89560D01*
X932855Y93784D01*
X934799Y98477D01*
X935790Y103460D01*
Y104730D01*
D02*
G37*
G36*
X908730D02*
X884210D01*
Y103460D01*
X885201Y98477D01*
X887145Y93784D01*
X889968Y89560D01*
X893560Y85968D01*
X897784Y83145D01*
X902477Y81201D01*
X907460Y80210D01*
X908730D01*
Y104730D01*
D02*
G37*
G36*
X422925Y73814D02*
X419623D01*
X416434Y72959D01*
X413574Y71308D01*
X411239Y68974D01*
X409617Y66163D01*
X409411Y66114D01*
X407737D01*
X407531Y66163D01*
X405908Y68974D01*
X403574Y71308D01*
X400714Y72959D01*
X397525Y73814D01*
X397144D01*
Y61274D01*
Y48734D01*
X397525D01*
X400714Y49588D01*
X403574Y51239D01*
X405908Y53574D01*
X407531Y56385D01*
X407737Y56434D01*
X409411D01*
X409617Y56385D01*
X411239Y53574D01*
X413574Y51239D01*
X416434Y49588D01*
X419623Y48734D01*
X422925D01*
X426114Y49588D01*
X428974Y51239D01*
X431308Y53574D01*
X432959Y56434D01*
X433814Y59623D01*
Y62925D01*
X432959Y66114D01*
X431308Y68974D01*
X428974Y71308D01*
X426114Y72959D01*
X422925Y73814D01*
D02*
G37*
G36*
X501867Y73514D02*
X499881D01*
X497964Y73000D01*
X496244Y72007D01*
X494840Y70603D01*
X493848Y68884D01*
X493334Y66967D01*
Y64981D01*
X493848Y63064D01*
X494840Y61344D01*
X496244Y59940D01*
X497964Y58948D01*
X499881Y58434D01*
X501867D01*
X503784Y58948D01*
X505504Y59940D01*
X506907Y61344D01*
X507900Y63064D01*
X508414Y64981D01*
Y66967D01*
X507900Y68884D01*
X506907Y70603D01*
X505504Y72007D01*
X503784Y73000D01*
X501867Y73514D01*
D02*
G37*
G36*
X941040Y67290D02*
X928770D01*
Y58270D01*
X941040D01*
Y67290D01*
D02*
G37*
G36*
X926230D02*
X913960D01*
Y58270D01*
X926230D01*
Y67290D01*
D02*
G37*
G36*
X941040Y55730D02*
X928770D01*
Y46710D01*
X941040D01*
Y55730D01*
D02*
G37*
G36*
X926230D02*
X913960D01*
Y46710D01*
X926230D01*
Y55730D01*
D02*
G37*
G36*
X811940Y52140D02*
X791660D01*
Y31860D01*
X811940D01*
Y52140D01*
D02*
G37*
G36*
X710790Y120230D02*
X701000D01*
X691210D01*
Y112460D01*
Y95960D01*
X696115D01*
Y93070D01*
X691911D01*
Y89885D01*
X691548D01*
X690062Y89589D01*
X688801Y88747D01*
X688094Y88040D01*
X686799D01*
X684579Y87121D01*
X682879Y85421D01*
X681960Y83201D01*
Y80799D01*
X682879Y78579D01*
X684579Y76880D01*
X686799Y75960D01*
X689201D01*
X689911Y76254D01*
X691911Y74917D01*
Y63408D01*
X696315D01*
Y51457D01*
X696286Y51449D01*
X693974Y50114D01*
X692086Y48226D01*
X690751Y45914D01*
X690060Y43335D01*
Y40665D01*
X690751Y38086D01*
X692086Y35774D01*
X693974Y33886D01*
X696286Y32551D01*
X698865Y31860D01*
X701535D01*
X704114Y32551D01*
X706426Y33886D01*
X708314Y35774D01*
X709649Y38086D01*
X710340Y40665D01*
Y43335D01*
X709649Y45914D01*
X708314Y48226D01*
X706426Y50114D01*
X704114Y51449D01*
X704085Y51457D01*
Y63408D01*
X710089D01*
Y77549D01*
X710089Y77549D01*
Y78930D01*
X710089D01*
X710089Y79549D01*
Y93070D01*
X703885D01*
Y95960D01*
X710790D01*
Y112460D01*
Y120230D01*
D02*
G37*
G36*
X826544Y29286D02*
Y24544D01*
X831285D01*
X830394Y26695D01*
X828695Y28394D01*
X826544Y29286D01*
D02*
G37*
G36*
X824004D02*
X821852Y28394D01*
X820154Y26695D01*
X819262Y24544D01*
X824004D01*
Y29286D01*
D02*
G37*
G36*
X396544D02*
Y24544D01*
X401286D01*
X400394Y26695D01*
X398695Y28394D01*
X396544Y29286D01*
D02*
G37*
G36*
X394004D02*
X391852Y28394D01*
X390153Y26695D01*
X389262Y24544D01*
X394004D01*
Y29286D01*
D02*
G37*
G36*
X620270Y29076D02*
Y24334D01*
X625012D01*
X624120Y26485D01*
X622421Y28184D01*
X620270Y29076D01*
D02*
G37*
G36*
X617730D02*
X615579Y28184D01*
X613880Y26485D01*
X612988Y24334D01*
X617730D01*
Y29076D01*
D02*
G37*
G36*
X729201Y148040D02*
X726799D01*
X724579Y147121D01*
X722879Y145421D01*
X721960Y143201D01*
Y140799D01*
X722879Y138579D01*
X724579Y136880D01*
X726799Y135960D01*
X728546D01*
X731966Y132540D01*
X731138Y130540D01*
X726270D01*
Y121500D01*
X725000D01*
Y120230D01*
X715210D01*
Y112460D01*
Y95960D01*
X721115D01*
Y93070D01*
X715911D01*
Y79549D01*
X715911Y78930D01*
X715911D01*
Y77549D01*
X715911D01*
Y63408D01*
X721715D01*
Y51457D01*
X721686Y51449D01*
X719374Y50114D01*
X717486Y48226D01*
X716151Y45914D01*
X715460Y43335D01*
Y40665D01*
X716151Y38086D01*
X717486Y35774D01*
X719374Y33886D01*
X721686Y32551D01*
X723484Y32069D01*
X724235Y29992D01*
X713881Y19639D01*
X626284D01*
X624947Y21639D01*
X625012Y21794D01*
X612988D01*
X613053Y21639D01*
X611716Y19639D01*
X511903D01*
X461814Y69728D01*
Y71475D01*
X460894Y73695D01*
X459195Y75394D01*
X456975Y76314D01*
X454572D01*
X452352Y75394D01*
X450653Y73695D01*
X449734Y71475D01*
Y69072D01*
X450653Y66852D01*
X452352Y65153D01*
X454572Y64234D01*
X456320D01*
X504148Y16406D01*
X503382Y14559D01*
X497483D01*
X464814Y47228D01*
Y48475D01*
X463894Y50695D01*
X462195Y52394D01*
X459975Y53314D01*
X457573D01*
X455353Y52394D01*
X453653Y50695D01*
X452734Y48475D01*
Y46073D01*
X453653Y43853D01*
X455353Y42153D01*
X457573Y41234D01*
X459820D01*
X493127Y7927D01*
X494387Y7085D01*
X495874Y6789D01*
X735810D01*
X737297Y7085D01*
X738557Y7927D01*
X765157Y34527D01*
X765999Y35787D01*
X768100Y36097D01*
X768286Y35774D01*
X770174Y33886D01*
X772486Y32551D01*
X775065Y31860D01*
X777735D01*
X780314Y32551D01*
X782626Y33886D01*
X784514Y35774D01*
X785849Y38086D01*
X786540Y40665D01*
Y43335D01*
X785849Y45914D01*
X784514Y48226D01*
X782626Y50114D01*
X780314Y51449D01*
X780285Y51457D01*
Y63408D01*
X785089D01*
Y63408D01*
X786960Y63097D01*
Y62799D01*
X787879Y60579D01*
X789579Y58879D01*
X791799Y57960D01*
X794201D01*
X796421Y58879D01*
X798120Y60579D01*
X799040Y62799D01*
Y65201D01*
X798120Y67421D01*
X796593Y68948D01*
Y71310D01*
X796298Y72797D01*
X795456Y74057D01*
X785089Y84423D01*
Y93070D01*
X779885D01*
Y96960D01*
X785790D01*
Y113460D01*
Y121230D01*
X776000D01*
X766210D01*
Y113460D01*
Y96960D01*
X772115D01*
Y93070D01*
X766911D01*
Y80330D01*
X765913Y79776D01*
X764911Y79601D01*
X760089Y84423D01*
Y93070D01*
X754885D01*
Y95960D01*
X760790D01*
Y112460D01*
Y120230D01*
X751000D01*
Y121500D01*
X749730D01*
Y130540D01*
X741210D01*
X741172Y132524D01*
Y132713D01*
X740876Y134199D01*
X740034Y135460D01*
X734040Y141454D01*
Y143201D01*
X733120Y145421D01*
X731421Y147121D01*
X729201Y148040D01*
D02*
G37*
G36*
X831285Y22004D02*
X826544D01*
Y17262D01*
X828695Y18153D01*
X830394Y19852D01*
X831285Y22004D01*
D02*
G37*
G36*
X824004D02*
X819262D01*
X820154Y19852D01*
X821852Y18153D01*
X824004Y17262D01*
Y22004D01*
D02*
G37*
G36*
X401286D02*
X396544D01*
Y17262D01*
X398695Y18153D01*
X400394Y19852D01*
X401286Y22004D01*
D02*
G37*
G36*
X394004D02*
X389262D01*
X390153Y19852D01*
X391852Y18153D01*
X394004Y17262D01*
Y22004D01*
D02*
G37*
%LPD*%
G36*
X742886Y35774D02*
X744774Y33886D01*
X747086Y32551D01*
X748884Y32069D01*
X749635Y29992D01*
X734201Y14559D01*
X722402D01*
X721636Y16406D01*
X739757Y34527D01*
X740599Y35787D01*
X742700Y36097D01*
X742886Y35774D01*
D02*
G37*
%LPC*%
G36*
X238725Y161564D02*
X236322D01*
X234102Y160644D01*
X232867Y159409D01*
X188380D01*
X186894Y159113D01*
X185634Y158271D01*
X185179Y157816D01*
X183222Y157171D01*
X181002Y158090D01*
X178599D01*
X176379Y157171D01*
X174680Y155472D01*
X173760Y153252D01*
Y150849D01*
X174680Y148629D01*
X176379Y146930D01*
X178599Y146010D01*
X181002D01*
X183222Y146930D01*
X184921Y148629D01*
X185082Y149019D01*
X185760D01*
X187247Y149315D01*
X188507Y150157D01*
X189989Y151639D01*
X217046D01*
X217444Y149639D01*
X216853Y149394D01*
X215154Y147695D01*
X214234Y145475D01*
Y143338D01*
X204779Y133883D01*
X196206D01*
X194695Y135394D01*
X192475Y136314D01*
X190072D01*
X187853Y135394D01*
X186154Y133695D01*
X185234Y131475D01*
Y129073D01*
X186154Y126853D01*
X187853Y125153D01*
X190072Y124234D01*
X192475D01*
X194695Y125153D01*
X196206Y126664D01*
X206274D01*
X207655Y126939D01*
X208826Y127722D01*
X219338Y138234D01*
X221475D01*
X223695Y139153D01*
X225394Y140852D01*
X226314Y143073D01*
Y145475D01*
X225394Y147695D01*
X223695Y149394D01*
X223104Y149639D01*
X223502Y151639D01*
X232867D01*
X234102Y150403D01*
X236322Y149484D01*
X238725D01*
X240945Y150403D01*
X242644Y152102D01*
X243564Y154323D01*
Y156725D01*
X242644Y158945D01*
X240945Y160644D01*
X238725Y161564D01*
D02*
G37*
%LPD*%
D14*
X426274Y186274D02*
Y187774D01*
X206274Y130274D02*
X220274Y144274D01*
X413524Y200524D02*
Y201274D01*
X191274Y130274D02*
X206274D01*
X413524Y200524D02*
X426274Y187774D01*
X826774Y402274D02*
X827274Y402774D01*
X826774Y381774D02*
Y402274D01*
X826274Y381274D02*
X826774Y381774D01*
X831231Y380317D02*
X842024Y369524D01*
X827231Y380317D02*
X831231D01*
X826274Y381274D02*
X827231Y380317D01*
D17*
X102774Y415524D02*
X133524Y446274D01*
X91524Y415524D02*
X102774D01*
X107274Y498274D02*
X127274D01*
X144564Y480484D02*
X153024Y472024D01*
X127274Y498274D02*
X135024D01*
X99274Y506274D02*
X107274Y498274D01*
X131253Y493253D02*
X144022Y480484D01*
X147794Y510294D02*
X153024Y515524D01*
Y471274D02*
Y472024D01*
X144022Y480484D02*
X144564D01*
X135024Y498274D02*
X147044Y510294D01*
X127274Y498274D02*
X131774Y493774D01*
X153024Y515524D02*
Y516274D01*
X131774Y493774D02*
X153024D01*
X147044Y510294D02*
X147794D01*
X793269Y360269D02*
Y372324D01*
X786274Y353274D02*
X793269Y360269D01*
X796512Y374374D02*
X798269Y376131D01*
Y378574D01*
X795319Y374374D02*
X796512D01*
X793269Y372324D02*
X795319Y374374D01*
X798517Y381826D02*
X800019Y380324D01*
X798517Y381826D02*
Y401483D01*
X790771Y409229D02*
X798517Y401483D01*
X798269Y378574D02*
X800019Y380324D01*
X804394D01*
X790771Y409229D02*
Y421526D01*
X803107Y311611D02*
X804394Y310324D01*
X771274Y299035D02*
X773293D01*
X785009Y310751D01*
Y316259D01*
X785774Y317024D01*
X777024Y435274D02*
X790771Y421526D01*
X777024Y438524D02*
Y441774D01*
X783274Y448024D01*
X789621D01*
X791921Y450324D01*
X804394D01*
X777024Y435274D02*
Y438524D01*
X785774Y317024D02*
X786262D01*
X791675Y311611D01*
X803107D01*
D26*
X169524Y493774D02*
D03*
Y471274D02*
D03*
Y516274D02*
D03*
X397024Y201274D02*
D03*
X413524D02*
D03*
X153024Y493774D02*
D03*
Y471274D02*
D03*
Y516274D02*
D03*
D27*
X701274Y368774D02*
D03*
X771274Y283513D02*
D03*
X235024Y513002D02*
D03*
X776000Y86000D02*
D03*
Y70478D02*
D03*
X701000Y86000D02*
D03*
Y70478D02*
D03*
X725000D02*
D03*
X751000D02*
D03*
X725000Y86000D02*
D03*
X649000Y107000D02*
D03*
X624000D02*
D03*
X599000Y106522D02*
D03*
X574000D02*
D03*
X701274Y336274D02*
D03*
X771274Y299035D02*
D03*
X235024Y528524D02*
D03*
X751000Y86000D02*
D03*
X574000Y91000D02*
D03*
X701274Y351796D02*
D03*
X599000Y91000D02*
D03*
X624000Y91478D02*
D03*
X649000D02*
D03*
X701274Y384296D02*
D03*
D28*
X776000Y122500D02*
D03*
X725000Y121500D02*
D03*
X751000D02*
D03*
X701000D02*
D03*
X725000Y105000D02*
D03*
X701000D02*
D03*
X776000Y106000D02*
D03*
X751000Y105000D02*
D03*
D31*
X601274Y436274D02*
D03*
X169035Y541274D02*
D03*
X151274Y129524D02*
D03*
X585752Y436274D02*
D03*
X135752Y129524D02*
D03*
X153513Y541274D02*
D03*
D44*
X37500Y492500D02*
D03*
Y512500D02*
D03*
X571274Y346274D02*
D03*
Y366274D02*
D03*
D50*
Y386274D02*
D03*
X37500Y532500D02*
D03*
D56*
X21774Y415524D02*
X91524D01*
X104912Y391274D02*
X106274D01*
X73408Y359770D02*
X104912Y391274D01*
X134913Y421275D02*
X146525D01*
X207274Y482024D01*
Y502793D01*
X233005Y528524D01*
X235024D01*
D57*
X927500Y57000D02*
Y77811D01*
X909000Y96311D02*
Y105000D01*
Y96311D02*
X927500Y77811D01*
X651000Y305000D02*
X652000Y306000D01*
X641000Y297000D02*
X642000Y296000D01*
X641000Y297000D02*
X641000D01*
X825274Y28274D02*
X844274Y47274D01*
X825274Y23274D02*
Y28274D01*
X395274Y337274D02*
X395874Y315274D01*
X94000Y103000D02*
Y104000D01*
X93000Y102000D02*
X94000Y103000D01*
X93000Y101000D02*
Y102000D01*
X77959Y85959D02*
X93000Y101000D01*
X67675Y85959D02*
X77959D01*
X49634Y67918D02*
X67675Y85959D01*
X49634Y54630D02*
X66264Y38000D01*
X90000D01*
X49634Y54630D02*
Y67918D01*
X842079Y261079D02*
X853000Y272000D01*
X842079Y234000D02*
Y261079D01*
X518274Y156274D02*
X554274Y192274D01*
X440285Y408004D02*
X441555Y409274D01*
X496250Y264250D02*
X517274Y285274D01*
X439274Y216173D02*
X443374Y220274D01*
X103274Y218274D02*
X123274Y238274D01*
X421274Y315274D02*
X425274Y319274D01*
X470765Y220274D02*
X496250Y245758D01*
X441555Y409274D02*
X465992D01*
X429375Y358274D02*
X432274D01*
X425274Y354173D02*
X429375Y358274D01*
X677274Y164274D02*
X702274Y189274D01*
X677274Y155274D02*
Y164274D01*
X425274Y319274D02*
Y354173D01*
X465992Y409274D02*
X466262Y409544D01*
X123274Y238274D02*
X125274D01*
X439274Y212274D02*
Y216173D01*
X496250Y245758D02*
Y264250D01*
X443374Y220274D02*
X470765D01*
D58*
X130488Y106490D02*
G03*
X130117Y106013I1808J-1784D01*
G01*
X777019Y87000D02*
X792709Y71310D01*
X777000Y87000D02*
X777019D01*
X792709Y64291D02*
Y71310D01*
Y64291D02*
X793000Y64000D01*
X776000Y87000D02*
Y105000D01*
X480024Y153774D02*
X667524Y341274D01*
X350774Y153774D02*
X480024D01*
X667524Y341274D02*
X671274D01*
X688734D01*
X69521Y61274D02*
X135752Y127505D01*
X748981Y70478D02*
X750818D01*
X737287Y84009D02*
X745721Y75575D01*
Y73739D02*
X748981Y70478D01*
X745721Y73739D02*
Y75575D01*
X728000Y142000D02*
Y143000D01*
Y142000D02*
X737287Y132713D01*
Y84009D02*
Y132713D01*
X687000Y82000D02*
X687548D01*
X691548Y86000D01*
X701000D01*
X725000D02*
X727019D01*
X737010Y76009D01*
Y37274D02*
Y76009D01*
X715490Y15754D02*
X737010Y37274D01*
X751000Y86000D02*
X753019D01*
X762410Y76609D01*
Y37274D02*
Y76609D01*
X735810Y10674D02*
X762410Y37274D01*
X700000Y87000D02*
Y104000D01*
Y87000D02*
X701000Y86000D01*
X724000Y105000D02*
X725000Y104000D01*
Y86000D02*
Y104000D01*
X750000D02*
X751000Y103000D01*
Y86000D02*
Y103000D01*
X775000Y106000D02*
X776000Y105000D01*
Y69000D02*
X776400Y68600D01*
Y42000D02*
Y68600D01*
X751000Y41000D02*
Y70478D01*
X724000Y71000D02*
X725600Y69400D01*
Y42000D02*
Y69400D01*
X700000Y70000D02*
X700200Y69800D01*
Y42000D02*
Y69800D01*
X567670Y81152D02*
X640751D01*
X354674Y96274D02*
X552548D01*
X567670Y81152D01*
X319674Y61274D02*
X354674Y96274D01*
X495874Y10674D02*
X735810D01*
X510294Y15754D02*
X715490D01*
X148014Y124245D02*
X151274Y129524D01*
X130488Y106490D02*
X148014Y124245D01*
X127274Y101274D02*
X130117Y106013D01*
X649024Y107976D02*
X650000Y107000D01*
X649024Y107976D02*
Y124274D01*
X663000Y129000D02*
X664000Y128000D01*
Y104460D02*
Y128000D01*
X651019Y91478D02*
X664000Y104460D01*
X649000Y91478D02*
X651019D01*
X636000Y115052D02*
X636351Y115402D01*
X636000Y101460D02*
Y115052D01*
X626019Y91478D02*
X636000Y101460D01*
X624000Y91478D02*
X626019D01*
X635112Y124274D02*
X649024D01*
X624612Y134774D02*
X635112Y124274D01*
X585000Y99981D02*
Y125000D01*
X576019Y91000D02*
X585000Y99981D01*
X574000Y91000D02*
X576019D01*
X266174Y134774D02*
X624612D01*
X611000Y100981D02*
Y125000D01*
X601019Y91000D02*
X611000Y100981D01*
X599000Y91000D02*
X601019D01*
X572774Y109226D02*
X574000Y108000D01*
X572774Y109226D02*
Y124524D01*
X623774Y107226D02*
X624000Y107000D01*
X623774Y107226D02*
Y125274D01*
X598000Y125000D02*
X598274Y124726D01*
Y107248D02*
Y124726D01*
Y107248D02*
X599000Y106522D01*
X513000Y336000D02*
Y338000D01*
X506884Y329884D02*
X513000Y336000D01*
X489318Y329884D02*
X506884D01*
X306958Y147524D02*
X489318Y329884D01*
X209569Y108569D02*
X248524Y147524D01*
X306958D01*
X209569Y103569D02*
Y108569D01*
X167274Y61274D02*
X209569Y103569D01*
X458774Y47274D02*
X459024Y47524D01*
Y47524D02*
Y47524D01*
Y47524D02*
X495874Y10674D01*
X762067Y377774D02*
X763274D01*
X726524Y336274D02*
X731774Y341524D01*
X731557Y342057D02*
X758282D01*
X701274Y336274D02*
X726524D01*
X731524Y342090D02*
X731557Y342057D01*
X755070Y381728D02*
X758113D01*
X753274Y383524D02*
X755070Y381728D01*
X758113D02*
X762067Y377774D01*
X753274Y383524D02*
Y403274D01*
X72694Y288724D02*
X80975D01*
X370474Y61274D02*
X392474Y39274D01*
X124024Y542524D02*
X152263D01*
X153513Y541274D01*
X340274Y107274D02*
X538024D01*
X392474Y39274D02*
X443274D01*
X192674Y61274D02*
X266174Y134774D01*
X85925Y283774D02*
X313574D01*
X567127Y456918D02*
X585752Y438293D01*
X567127Y456918D02*
Y463419D01*
X585752Y436274D02*
Y438293D01*
X567127Y463419D02*
X571274Y467566D01*
X458347Y257024D02*
X473524D01*
X456347Y255024D02*
X458347Y257024D01*
X446274Y255274D02*
X446524Y255024D01*
X571274Y467566D02*
Y475274D01*
X446524Y255024D02*
X456347D01*
X91074Y365913D02*
X96725Y371564D01*
X91074Y315274D02*
Y365913D01*
X538024Y107274D02*
X538774Y106524D01*
X294274Y61274D02*
X340274Y107274D01*
X235024Y528524D02*
X254524D01*
X65674Y61274D02*
X69521D01*
X135752Y129524D02*
Y131543D01*
Y127505D02*
Y129524D01*
Y131543D02*
X181279Y177069D01*
X455774Y70274D02*
X510294Y15754D01*
X699255Y351796D02*
X701274D01*
X441774Y339024D02*
X494024Y391274D01*
X701274Y351796D02*
X703293D01*
X441774Y289524D02*
Y339024D01*
X711093Y359596D02*
Y376495D01*
X181279Y177069D02*
X329319D01*
X531714Y115964D02*
X531774Y116024D01*
X703293Y351796D02*
X711093Y359596D01*
X329319Y177069D02*
X441774Y289524D01*
X441052Y116714D02*
X441802Y115964D01*
X293524Y264524D02*
X336524D01*
X434996Y116714D02*
X441052D01*
X409774Y231524D02*
X412524Y234274D01*
X434936Y116774D02*
X434996Y116714D01*
X412524Y234274D02*
X471274D01*
X324374Y116774D02*
X434936D01*
X441802Y115964D02*
X531714D01*
X268874Y61274D02*
X324374Y116774D01*
X51524Y309894D02*
X72694Y288724D01*
X243474Y61274D02*
X305672Y123472D01*
X520076D01*
X520274Y123274D01*
X313574Y283774D02*
X345074Y315274D01*
X188380Y155524D02*
X237524D01*
X180654Y152904D02*
X185760D01*
X188380Y155524D01*
X51524Y309894D02*
Y361024D01*
X179800Y152050D02*
X180654Y152904D01*
X688734Y341274D02*
X699255Y351796D01*
X80975Y288724D02*
X85925Y283774D01*
X701274Y384296D02*
X703293D01*
X711093Y376495D01*
X226024Y332724D02*
Y386524D01*
Y332724D02*
X243474Y315274D01*
D59*
X945000Y378000D02*
Y403000D01*
X929899D02*
X945000D01*
X965750D01*
X858154Y424924D02*
Y437624D01*
Y412224D02*
X862529D01*
X858154D02*
Y424924D01*
Y437624D02*
Y450324D01*
X862529Y412224D02*
X871229Y403524D01*
X895774D02*
X895899Y403399D01*
X871229Y403524D02*
X895774D01*
X965750Y403000D02*
X971000Y408250D01*
Y412000D01*
X929500Y403399D02*
X929899Y403000D01*
X895899Y403399D02*
X929500D01*
X778774Y407483D02*
Y408024D01*
X785267Y394579D02*
Y400989D01*
X778774Y407483D02*
X785267Y400989D01*
X940774Y246274D02*
X941274Y245774D01*
X921274Y246274D02*
X940774D01*
X410715Y546715D02*
X431274Y567274D01*
X485274D01*
X512705Y539842D01*
X325274Y389274D02*
X325657Y388891D01*
Y384891D02*
Y388891D01*
Y384891D02*
X327274Y383274D01*
X81314Y272234D02*
Y279461D01*
Y272234D02*
X101274Y252274D01*
X78362Y282414D02*
X81314Y279461D01*
X74418Y383418D02*
X93274Y402274D01*
X61840Y383418D02*
X74418D01*
X20274Y341851D02*
X61840Y383418D01*
X20274Y293833D02*
X31693Y282414D01*
X78362D01*
X20274Y293833D02*
Y341851D01*
X944541Y360000D02*
X946541Y362000D01*
X966000D01*
X970274Y366274D01*
X944000Y360000D02*
X944541D01*
X843000Y113000D02*
X857347Y98653D01*
X858154Y272224D02*
Y284924D01*
Y297624D02*
Y310324D01*
Y284924D02*
Y297624D01*
X883250Y57000D02*
X886500D01*
X857347Y82903D02*
Y98653D01*
Y82903D02*
X883250Y57000D01*
X332274Y508733D02*
Y509274D01*
X247613Y510763D02*
X275304D01*
X286544Y471274D02*
X328274D01*
X323274Y498274D02*
X326809Y501809D01*
X281524Y488695D02*
X284945Y485274D01*
X328274Y471274D02*
X337274Y462274D01*
X238274Y465274D02*
X280544D01*
X286544Y471274D01*
X318774Y485274D02*
X323391Y489891D01*
X287793Y498274D02*
X323274D01*
X326809Y501809D02*
Y503268D01*
X331891Y489891D02*
X332274Y490274D01*
X284945Y485274D02*
X318774D01*
X275304Y510763D02*
X287793Y498274D01*
X247153Y488695D02*
X281524D01*
X326809Y503268D02*
X332274Y508733D01*
X323391Y489891D02*
X331891D01*
X761144Y342057D02*
X762266Y343179D01*
Y344516D01*
X759807Y342057D02*
X761144D01*
X762266Y344516D02*
X763274Y345524D01*
Y377774D01*
X808769Y437624D02*
X813719Y442574D01*
X813883D01*
X816519Y445210D01*
Y459842D01*
X809519Y466842D02*
X816519Y459842D01*
X809519Y466842D02*
Y481474D01*
X808769Y482224D02*
X809519Y481474D01*
X804394Y482224D02*
X808769D01*
X777024Y479524D02*
X779724Y482224D01*
X804394Y284924D02*
Y297624D01*
X779724Y482224D02*
X804394D01*
Y272224D02*
Y284924D01*
X809519Y396842D02*
X816519Y389842D01*
X760274Y321656D02*
X760929Y322311D01*
X767745D01*
X771274Y325840D01*
X808769Y367624D02*
X813719Y372574D01*
X816519Y375210D02*
Y389842D01*
X804394Y367624D02*
X808769D01*
X813883Y372574D02*
X816519Y375210D01*
X813719Y372574D02*
X813883D01*
X788995Y342224D02*
X804394D01*
X772611Y325840D02*
X788995Y342224D01*
X771274Y325840D02*
X772611D01*
X804394Y297624D02*
X808769D01*
X813719Y302574D01*
X813883D01*
X816519Y305210D01*
Y317279D01*
X804394Y329404D02*
X816519Y317279D01*
X804394Y329404D02*
Y342224D01*
Y354924D01*
Y367624D01*
X809519Y396842D02*
Y411474D01*
X808769Y412224D02*
X809519Y411474D01*
X804394Y412224D02*
X808769D01*
X804394D02*
Y424924D01*
Y437624D01*
X808769D01*
X917024Y270774D02*
Y285819D01*
X917979Y286774D01*
X941274D01*
X862529Y342224D02*
X917979Y286774D01*
X858154Y342224D02*
X862529D01*
X858154D02*
Y354924D01*
Y367624D01*
Y380324D01*
D61*
X977000Y434000D02*
D03*
Y347600D02*
D03*
D62*
X923400Y434000D02*
D03*
Y347600D02*
D03*
D63*
X395874Y315274D02*
D03*
Y61274D02*
D03*
X319674D02*
D03*
X167274D02*
D03*
X65674D02*
D03*
X91074D02*
D03*
X116474D02*
D03*
X141874D02*
D03*
X192674D02*
D03*
X218074D02*
D03*
X243474D02*
D03*
X268874D02*
D03*
X294274D02*
D03*
X345074D02*
D03*
X370474D02*
D03*
X421274D02*
D03*
X65674Y315274D02*
D03*
X91074D02*
D03*
X116474D02*
D03*
X167274D02*
D03*
X192674D02*
D03*
X218074D02*
D03*
X243474D02*
D03*
X268874D02*
D03*
X294274D02*
D03*
X319674D02*
D03*
X345074D02*
D03*
X370474D02*
D03*
X141874D02*
D03*
D64*
X874000Y154000D02*
D03*
X910000Y106000D02*
D03*
D65*
X848000D02*
D03*
D66*
X801800Y42000D02*
D03*
D67*
X776400D02*
D03*
X751000D02*
D03*
X725600D02*
D03*
X700200D02*
D03*
D68*
X421274Y315274D02*
D03*
D69*
X50000Y-30000D02*
D03*
X947550D02*
D03*
Y699987D02*
D03*
X50000Y700000D02*
D03*
D70*
X500874Y311074D02*
D03*
Y65974D02*
D03*
X31374D02*
D03*
Y311074D02*
D03*
D71*
X793000Y64000D02*
D03*
X945000Y378000D02*
D03*
Y403000D02*
D03*
X895774Y403524D02*
D03*
X895274Y378274D02*
D03*
X904000Y420000D02*
D03*
X778774Y408024D02*
D03*
X929000Y481000D02*
D03*
X875524Y385774D02*
D03*
X753160Y435302D02*
D03*
X873774Y356024D02*
D03*
X941274Y245774D02*
D03*
X771814Y361024D02*
D03*
X651000Y305000D02*
D03*
X642000Y296000D02*
D03*
X825274Y23274D02*
D03*
X299024Y556274D02*
D03*
X298774Y542524D02*
D03*
X298024Y514274D02*
D03*
X325274Y421274D02*
D03*
X255524Y455774D02*
D03*
X133524Y446274D02*
D03*
X21774Y415524D02*
D03*
X632000Y323000D02*
D03*
X619000Y319000D02*
D03*
X607000Y308000D02*
D03*
X500000Y377000D02*
D03*
X629000Y287000D02*
D03*
X635274Y216274D02*
D03*
X619000Y23064D02*
D03*
X325274Y389274D02*
D03*
X395274Y23274D02*
D03*
X784000Y240000D02*
D03*
X944000Y360000D02*
D03*
X842079Y234000D02*
D03*
X728000Y142000D02*
D03*
X688000Y82000D02*
D03*
X640751Y81152D02*
D03*
X125274Y238274D02*
D03*
X394274Y275274D02*
D03*
X440285Y408004D02*
D03*
X702274Y189274D02*
D03*
X517274Y285274D02*
D03*
X220274Y144274D02*
D03*
X332274Y509274D02*
D03*
X426274Y186274D02*
D03*
X247153Y488695D02*
D03*
X238274Y465274D02*
D03*
X677274Y155274D02*
D03*
X247613Y510763D02*
D03*
X439274Y212274D02*
D03*
X332274Y490274D02*
D03*
X466262Y409544D02*
D03*
X127274Y101274D02*
D03*
X191274Y130274D02*
D03*
X260274Y195274D02*
D03*
X432274Y358274D02*
D03*
X127274Y498274D02*
D03*
X103274Y218274D02*
D03*
X554274Y192274D02*
D03*
X337274Y462274D02*
D03*
X99274Y506274D02*
D03*
X518274Y156274D02*
D03*
X663000Y129000D02*
D03*
X636351Y115402D02*
D03*
X585000Y125000D02*
D03*
X611000D02*
D03*
X572774Y124524D02*
D03*
X598274Y124774D02*
D03*
X513239Y338000D02*
D03*
X753274Y403274D02*
D03*
X763274Y377774D02*
D03*
X731524Y342090D02*
D03*
X254524Y528524D02*
D03*
X494024Y391274D02*
D03*
X531774Y116024D02*
D03*
X293524Y264524D02*
D03*
X336524D02*
D03*
X409774Y231524D02*
D03*
X471274Y234274D02*
D03*
X443274Y39274D02*
D03*
X786274Y353274D02*
D03*
X350774Y153774D02*
D03*
X96725Y371564D02*
D03*
X826274Y381274D02*
D03*
X226024Y386524D02*
D03*
X842024Y369524D02*
D03*
X538774Y106524D02*
D03*
X458774Y47274D02*
D03*
X785774Y317024D02*
D03*
X827274Y402774D02*
D03*
X455774Y70274D02*
D03*
X179800Y152050D02*
D03*
X917024Y270774D02*
D03*
X124024Y542524D02*
D03*
X571274Y475274D02*
D03*
X106274Y391274D02*
D03*
X520274Y123274D02*
D03*
X237524Y155524D02*
D03*
X51524Y361024D02*
D03*
X473524Y257024D02*
D03*
X73408Y359770D02*
D03*
X446274Y255274D02*
D03*
X134913Y421275D02*
D03*
X623774Y125274D02*
D03*
D72*
X792227Y388892D02*
D03*
X786424Y379819D02*
D03*
Y367247D02*
D03*
X785267Y394579D02*
D03*
D73*
X994644Y339091D02*
Y442509D01*
D74*
X858154Y450324D02*
D03*
Y437624D02*
D03*
Y412224D02*
D03*
Y424924D02*
D03*
Y284924D02*
D03*
Y297624D02*
D03*
Y310324D02*
D03*
Y272224D02*
D03*
X804394D02*
D03*
Y284924D02*
D03*
Y297624D02*
D03*
Y342224D02*
D03*
Y354924D02*
D03*
Y367624D02*
D03*
Y412224D02*
D03*
Y424924D02*
D03*
Y437624D02*
D03*
Y450324D02*
D03*
X858154Y342224D02*
D03*
Y354924D02*
D03*
Y367624D02*
D03*
Y380324D02*
D03*
X804394D02*
D03*
Y310324D02*
D03*
D75*
X971000Y411500D02*
D03*
Y370500D02*
D03*
X941274Y245774D02*
D03*
X777024Y479524D02*
D03*
Y438524D02*
D03*
X941274Y286774D02*
D03*
D76*
X671274Y376274D02*
D03*
Y341274D02*
D03*
D77*
X927500Y57000D02*
D03*
X886500D02*
D03*
D78*
X760274Y321656D02*
D03*
Y342524D02*
D03*
D79*
X260274Y195274D02*
X300274Y235274D01*
X354274D02*
X394274Y275274D01*
X300274Y235274D02*
X354274D01*
M02*
