G04*
G04 #@! TF.GenerationSoftware,Altium Limited,Altium Designer,26.3.0 (6)*
G04*
G04 Layer_Color=16711935*
%FSLAX44Y44*%
%MOMM*%
G71*
G04*
G04 #@! TF.SameCoordinates,6CDC7679-250A-49CF-B699-AA4DA3C9BEAB*
G04*
G04*
G04 #@! TF.FilePolarity,Negative*
G04*
G01*
G75*
%ADD25R,1.3098X0.9061*%
%ADD29R,0.9061X1.3098*%
%ADD40R,1.6532X1.5032*%
%ADD42R,1.5032X1.6532*%
%ADD43C,1.3900*%
%ADD44R,1.3900X1.3900*%
%ADD45R,2.2032X2.2032*%
%ADD46C,4.8532*%
%ADD47C,2.2032*%
%ADD48C,2.9032*%
%ADD49C,1.2032*%
%ADD50C,5.5882*%
G04:AMPARAMS|DCode=51|XSize=1.1mm|YSize=2.1mm|CornerRadius=0.55mm|HoleSize=0mm|Usage=FLASHONLY|Rotation=90.000|XOffset=0mm|YOffset=0mm|HoleType=Round|Shape=RoundedRectangle|*
%AMROUNDEDRECTD51*
21,1,1.1000,1.0000,0,0,90.0*
21,1,0.0000,2.1000,0,0,90.0*
1,1,1.1000,0.5000,0.0000*
1,1,1.1000,0.5000,0.0000*
1,1,1.1000,-0.5000,0.0000*
1,1,1.1000,-0.5000,0.0000*
%
%ADD51ROUNDEDRECTD51*%
G04:AMPARAMS|DCode=52|XSize=1.1mm|YSize=2.6mm|CornerRadius=0.55mm|HoleSize=0mm|Usage=FLASHONLY|Rotation=90.000|XOffset=0mm|YOffset=0mm|HoleType=Round|Shape=RoundedRectangle|*
%AMROUNDEDRECTD52*
21,1,1.1000,1.5000,0,0,90.0*
21,1,0.0000,2.6000,0,0,90.0*
1,1,1.1000,0.7500,0.0000*
1,1,1.1000,0.7500,0.0000*
1,1,1.1000,-0.7500,0.0000*
1,1,1.1000,-0.7500,0.0000*
%
%ADD52ROUNDEDRECTD52*%
%ADD53C,0.6532*%
%ADD54C,0.9032*%
%ADD71R,0.8984X0.6310*%
%ADD74R,1.7532X2.4032*%
%ADD75R,2.4032X1.7532*%
%ADD76R,1.9032X1.1532*%
%ADD77R,1.7282X0.8532*%
D25*
X701274Y368774D02*
D03*
X648774Y91274D02*
D03*
X701274Y68252D02*
D03*
X623774Y91013D02*
D03*
X598774D02*
D03*
X573774Y90752D02*
D03*
X722774Y68513D02*
D03*
X766274D02*
D03*
X235024Y513002D02*
D03*
X744774Y68252D02*
D03*
X771274Y283513D02*
D03*
X701274Y336274D02*
D03*
X722774Y116274D02*
D03*
Y100752D02*
D03*
X771274Y299035D02*
D03*
X744774Y83774D02*
D03*
X235024Y528524D02*
D03*
X766274Y116274D02*
D03*
Y100752D02*
D03*
X744774Y116274D02*
D03*
Y100752D02*
D03*
X766274Y84035D02*
D03*
X722774D02*
D03*
X573774Y106274D02*
D03*
X701274Y116274D02*
D03*
Y100752D02*
D03*
Y351796D02*
D03*
X598774Y106535D02*
D03*
X623774D02*
D03*
X701274Y83774D02*
D03*
X648774Y106796D02*
D03*
X701274Y384296D02*
D03*
D29*
X151274Y129524D02*
D03*
X169035Y541274D02*
D03*
X519763Y366274D02*
D03*
X601274Y436274D02*
D03*
X585752D02*
D03*
X135752Y129524D02*
D03*
X535285Y366274D02*
D03*
X153513Y541274D02*
D03*
D40*
X758774Y25524D02*
D03*
X731274D02*
D03*
X703774D02*
D03*
X786274D02*
D03*
Y42024D02*
D03*
X703774D02*
D03*
X731274D02*
D03*
X758774D02*
D03*
D42*
X153024Y516274D02*
D03*
Y471274D02*
D03*
Y493774D02*
D03*
X413524Y201274D02*
D03*
X169524Y516274D02*
D03*
Y471274D02*
D03*
Y493774D02*
D03*
X397024Y201274D02*
D03*
D43*
X37500Y492500D02*
D03*
Y512500D02*
D03*
X571274Y346274D02*
D03*
Y366274D02*
D03*
D44*
X37500Y532500D02*
D03*
X571274Y386274D02*
D03*
D45*
X421274Y315274D02*
D03*
D46*
X874274Y199274D02*
D03*
X910274Y151274D02*
D03*
D47*
X395874Y315274D02*
D03*
Y61274D02*
D03*
X65674D02*
D03*
X91074D02*
D03*
X116474D02*
D03*
X141874D02*
D03*
X167274D02*
D03*
X192674D02*
D03*
X218074D02*
D03*
X243474D02*
D03*
X268874D02*
D03*
X294274D02*
D03*
X319674D02*
D03*
X345074D02*
D03*
X370474D02*
D03*
X421274D02*
D03*
X65674Y315274D02*
D03*
X91074D02*
D03*
X116474D02*
D03*
X167274D02*
D03*
X192674D02*
D03*
X218074D02*
D03*
X243474D02*
D03*
X268874D02*
D03*
X294274D02*
D03*
X319674D02*
D03*
X345074D02*
D03*
X370474D02*
D03*
X141874D02*
D03*
D48*
X50000Y-30000D02*
D03*
X947550D02*
D03*
Y699987D02*
D03*
X50000Y700000D02*
D03*
D49*
X500874Y311074D02*
D03*
Y65974D02*
D03*
X31374D02*
D03*
Y311074D02*
D03*
D50*
X848274Y151274D02*
D03*
D51*
X911674Y347574D02*
D03*
Y433974D02*
D03*
D52*
X965274Y334274D02*
D03*
Y447274D02*
D03*
D53*
X786424Y367247D02*
D03*
Y379819D02*
D03*
X792227Y388892D02*
D03*
X785267Y394579D02*
D03*
D54*
X929000Y481000D02*
D03*
X518274Y156274D02*
D03*
X99274Y506274D02*
D03*
X337274Y462274D02*
D03*
X554274Y192274D02*
D03*
X103274Y218274D02*
D03*
X127274Y498274D02*
D03*
X432274Y358274D02*
D03*
X260274Y195274D02*
D03*
X191274Y130274D02*
D03*
X127274Y101274D02*
D03*
X466262Y409544D02*
D03*
X332274Y490274D02*
D03*
X439274Y212274D02*
D03*
X247613Y510763D02*
D03*
X677274Y155274D02*
D03*
X238274Y465274D02*
D03*
X247153Y488695D02*
D03*
X426274Y186274D02*
D03*
X332274Y509274D02*
D03*
X220274Y144274D02*
D03*
X517274Y285274D02*
D03*
X702274Y189274D02*
D03*
X440285Y408004D02*
D03*
X394274Y275274D02*
D03*
X125274Y238274D02*
D03*
X298024Y514274D02*
D03*
X298774Y542524D02*
D03*
X299024Y556274D02*
D03*
X794274Y96274D02*
D03*
X825274Y23274D02*
D03*
X646274Y296274D02*
D03*
X635274Y216274D02*
D03*
X875524Y385774D02*
D03*
X931524Y422524D02*
D03*
X930774Y357274D02*
D03*
X612274Y316274D02*
D03*
X768274Y73274D02*
D03*
X941274Y245774D02*
D03*
X673274Y95274D02*
D03*
X773274Y239774D02*
D03*
X873774Y356024D02*
D03*
X746274Y73024D02*
D03*
X771814Y361024D02*
D03*
X690274Y65274D02*
D03*
X672274Y71274D02*
D03*
X395274Y23274D02*
D03*
X325274Y421274D02*
D03*
X778774Y408024D02*
D03*
X753160Y435302D02*
D03*
X725150Y73340D02*
D03*
X21774Y415524D02*
D03*
X133524Y446274D02*
D03*
X255524Y455774D02*
D03*
X325274Y389274D02*
D03*
X753274Y403274D02*
D03*
X763274Y377774D02*
D03*
X731524Y342090D02*
D03*
X254524Y528524D02*
D03*
X494024Y391274D02*
D03*
X531774Y116024D02*
D03*
X293524Y264524D02*
D03*
X336524D02*
D03*
X409774Y231524D02*
D03*
X471274Y234274D02*
D03*
X895774Y403524D02*
D03*
X931274Y403274D02*
D03*
X443274Y39274D02*
D03*
X931274Y378274D02*
D03*
X786274Y353274D02*
D03*
X895274Y378274D02*
D03*
X806274Y41524D02*
D03*
X350774Y153774D02*
D03*
X96725Y371564D02*
D03*
X826274Y381274D02*
D03*
X226024Y386524D02*
D03*
X842024Y369524D02*
D03*
X538774Y106524D02*
D03*
X458774Y47274D02*
D03*
X785774Y317024D02*
D03*
X649024Y124274D02*
D03*
X827274Y402774D02*
D03*
X455774Y70274D02*
D03*
X598274Y124774D02*
D03*
X179800Y152050D02*
D03*
X917024Y270774D02*
D03*
X124024Y542524D02*
D03*
X572774Y124524D02*
D03*
X571274Y475274D02*
D03*
X700024Y128024D02*
D03*
X106274Y391274D02*
D03*
X520274Y123274D02*
D03*
X745024Y130274D02*
D03*
X237524Y155524D02*
D03*
X765774Y130274D02*
D03*
X722024D02*
D03*
X51524Y361024D02*
D03*
X473524Y257024D02*
D03*
X73408Y359770D02*
D03*
X446274Y255274D02*
D03*
X134913Y421275D02*
D03*
X623774Y125274D02*
D03*
D71*
X760274Y321656D02*
D03*
Y342524D02*
D03*
D74*
X941274Y245774D02*
D03*
X948774Y365774D02*
D03*
X777024Y479524D02*
D03*
Y438524D02*
D03*
X948774Y406774D02*
D03*
X941274Y286774D02*
D03*
D75*
X901774Y81274D02*
D03*
X860774D02*
D03*
D76*
X671274Y376274D02*
D03*
Y341274D02*
D03*
D77*
X804394Y272224D02*
D03*
Y284924D02*
D03*
Y297624D02*
D03*
Y342224D02*
D03*
Y354924D02*
D03*
Y367624D02*
D03*
Y412224D02*
D03*
Y424924D02*
D03*
Y437624D02*
D03*
Y450324D02*
D03*
X858154Y412224D02*
D03*
Y424924D02*
D03*
Y450324D02*
D03*
Y437624D02*
D03*
Y342224D02*
D03*
Y354924D02*
D03*
Y367624D02*
D03*
Y380324D02*
D03*
X804394D02*
D03*
X858154Y272224D02*
D03*
Y284924D02*
D03*
Y297624D02*
D03*
Y310324D02*
D03*
X804394D02*
D03*
M02*
