G04*
G04 #@! TF.GenerationSoftware,Altium Limited,Altium Designer,26.3.0 (6)*
G04*
G04 Layer_Color=32896*
%FSLAX44Y44*%
%MOMM*%
G71*
G04*
G04 #@! TF.SameCoordinates,4C14F550-D084-4FEC-AB9C-BD04F664B0F9*
G04*
G04*
G04 #@! TF.FilePolarity,Positive*
G04*
G01*
G75*
%ADD10C,0.5080*%
%ADD12C,0.1000*%
%ADD13C,0.1524*%
%ADD14C,0.2000*%
%ADD16C,0.1200*%
%ADD19C,0.2032*%
D10*
X923110Y320041D02*
G03*
X923110Y320041I-3810J0D01*
G01*
D12*
X678524Y349040D02*
Y368508D01*
X664024Y349040D02*
Y368508D01*
D13*
X754051Y327653D02*
Y336527D01*
X766497Y327653D02*
Y336527D01*
D14*
X670274Y331774D02*
G03*
X672274Y331774I1000J0D01*
G01*
D02*
G03*
X670274Y331774I-1000J0D01*
G01*
X765000Y65948D02*
Y90530D01*
X787000Y65948D02*
Y90530D01*
X881480Y43680D02*
X932520D01*
X881480Y70320D02*
X932520D01*
X984320Y365480D02*
Y416520D01*
X957680Y367227D02*
Y377365D01*
Y413635D02*
Y416520D01*
Y388635D02*
Y402365D01*
X712000Y65948D02*
Y90530D01*
X690000Y65948D02*
Y90530D01*
X714000Y65948D02*
Y90530D01*
X736000Y65948D02*
Y90530D01*
X815535Y406774D02*
X821510D01*
X131222Y118524D02*
X155804D01*
X833038Y406774D02*
X847013D01*
X815535Y455774D02*
X847013D01*
X740000Y65948D02*
Y90530D01*
X224024Y508472D02*
Y533054D01*
X246024Y517597D02*
Y533054D01*
X131222Y140524D02*
X155804D01*
X581222Y425274D02*
X605804D01*
X581222Y447274D02*
X605804D01*
X760274Y278983D02*
Y303565D01*
X782274Y278983D02*
Y303565D01*
X563000Y86470D02*
Y111052D01*
X585000Y86470D02*
Y111052D01*
X762000Y65948D02*
Y90530D01*
X815535Y336774D02*
X847013D01*
X815535Y385774D02*
X820891D01*
X831657D02*
X847013D01*
X790344Y433504D02*
Y484544D01*
X660000Y86948D02*
Y111530D01*
X815535Y315774D02*
X847013D01*
X763704Y433504D02*
Y484544D01*
X690274Y364244D02*
Y388826D01*
X712274Y364244D02*
Y388826D01*
X638000Y86948D02*
Y111530D01*
X815535Y266774D02*
X847013D01*
X954594Y240754D02*
Y291794D01*
X588000Y86470D02*
Y111052D01*
X712274Y331744D02*
Y356326D01*
X610000Y86470D02*
Y111052D01*
X927954Y240754D02*
Y291794D01*
X613000Y86948D02*
Y111530D01*
X635000Y86948D02*
Y111530D01*
X690274Y331744D02*
Y356326D01*
X148983Y530274D02*
X173565D01*
X148983Y552274D02*
X173565D01*
D16*
X745274Y56274D02*
X795774D01*
X745274D02*
Y60524D01*
X678274Y49024D02*
Y54024D01*
X723274Y54274D02*
Y60274D01*
X678524Y54024D02*
X723274D01*
D19*
X805468Y472032D02*
Y473725D01*
X803775D01*
Y472032D01*
X805468D01*
Y262032D02*
Y263725D01*
X803775D01*
Y262032D01*
X805468D01*
Y332032D02*
Y333725D01*
X803775D01*
Y332032D01*
X805468D01*
Y402032D02*
Y403725D01*
X803775D01*
Y402032D01*
X805468D01*
X793697Y325496D02*
X795390Y327189D01*
X798775D01*
X800468Y325496D01*
Y318725D01*
X798775Y317032D01*
X795390D01*
X793697Y318725D01*
Y322110D01*
X797082D01*
X664971Y399270D02*
X666664Y400963D01*
X670049D01*
X671742Y399270D01*
Y392499D01*
X670049Y390806D01*
X666664D01*
X664971Y392499D01*
Y395884D01*
X668356D01*
X661585Y390806D02*
Y400963D01*
X654814Y390806D01*
Y400963D01*
X651429D02*
Y390806D01*
X646350D01*
X644657Y392499D01*
Y399270D01*
X646350Y400963D01*
X651429D01*
X774971Y461770D02*
X776664Y463463D01*
X780049D01*
X781742Y461770D01*
Y454999D01*
X780049Y453306D01*
X776664D01*
X774971Y454999D01*
Y458384D01*
X778356D01*
X774971Y389270D02*
X776664Y390963D01*
X780049D01*
X781742Y389270D01*
Y382499D01*
X780049Y380806D01*
X776664D01*
X774971Y382499D01*
Y385884D01*
X778356D01*
X772306Y323306D02*
Y326691D01*
Y324999D01*
X782463D01*
X780770Y323306D01*
X772306Y331770D02*
X779077D01*
X782463Y335155D01*
X779077Y338541D01*
X772306D01*
X777384D01*
Y331770D01*
X732696Y13922D02*
Y24078D01*
X727617D01*
X725925Y22386D01*
Y19000D01*
X727617Y17307D01*
X732696D01*
X729310D02*
X725925Y13922D01*
X722539D02*
X719154D01*
X720846D01*
Y24078D01*
X722539Y22386D01*
X707304Y13922D02*
X714075D01*
X707304Y20693D01*
Y22386D01*
X708997Y24078D01*
X712382D01*
X714075Y22386D01*
X765003Y13922D02*
Y24078D01*
X759925D01*
X758232Y22386D01*
Y19000D01*
X759925Y17307D01*
X765003D01*
X761618D02*
X758232Y13922D01*
X754846D02*
X751461D01*
X753154D01*
Y24078D01*
X754846Y22386D01*
X746382Y13922D02*
X742997D01*
X744690D01*
Y24078D01*
X746382Y22386D01*
X748696Y469738D02*
X758852D01*
Y464659D01*
X757160Y462967D01*
X750388D01*
X748696Y464659D01*
Y469738D01*
Y452810D02*
Y459581D01*
X753774D01*
X752081Y456195D01*
Y454503D01*
X753774Y452810D01*
X757160D01*
X758852Y454503D01*
Y457888D01*
X757160Y459581D01*
X718696Y367810D02*
X728852D01*
Y372888D01*
X727160Y374581D01*
X723774D01*
X722081Y372888D01*
Y367810D01*
Y371195D02*
X718696Y374581D01*
Y383045D02*
X728852D01*
X723774Y377967D01*
Y384738D01*
X709738Y316196D02*
Y326352D01*
X704660D01*
X702967Y324660D01*
Y321274D01*
X704660Y319581D01*
X709738D01*
X706352D02*
X702967Y316196D01*
X699581Y324660D02*
X697888Y326352D01*
X694503D01*
X692810Y324660D01*
Y322967D01*
X694503Y321274D01*
X696196D01*
X694503D01*
X692810Y319581D01*
Y317888D01*
X694503Y316196D01*
X697888D01*
X699581Y317888D01*
X952317Y414955D02*
X942160D01*
Y420033D01*
X943853Y421726D01*
X950624D01*
X952317Y420033D01*
Y414955D01*
X950624Y425112D02*
X952317Y426804D01*
Y430190D01*
X950624Y431883D01*
X948931D01*
X947238Y430190D01*
Y428497D01*
Y430190D01*
X945546Y431883D01*
X943853D01*
X942160Y430190D01*
Y426804D01*
X943853Y425112D01*
X952922Y110464D02*
X963078D01*
Y105386D01*
X961386Y103693D01*
X954614D01*
X952922Y105386D01*
Y110464D01*
X963078Y95229D02*
X952922D01*
X958000Y100307D01*
Y93536D01*
X971352Y255310D02*
X961196D01*
Y260388D01*
X962888Y262081D01*
X969660D01*
X971352Y260388D01*
Y255310D01*
X961196Y272238D02*
Y265467D01*
X967967Y272238D01*
X969660D01*
X971352Y270545D01*
Y267160D01*
X969660Y265467D01*
X646196Y365545D02*
X656352D01*
Y360467D01*
X654660Y358774D01*
X647888D01*
X646196Y360467D01*
Y365545D01*
X656352Y355388D02*
Y352003D01*
Y353695D01*
X646196D01*
X647888Y355388D01*
X406274Y224660D02*
X407967Y226352D01*
X411352D01*
X413045Y224660D01*
Y217888D01*
X411352Y216196D01*
X407967D01*
X406274Y217888D01*
X402888Y216196D02*
X399503D01*
X401195D01*
Y226352D01*
X402888Y224660D01*
X585696Y118922D02*
Y129078D01*
X580617D01*
X578925Y127386D01*
Y124000D01*
X580617Y122307D01*
X585696D01*
X582310D02*
X578925Y118922D01*
X575539D02*
X572154D01*
X573846D01*
Y129078D01*
X575539Y127386D01*
X567075Y120614D02*
X565382Y118922D01*
X561997D01*
X560304Y120614D01*
Y127386D01*
X561997Y129078D01*
X565382D01*
X567075Y127386D01*
Y125693D01*
X565382Y124000D01*
X560304D01*
X612542Y61922D02*
Y72078D01*
X607464D01*
X605771Y70386D01*
Y67000D01*
X607464Y65307D01*
X612542D01*
X609157D02*
X605771Y61922D01*
X595614D02*
X602386D01*
X595614Y68693D01*
Y70386D01*
X597307Y72078D01*
X600693D01*
X602386Y70386D01*
X592229D02*
X590536Y72078D01*
X587150D01*
X585458Y70386D01*
Y63614D01*
X587150Y61922D01*
X590536D01*
X592229Y63614D01*
Y70386D01*
X635849Y118922D02*
Y129078D01*
X630771D01*
X629078Y127386D01*
Y124000D01*
X630771Y122307D01*
X635849D01*
X632464D02*
X629078Y118922D01*
X618922D02*
X625693D01*
X618922Y125693D01*
Y127386D01*
X620614Y129078D01*
X624000D01*
X625693Y127386D01*
X615536Y118922D02*
X612150D01*
X613843D01*
Y129078D01*
X615536Y127386D01*
X662542Y61922D02*
Y72078D01*
X657464D01*
X655771Y70386D01*
Y67000D01*
X657464Y65307D01*
X662542D01*
X659157D02*
X655771Y61922D01*
X645614D02*
X652386D01*
X645614Y68693D01*
Y70386D01*
X647307Y72078D01*
X650693D01*
X652386Y70386D01*
X635458Y61922D02*
X642229D01*
X635458Y68693D01*
Y70386D01*
X637150Y72078D01*
X640536D01*
X642229Y70386D01*
X605769Y455321D02*
Y465477D01*
X600691D01*
X598998Y463785D01*
Y460399D01*
X600691Y458706D01*
X605769D01*
X602383D02*
X598998Y455321D01*
X588841D02*
X595612D01*
X588841Y462092D01*
Y463785D01*
X590534Y465477D01*
X593919D01*
X595612Y463785D01*
X585456D02*
X583763Y465477D01*
X580377D01*
X578684Y463785D01*
Y462092D01*
X580377Y460399D01*
X582070D01*
X580377D01*
X578684Y458706D01*
Y457014D01*
X580377Y455321D01*
X583763D01*
X585456Y457014D01*
X153970Y146195D02*
Y156352D01*
X148891D01*
X147199Y154660D01*
Y151274D01*
X148891Y149581D01*
X153970D01*
X150584D02*
X147199Y146195D01*
X143813D02*
X140428D01*
X142120D01*
Y156352D01*
X143813Y154660D01*
X135349D02*
X133656Y156352D01*
X130271D01*
X128578Y154660D01*
Y152967D01*
X130271Y151274D01*
X128578Y149581D01*
Y147888D01*
X130271Y146195D01*
X133656D01*
X135349Y147888D01*
Y149581D01*
X133656Y151274D01*
X135349Y152967D01*
Y154660D01*
X133656Y151274D02*
X130271D01*
X832967Y392888D02*
Y399660D01*
X834660Y401352D01*
X838045D01*
X839738Y399660D01*
Y392888D01*
X838045Y391195D01*
X834660D01*
X836352Y394581D02*
X832967Y391195D01*
X834660D02*
X832967Y392888D01*
X829581Y399660D02*
X827888Y401352D01*
X824503D01*
X822810Y399660D01*
Y397967D01*
X824503Y396274D01*
X826196D01*
X824503D01*
X822810Y394581D01*
Y392888D01*
X824503Y391195D01*
X827888D01*
X829581Y392888D01*
X832967Y462888D02*
Y469660D01*
X834660Y471352D01*
X838045D01*
X839738Y469660D01*
Y462888D01*
X838045Y461195D01*
X834660D01*
X836352Y464581D02*
X832967Y461195D01*
X834660D02*
X832967Y462888D01*
X822810Y461195D02*
X829581D01*
X822810Y467967D01*
Y469660D01*
X824503Y471352D01*
X827888D01*
X829581Y469660D01*
X242238Y538695D02*
Y548852D01*
X237160D01*
X235467Y547160D01*
Y543774D01*
X237160Y542081D01*
X242238D01*
X238852D02*
X235467Y538695D01*
X225310D02*
X232081D01*
X225310Y545467D01*
Y547160D01*
X227003Y548852D01*
X230388D01*
X232081Y547160D01*
X171045Y557196D02*
Y567352D01*
X165967D01*
X164274Y565659D01*
Y562274D01*
X165967Y560581D01*
X171045D01*
X167659D02*
X164274Y557196D01*
X160888D02*
X157503D01*
X159195D01*
Y567352D01*
X160888Y565659D01*
X753852Y299738D02*
X743696D01*
Y294660D01*
X745388Y292967D01*
X748774D01*
X750467Y294660D01*
Y299738D01*
Y296352D02*
X753852Y292967D01*
X752160Y289581D02*
X753852Y287888D01*
Y284503D01*
X752160Y282810D01*
X745388D01*
X743696Y284503D01*
Y287888D01*
X745388Y289581D01*
X747081D01*
X748774Y287888D01*
Y282810D01*
X192967Y474660D02*
X194660Y476352D01*
X198045D01*
X199738Y474660D01*
Y467888D01*
X198045Y466195D01*
X194660D01*
X192967Y467888D01*
X184503Y466195D02*
Y476352D01*
X189581Y471274D01*
X182810D01*
X195467Y497160D02*
X197160Y498852D01*
X200545D01*
X202238Y497160D01*
Y490388D01*
X200545Y488695D01*
X197160D01*
X195467Y490388D01*
X192081Y497160D02*
X190388Y498852D01*
X187003D01*
X185310Y497160D01*
Y495467D01*
X187003Y493774D01*
X188696D01*
X187003D01*
X185310Y492081D01*
Y490388D01*
X187003Y488695D01*
X190388D01*
X192081Y490388D01*
X190467Y519660D02*
X192160Y521352D01*
X195545D01*
X197238Y519660D01*
Y512888D01*
X195545Y511195D01*
X192160D01*
X190467Y512888D01*
X180310Y511195D02*
X187081D01*
X180310Y517967D01*
Y519660D01*
X182003Y521352D01*
X185388D01*
X187081Y519660D01*
X674922Y65304D02*
X685078D01*
Y70382D01*
X683386Y72075D01*
X680000D01*
X678307Y70382D01*
Y65304D01*
Y68690D02*
X674922Y72075D01*
Y75461D02*
Y78846D01*
Y77154D01*
X685078D01*
X683386Y75461D01*
Y83925D02*
X685078Y85618D01*
Y89003D01*
X683386Y90696D01*
X681693D01*
X680000Y89003D01*
Y87310D01*
Y89003D01*
X678307Y90696D01*
X676614D01*
X674922Y89003D01*
Y85618D01*
X676614Y83925D01*
X707925Y142386D02*
X709617Y144078D01*
X713003D01*
X714696Y142386D01*
Y135614D01*
X713003Y133922D01*
X709617D01*
X707925Y135614D01*
X704539Y133922D02*
X701154D01*
X702846D01*
Y144078D01*
X704539Y142386D01*
X696075D02*
X694382Y144078D01*
X690997D01*
X689304Y142386D01*
Y140693D01*
X690997Y139000D01*
X692690D01*
X690997D01*
X689304Y137307D01*
Y135614D01*
X690997Y133922D01*
X694382D01*
X696075Y135614D01*
X730925Y160386D02*
X732617Y162078D01*
X736003D01*
X737696Y160386D01*
Y153614D01*
X736003Y151922D01*
X732617D01*
X730925Y153614D01*
X727539Y151922D02*
X724154D01*
X725846D01*
Y162078D01*
X727539Y160386D01*
X712304Y151922D02*
X719075D01*
X712304Y158693D01*
Y160386D01*
X713997Y162078D01*
X717382D01*
X719075Y160386D01*
X756232Y144386D02*
X757925Y146078D01*
X761310D01*
X763003Y144386D01*
Y137614D01*
X761310Y135922D01*
X757925D01*
X756232Y137614D01*
X752846Y135922D02*
X749461D01*
X751154D01*
Y146078D01*
X752846Y144386D01*
X744382Y135922D02*
X740997D01*
X742690D01*
Y146078D01*
X744382Y144386D01*
X805925Y118386D02*
X807617Y120078D01*
X811003D01*
X812696Y118386D01*
Y111614D01*
X811003Y109922D01*
X807617D01*
X805925Y111614D01*
X802539Y109922D02*
X799154D01*
X800846D01*
Y120078D01*
X802539Y118386D01*
X794075D02*
X792382Y120078D01*
X788997D01*
X787304Y118386D01*
Y111614D01*
X788997Y109922D01*
X792382D01*
X794075Y111614D01*
Y118386D01*
X793922Y65304D02*
X804078D01*
Y70382D01*
X802386Y72075D01*
X799000D01*
X797307Y70382D01*
Y65304D01*
Y68690D02*
X793922Y72075D01*
Y75461D02*
Y78846D01*
Y77154D01*
X804078D01*
X802386Y75461D01*
Y83925D02*
X804078Y85618D01*
Y89003D01*
X802386Y90696D01*
X795614D01*
X793922Y89003D01*
Y85618D01*
X795614Y83925D01*
X802386D01*
X831274Y322888D02*
Y329660D01*
X832967Y331352D01*
X836352D01*
X838045Y329660D01*
Y322888D01*
X836352Y321195D01*
X832967D01*
X834660Y324581D02*
X831274Y321195D01*
X832967D02*
X831274Y322888D01*
X827888Y321195D02*
X824503D01*
X826196D01*
Y331352D01*
X827888Y329660D01*
X738696Y331274D02*
Y338045D01*
X743774D01*
Y334660D01*
Y338045D01*
X748852D01*
Y327888D02*
Y324503D01*
Y326195D01*
X738696D01*
X740388Y327888D01*
M02*
