G04*
G04 #@! TF.GenerationSoftware,Altium Limited,Altium Designer,26.3.0 (6)*
G04*
G04 Layer_Color=128*
%FSLAX44Y44*%
%MOMM*%
G71*
G04*
G04 #@! TF.SameCoordinates,4C14F550-D084-4FEC-AB9C-BD04F664B0F9*
G04*
G04*
G04 #@! TF.FilePolarity,Positive*
G04*
G01*
G75*
%ADD26R,1.3000X1.4500*%
%ADD27R,1.3098X0.9061*%
%ADD28R,1.4500X1.3000*%
%ADD31R,0.9061X1.3098*%
%ADD74R,1.5250X0.6500*%
%ADD75R,1.5500X2.2000*%
%ADD76R,1.7000X0.9500*%
%ADD77R,2.2000X1.5500*%
%ADD78R,0.8984X0.6310*%
D26*
X169524Y493774D02*
D03*
Y471274D02*
D03*
Y516274D02*
D03*
X397024Y201274D02*
D03*
X413524D02*
D03*
X153024Y493774D02*
D03*
Y471274D02*
D03*
Y516274D02*
D03*
D27*
X701274Y368774D02*
D03*
X771274Y283513D02*
D03*
X235024Y513002D02*
D03*
X776000Y86000D02*
D03*
Y70478D02*
D03*
X701000Y86000D02*
D03*
Y70478D02*
D03*
X725000D02*
D03*
X751000D02*
D03*
X725000Y86000D02*
D03*
X649000Y107000D02*
D03*
X624000D02*
D03*
X599000Y106522D02*
D03*
X574000D02*
D03*
X701274Y336274D02*
D03*
X771274Y299035D02*
D03*
X235024Y528524D02*
D03*
X751000Y86000D02*
D03*
X574000Y91000D02*
D03*
X701274Y351796D02*
D03*
X599000Y91000D02*
D03*
X624000Y91478D02*
D03*
X649000D02*
D03*
X701274Y384296D02*
D03*
D28*
X776000Y122500D02*
D03*
X725000Y121500D02*
D03*
X751000D02*
D03*
X701000D02*
D03*
X725000Y105000D02*
D03*
X701000D02*
D03*
X776000Y106000D02*
D03*
X751000Y105000D02*
D03*
D31*
X601274Y436274D02*
D03*
X169035Y541274D02*
D03*
X151274Y129524D02*
D03*
X585752Y436274D02*
D03*
X135752Y129524D02*
D03*
X153513Y541274D02*
D03*
D74*
X858154Y450324D02*
D03*
Y437624D02*
D03*
Y412224D02*
D03*
Y424924D02*
D03*
Y284924D02*
D03*
Y297624D02*
D03*
Y310324D02*
D03*
Y272224D02*
D03*
X804394D02*
D03*
Y284924D02*
D03*
Y297624D02*
D03*
Y342224D02*
D03*
Y354924D02*
D03*
Y367624D02*
D03*
Y412224D02*
D03*
Y424924D02*
D03*
Y437624D02*
D03*
Y450324D02*
D03*
X858154Y342224D02*
D03*
Y354924D02*
D03*
Y367624D02*
D03*
Y380324D02*
D03*
X804394D02*
D03*
Y310324D02*
D03*
D75*
X971000Y411500D02*
D03*
Y370500D02*
D03*
X941274Y245774D02*
D03*
X777024Y479524D02*
D03*
Y438524D02*
D03*
X941274Y286774D02*
D03*
D76*
X671274Y376274D02*
D03*
Y341274D02*
D03*
D77*
X927500Y57000D02*
D03*
X886500D02*
D03*
D78*
X760274Y321656D02*
D03*
Y342524D02*
D03*
M02*
