M48
;Layer_Color=9474304
;FILE_FORMAT=4:4
METRIC,LZ
;TYPE=PLATED
T01F00S00C0.2000
T02F00S00C0.3000
T04F00S00C0.8900
T05F00S00C1.0200
T06F00S00C2.2000
T07F00S00C3.1000
T08F00S00C3.5900
;TYPE=NON_PLATED
T09F00S00C1.0000
%
T01
X00786424Y00367247
Y00379819
X00792227Y00388892
X00785267Y00394579
T02
X00127274Y00101274
X00191274Y00130274
X00220274Y00144274
X00395274Y00023274
X00443274Y00039274
X00458774Y00047274
X00455774Y00070274
X00520274Y00123274
X00531774Y00116024
X00538774Y00106524
X00572774Y00124524
X00598274Y00124774
X00623774Y00125274
X00649024Y00124274
X00673274Y00095274
X00672274Y00071274
X00690274Y00065274
X00700024Y00128024
X00722024Y00130274
X00745024
X00765774
X00768274Y00073274
X00746274Y00073024
X0072515Y0007334
X00794274Y00096274
X00806274Y00041524
X00825274Y00023274
X00773274Y00239774
X00785774Y00317024
X00786274Y00353274
X00771814Y00361024
X00763274Y00377774
X00753274Y00403274
X00778774Y00408024
X0075316Y00435302
X00827274Y00402774
X00826274Y00381274
X00842024Y00369524
X00873774Y00356024
X00875524Y00385774
X00895274Y00378274
X00895774Y00403524
X00931274Y00403274
X00931524Y00422524
X00931274Y00378274
X00930774Y00357274
X00917024Y00270774
X00941274Y00245774
X00929Y00481
X00731524Y0034209
X00646274Y00296274
X00612274Y00316274
X00635274Y00216274
X00702274Y00189274
X00677274Y00155274
X00518274Y00156274
X00554274Y00192274
X00471274Y00234274
X00473524Y00257024
X00446274Y00255274
X00439274Y00212274
X00426274Y00186274
X00409774Y00231524
X00394274Y00275274
X00336524Y00264524
X00350774Y00153774
X00325274Y00389274
Y00421274
X00337274Y00462274
X00332274Y00490274
Y00509274
X00440285Y00408004
X00466262Y00409544
X00494024Y00391274
X00432274Y00358274
X00517274Y00285274
X00571274Y00475274
X00298024Y00514274
X00298774Y00542524
X00254524Y00528524
X00247613Y00510763
X00247153Y00488695
X00238274Y00465274
X00255524Y00455774
X00226024Y00386524
X00106274Y00391274
X00096725Y00371564
X00073408Y0035977
X00051524Y00361024
X00021774Y00415524
X00134913Y00421275
X00133524Y00446274
X00127274Y00498274
X00099274Y00506274
X00124024Y00542524
X00125274Y00238274
X00103274Y00218274
X001798Y0015205
X00237524Y00155524
X00260274Y00195274
X00293524Y00264524
X00299024Y00556274
T04
X00571274Y00346274
Y00366274
Y00386274
X000375Y004925
Y005125
Y005325
T05
X00065674Y00061274
X00091074
X00116474
X00141874
X00167274
X00192674
X00218074
X00243474
X00268874
X00294274
X00319674
X00345074
X00370474
X00395874
X00421274
Y00315274
X00395874
X00370474
X00345074
X00319674
X00294274
X00268874
X00243474
X00218074
X00192674
X00167274
X00141874
X00116474
X00091074
X00065674
T06
X0005Y-0003
X0094755
X0005Y007
X0094755Y00699987
T07
X00910274Y00151274
X00874274Y00199274
T08
X00848274Y00151274
T09
X00031374Y00065974
X00500874
Y00311074
X00031374
M30
