G04*
G04 #@! TF.GenerationSoftware,Altium Limited,Altium Designer,26.3.0 (6)*
G04*
G04 Layer_Color=32896*
%FSLAX44Y44*%
%MOMM*%
G71*
G04*
G04 #@! TF.SameCoordinates,6CDC7679-250A-49CF-B699-AA4DA3C9BEAB*
G04*
G04*
G04 #@! TF.FilePolarity,Positive*
G04*
G01*
G75*
%ADD11C,0.1524*%
%ADD12C,0.2000*%
%ADD13C,0.1000*%
%ADD15C,0.1200*%
%ADD18C,0.2032*%
D11*
X754051Y327653D02*
Y336527D01*
X766497Y327653D02*
Y336527D01*
D12*
X670274Y331774D02*
G03*
X672274Y331774I1000J0D01*
G01*
D02*
G03*
X670274Y331774I-1000J0D01*
G01*
X815535Y406774D02*
X821510D01*
X131222Y118524D02*
X155804D01*
X755774Y63722D02*
Y88304D01*
X833038Y406774D02*
X847013D01*
X815535Y455774D02*
X847013D01*
X733774Y63722D02*
Y88304D01*
X755274Y96222D02*
Y120804D01*
X755774Y96222D02*
Y120804D01*
X224024Y508472D02*
Y533054D01*
X246024Y517597D02*
Y533054D01*
X131222Y140524D02*
X155804D01*
X711774Y96222D02*
Y120804D01*
X777274Y96222D02*
Y120804D01*
X581222Y425274D02*
X605804D01*
X581222Y447274D02*
X605804D01*
X760274Y278983D02*
Y303565D01*
X782274Y278983D02*
Y303565D01*
X733774Y96222D02*
Y120804D01*
X584774Y86222D02*
Y110804D01*
X733774Y63983D02*
Y88565D01*
X562774Y86222D02*
Y110804D01*
X515233Y355274D02*
X539815D01*
X711774Y63983D02*
Y88565D01*
X515233Y377274D02*
X539815D01*
X712274Y96222D02*
Y120804D01*
X855754Y94594D02*
X906794D01*
X962094Y360754D02*
Y411794D01*
X935454Y408909D02*
Y411794D01*
Y383909D02*
Y397639D01*
X755274Y63983D02*
Y88565D01*
X935454Y362501D02*
Y372639D01*
X855754Y67954D02*
X906794D01*
X733774Y96222D02*
Y120804D01*
X815535Y336774D02*
X847013D01*
X777274Y63983D02*
Y88565D01*
X815535Y385774D02*
X820891D01*
X831657D02*
X847013D01*
X790344Y433504D02*
Y484544D01*
X637774Y86744D02*
Y111326D01*
X815535Y315774D02*
X847013D01*
X763704Y433504D02*
Y484544D01*
X690274Y364244D02*
Y388826D01*
X712274Y364244D02*
Y388826D01*
X659774Y86744D02*
Y111326D01*
X815535Y266774D02*
X847013D01*
X954594Y240754D02*
Y291794D01*
X609774Y86483D02*
Y111065D01*
X712274Y331744D02*
Y356326D01*
X587774Y86483D02*
Y111065D01*
X690274Y96222D02*
Y120804D01*
X927954Y240754D02*
Y291794D01*
X634774Y86483D02*
Y111065D01*
X690274Y72290D02*
Y88304D01*
X712274Y63722D02*
Y88304D01*
X612774Y86483D02*
Y111065D01*
X690274Y331744D02*
Y356326D01*
X148983Y530274D02*
X173565D01*
X148983Y552274D02*
X173565D01*
D13*
X678524Y349040D02*
Y368508D01*
X664024Y349040D02*
Y368508D01*
D15*
X745274Y56274D02*
X795774D01*
X745274D02*
Y60524D01*
X678274Y49024D02*
Y54024D01*
X723274Y54274D02*
Y60274D01*
X721274Y138774D02*
Y151274D01*
X678524Y54024D02*
X723274D01*
D18*
X805468Y472032D02*
Y473725D01*
X803775D01*
Y472032D01*
X805468D01*
Y262032D02*
Y263725D01*
X803775D01*
Y262032D01*
X805468D01*
Y332032D02*
Y333725D01*
X803775D01*
Y332032D01*
X805468D01*
Y402032D02*
Y403725D01*
X803775D01*
Y402032D01*
X805468D01*
X793697Y325496D02*
X795390Y327189D01*
X798775D01*
X800468Y325496D01*
Y318725D01*
X798775Y317032D01*
X795390D01*
X793697Y318725D01*
Y322110D01*
X797082D01*
X664971Y399270D02*
X666664Y400963D01*
X670049D01*
X671742Y399270D01*
Y392499D01*
X670049Y390806D01*
X666664D01*
X664971Y392499D01*
Y395884D01*
X668356D01*
X661585Y390806D02*
Y400963D01*
X654814Y390806D01*
Y400963D01*
X651429D02*
Y390806D01*
X646350D01*
X644657Y392499D01*
Y399270D01*
X646350Y400963D01*
X651429D01*
X774971Y461770D02*
X776664Y463463D01*
X780049D01*
X781742Y461770D01*
Y454999D01*
X780049Y453306D01*
X776664D01*
X774971Y454999D01*
Y458384D01*
X778356D01*
X774971Y389270D02*
X776664Y390963D01*
X780049D01*
X781742Y389270D01*
Y382499D01*
X780049Y380806D01*
X776664D01*
X774971Y382499D01*
Y385884D01*
X778356D01*
X772306Y323306D02*
Y326691D01*
Y324999D01*
X782463D01*
X780770Y323306D01*
X772306Y331770D02*
X779077D01*
X782463Y335155D01*
X779077Y338541D01*
X772306D01*
X777384D01*
Y331770D01*
X752238Y138695D02*
Y148852D01*
X747160D01*
X745467Y147160D01*
Y143774D01*
X747160Y142081D01*
X752238D01*
X748852D02*
X745467Y138695D01*
X742081Y148852D02*
X735310D01*
Y147160D01*
X742081Y140388D01*
Y138695D01*
X748696Y469738D02*
X758852D01*
Y464659D01*
X757160Y462967D01*
X750388D01*
X748696Y464659D01*
Y469738D01*
X750388Y459581D02*
X748696Y457888D01*
Y454503D01*
X750388Y452810D01*
X752081D01*
X753774Y454503D01*
X755467Y452810D01*
X757160D01*
X758852Y454503D01*
Y457888D01*
X757160Y459581D01*
X755467D01*
X753774Y457888D01*
X752081Y459581D01*
X750388D01*
X753774Y457888D02*
Y454503D01*
X539784Y385322D02*
Y395479D01*
X534706D01*
X533013Y393786D01*
Y390400D01*
X534706Y388708D01*
X539784D01*
X536398D02*
X533013Y385322D01*
X522856D02*
X529627D01*
X522856Y392093D01*
Y393786D01*
X524549Y395479D01*
X527934D01*
X529627Y393786D01*
X512699Y395479D02*
X516085Y393786D01*
X519470Y390400D01*
Y387015D01*
X517778Y385322D01*
X514392D01*
X512699Y387015D01*
Y388708D01*
X514392Y390400D01*
X519470D01*
X718696Y362732D02*
X728852D01*
Y367810D01*
X727160Y369503D01*
X723774D01*
X722081Y367810D01*
Y362732D01*
Y366117D02*
X718696Y369503D01*
Y379660D02*
Y372888D01*
X725467Y379660D01*
X727160D01*
X728852Y377967D01*
Y374581D01*
X727160Y372888D01*
X728852Y389816D02*
Y383045D01*
X723774D01*
X725467Y386431D01*
Y388123D01*
X723774Y389816D01*
X720388D01*
X718696Y388123D01*
Y384738D01*
X720388Y383045D01*
X714816Y316196D02*
Y326352D01*
X709738D01*
X708045Y324660D01*
Y321274D01*
X709738Y319581D01*
X714816D01*
X711431D02*
X708045Y316196D01*
X697888D02*
X704660D01*
X697888Y322967D01*
Y324660D01*
X699581Y326352D01*
X702967D01*
X704660Y324660D01*
X689424Y316196D02*
Y326352D01*
X694503Y321274D01*
X687732D01*
X978852Y377810D02*
X968696D01*
Y382888D01*
X970388Y384581D01*
X977160D01*
X978852Y382888D01*
Y377810D01*
Y387967D02*
Y394738D01*
X977160D01*
X970388Y387967D01*
X968696D01*
X889738Y111352D02*
Y101195D01*
X884660D01*
X882967Y102888D01*
Y109660D01*
X884660Y111352D01*
X889738D01*
X872810D02*
X876196Y109660D01*
X879581Y106274D01*
Y102888D01*
X877888Y101195D01*
X874503D01*
X872810Y102888D01*
Y104581D01*
X874503Y106274D01*
X879581D01*
X971352Y255310D02*
X961196D01*
Y260388D01*
X962888Y262081D01*
X969660D01*
X971352Y260388D01*
Y255310D01*
Y272238D02*
Y265467D01*
X966274D01*
X967967Y268852D01*
Y270545D01*
X966274Y272238D01*
X962888D01*
X961196Y270545D01*
Y267160D01*
X962888Y265467D01*
X646196Y367238D02*
X656352D01*
Y362159D01*
X654660Y360467D01*
X647888D01*
X646196Y362159D01*
Y367238D01*
X647888Y357081D02*
X646196Y355388D01*
Y352003D01*
X647888Y350310D01*
X649581D01*
X651274Y352003D01*
Y353695D01*
Y352003D01*
X652967Y350310D01*
X654660D01*
X656352Y352003D01*
Y355388D01*
X654660Y357081D01*
X412199Y224660D02*
X413891Y226352D01*
X417277D01*
X418970Y224660D01*
Y217888D01*
X417277Y216196D01*
X413891D01*
X412199Y217888D01*
X408813Y216196D02*
X405428D01*
X407120D01*
Y226352D01*
X408813Y224660D01*
X393578Y226352D02*
X400349D01*
Y221274D01*
X396964Y222967D01*
X395271D01*
X393578Y221274D01*
Y217888D01*
X395271Y216196D01*
X398656D01*
X400349Y217888D01*
X586470Y68696D02*
Y78852D01*
X581391D01*
X579699Y77160D01*
Y73774D01*
X581391Y72081D01*
X586470D01*
X583084D02*
X579699Y68696D01*
X576313D02*
X572928D01*
X574620D01*
Y78852D01*
X576313Y77160D01*
X567849Y70388D02*
X566156Y68696D01*
X562771D01*
X561078Y70388D01*
Y77160D01*
X562771Y78852D01*
X566156D01*
X567849Y77160D01*
Y75467D01*
X566156Y73774D01*
X561078D01*
X612316Y133695D02*
Y143852D01*
X607238D01*
X605545Y142160D01*
Y138774D01*
X607238Y137081D01*
X612316D01*
X608931D02*
X605545Y133695D01*
X595388D02*
X602160D01*
X595388Y140467D01*
Y142160D01*
X597081Y143852D01*
X600467D01*
X602160Y142160D01*
X592003D02*
X590310Y143852D01*
X586924D01*
X585232Y142160D01*
Y135388D01*
X586924Y133695D01*
X590310D01*
X592003Y135388D01*
Y142160D01*
X635623Y68696D02*
Y78852D01*
X630545D01*
X628852Y77160D01*
Y73774D01*
X630545Y72081D01*
X635623D01*
X632238D02*
X628852Y68696D01*
X618696D02*
X625467D01*
X618696Y75467D01*
Y77160D01*
X620388Y78852D01*
X623774D01*
X625467Y77160D01*
X615310Y68696D02*
X611924D01*
X613617D01*
Y78852D01*
X615310Y77160D01*
X664816Y133695D02*
Y143852D01*
X659738D01*
X658045Y142160D01*
Y138774D01*
X659738Y137081D01*
X664816D01*
X661431D02*
X658045Y133695D01*
X647888D02*
X654660D01*
X647888Y140467D01*
Y142160D01*
X649581Y143852D01*
X652967D01*
X654660Y142160D01*
X637732Y133695D02*
X644503D01*
X637732Y140467D01*
Y142160D01*
X639424Y143852D01*
X642810D01*
X644503Y142160D01*
X605824Y455426D02*
Y465583D01*
X600746D01*
X599053Y463890D01*
Y460504D01*
X600746Y458811D01*
X605824D01*
X602438D02*
X599053Y455426D01*
X595667D02*
X592282D01*
X593974D01*
Y465583D01*
X595667Y463890D01*
X587203D02*
X585510Y465583D01*
X582125D01*
X580432Y463890D01*
Y462197D01*
X582125Y460504D01*
X580432Y458811D01*
Y457119D01*
X582125Y455426D01*
X585510D01*
X587203Y457119D01*
Y458811D01*
X585510Y460504D01*
X587203Y462197D01*
Y463890D01*
X585510Y460504D02*
X582125D01*
X153970Y146195D02*
Y156352D01*
X148891D01*
X147199Y154660D01*
Y151274D01*
X148891Y149581D01*
X153970D01*
X150584D02*
X147199Y146195D01*
X143813D02*
X140428D01*
X142120D01*
Y156352D01*
X143813Y154660D01*
X135349Y156352D02*
X128578D01*
Y154660D01*
X135349Y147888D01*
Y146195D01*
X842277Y393735D02*
Y400506D01*
X843970Y402199D01*
X847355D01*
X849048Y400506D01*
Y393735D01*
X847355Y392042D01*
X843970D01*
X845663Y395428D02*
X842277Y392042D01*
X843970D02*
X842277Y393735D01*
X838892Y392042D02*
X835506D01*
X837199D01*
Y402199D01*
X838892Y400506D01*
X830427Y390349D02*
X823656D01*
X813500Y400506D02*
X815192Y402199D01*
X818578D01*
X820271Y400506D01*
Y393735D01*
X818578Y392042D01*
X815192D01*
X813500Y393735D01*
X842277Y463735D02*
Y470506D01*
X843970Y472199D01*
X847355D01*
X849048Y470506D01*
Y463735D01*
X847355Y462042D01*
X843970D01*
X845663Y465428D02*
X842277Y462042D01*
X843970D02*
X842277Y463735D01*
X838892Y462042D02*
X835506D01*
X837199D01*
Y472199D01*
X838892Y470506D01*
X830427Y460349D02*
X823656D01*
X820271Y472199D02*
Y462042D01*
X815192D01*
X813500Y463735D01*
Y465428D01*
X815192Y467120D01*
X820271D01*
X815192D01*
X813500Y468813D01*
Y470506D01*
X815192Y472199D01*
X820271D01*
X246470Y538695D02*
Y548852D01*
X241392D01*
X239699Y547160D01*
Y543774D01*
X241392Y542081D01*
X246470D01*
X243084D02*
X239699Y538695D01*
X236313D02*
X232927D01*
X234620D01*
Y548852D01*
X236313Y547160D01*
X221078Y548852D02*
X224464Y547160D01*
X227849Y543774D01*
Y540388D01*
X226156Y538695D01*
X222771D01*
X221078Y540388D01*
Y542081D01*
X222771Y543774D01*
X227849D01*
X176970Y557196D02*
Y567352D01*
X171891D01*
X170199Y565659D01*
Y562274D01*
X171891Y560581D01*
X176970D01*
X173584D02*
X170199Y557196D01*
X166813D02*
X163428D01*
X165120D01*
Y567352D01*
X166813Y565659D01*
X151578Y567352D02*
X158349D01*
Y562274D01*
X154964Y563967D01*
X153271D01*
X151578Y562274D01*
Y558888D01*
X153271Y557196D01*
X156656D01*
X158349Y558888D01*
X753852Y303970D02*
X743696D01*
Y298891D01*
X745388Y297199D01*
X748774D01*
X750467Y298891D01*
Y303970D01*
Y300584D02*
X753852Y297199D01*
Y293813D02*
Y290427D01*
Y292120D01*
X743696D01*
X745388Y293813D01*
Y285349D02*
X743696Y283656D01*
Y280271D01*
X745388Y278578D01*
X747081D01*
X748774Y280271D01*
Y281964D01*
Y280271D01*
X750467Y278578D01*
X752160D01*
X753852Y280271D01*
Y283656D01*
X752160Y285349D01*
X195506Y474660D02*
X197199Y476352D01*
X200584D01*
X202277Y474660D01*
Y467888D01*
X200584Y466195D01*
X197199D01*
X195506Y467888D01*
X192120Y466195D02*
X188735D01*
X190427D01*
Y476352D01*
X192120Y474660D01*
X183656Y466195D02*
X180271D01*
X181964D01*
Y476352D01*
X183656Y474660D01*
X199699Y497160D02*
X201392Y498852D01*
X204777D01*
X206470Y497160D01*
Y490388D01*
X204777Y488695D01*
X201392D01*
X199699Y490388D01*
X196313Y488695D02*
X192927D01*
X194620D01*
Y498852D01*
X196313Y497160D01*
X187849D02*
X186156Y498852D01*
X182771D01*
X181078Y497160D01*
Y490388D01*
X182771Y488695D01*
X186156D01*
X187849Y490388D01*
Y497160D01*
X190467Y519660D02*
X192160Y521352D01*
X195545D01*
X197238Y519660D01*
Y512888D01*
X195545Y511195D01*
X192160D01*
X190467Y512888D01*
X187081D02*
X185388Y511195D01*
X182003D01*
X180310Y512888D01*
Y519660D01*
X182003Y521352D01*
X185388D01*
X187081Y519660D01*
Y517967D01*
X185388Y516274D01*
X180310D01*
X673196Y63578D02*
X683352D01*
Y68656D01*
X681659Y70349D01*
X678274D01*
X676581Y68656D01*
Y63578D01*
Y66964D02*
X673196Y70349D01*
Y73735D02*
Y77120D01*
Y75427D01*
X683352D01*
X681659Y73735D01*
X673196Y88970D02*
Y82199D01*
X679967Y88970D01*
X681659D01*
X683352Y87277D01*
Y83891D01*
X681659Y82199D01*
X709777Y138695D02*
Y148852D01*
X704699D01*
X703006Y147160D01*
Y143774D01*
X704699Y142081D01*
X709777D01*
X706391D02*
X703006Y138695D01*
X699620D02*
X696235D01*
X697927D01*
Y148852D01*
X699620Y147160D01*
X691156Y138695D02*
X687771D01*
X689464D01*
Y148852D01*
X691156Y147160D01*
X685470Y33946D02*
Y44102D01*
X680391D01*
X678699Y42410D01*
Y39024D01*
X680391Y37331D01*
X685470D01*
X682084D02*
X678699Y33946D01*
X675313D02*
X671927D01*
X673620D01*
Y44102D01*
X675313Y42410D01*
X666849D02*
X665156Y44102D01*
X661771D01*
X660078Y42410D01*
Y35638D01*
X661771Y33946D01*
X665156D01*
X666849Y35638D01*
Y42410D01*
X729738Y156195D02*
Y166352D01*
X724660D01*
X722967Y164660D01*
Y161274D01*
X724660Y159581D01*
X729738D01*
X726352D02*
X722967Y156195D01*
X719581Y157888D02*
X717888Y156195D01*
X714503D01*
X712810Y157888D01*
Y164660D01*
X714503Y166352D01*
X717888D01*
X719581Y164660D01*
Y162967D01*
X717888Y161274D01*
X712810D01*
X817238Y51946D02*
Y62102D01*
X812160D01*
X810467Y60409D01*
Y57024D01*
X812160Y55331D01*
X817238D01*
X813852D02*
X810467Y51946D01*
X807081Y60409D02*
X805388Y62102D01*
X802003D01*
X800310Y60409D01*
Y58717D01*
X802003Y57024D01*
X800310Y55331D01*
Y53638D01*
X802003Y51946D01*
X805388D01*
X807081Y53638D01*
Y55331D01*
X805388Y57024D01*
X807081Y58717D01*
Y60409D01*
X805388Y57024D02*
X802003D01*
X799738Y76196D02*
Y86352D01*
X794660D01*
X792967Y84660D01*
Y81274D01*
X794660Y79581D01*
X799738D01*
X796352D02*
X792967Y76196D01*
X782810Y86352D02*
X786196Y84660D01*
X789581Y81274D01*
Y77888D01*
X787888Y76196D01*
X784503D01*
X782810Y77888D01*
Y79581D01*
X784503Y81274D01*
X789581D01*
X705967Y13659D02*
X707660Y15352D01*
X711045D01*
X712738Y13659D01*
Y6888D01*
X711045Y5196D01*
X707660D01*
X705967Y6888D01*
X702581Y13659D02*
X700888Y15352D01*
X697503D01*
X695810Y13659D01*
Y11967D01*
X697503Y10274D01*
X695810Y8581D01*
Y6888D01*
X697503Y5196D01*
X700888D01*
X702581Y6888D01*
Y8581D01*
X700888Y10274D01*
X702581Y11967D01*
Y13659D01*
X700888Y10274D02*
X697503D01*
X732967Y13659D02*
X734660Y15352D01*
X738045D01*
X739738Y13659D01*
Y6888D01*
X738045Y5196D01*
X734660D01*
X732967Y6888D01*
X729581Y15352D02*
X722810D01*
Y13659D01*
X729581Y6888D01*
Y5196D01*
X759967Y13659D02*
X761659Y15352D01*
X765045D01*
X766738Y13659D01*
Y6888D01*
X765045Y5196D01*
X761659D01*
X759967Y6888D01*
X749810Y15352D02*
X753195Y13659D01*
X756581Y10274D01*
Y6888D01*
X754888Y5196D01*
X751503D01*
X749810Y6888D01*
Y8581D01*
X751503Y10274D01*
X756581D01*
X788967Y13659D02*
X790659Y15352D01*
X794045D01*
X795738Y13659D01*
Y6888D01*
X794045Y5196D01*
X790659D01*
X788967Y6888D01*
X778810Y15352D02*
X785581D01*
Y10274D01*
X782196Y11967D01*
X780503D01*
X778810Y10274D01*
Y6888D01*
X780503Y5196D01*
X783888D01*
X785581Y6888D01*
X792238Y126195D02*
Y136352D01*
X787160D01*
X785467Y134660D01*
Y131274D01*
X787160Y129581D01*
X792238D01*
X788852D02*
X785467Y126195D01*
X775310Y136352D02*
X782081D01*
Y131274D01*
X778696Y132967D01*
X777003D01*
X775310Y131274D01*
Y127888D01*
X777003Y126195D01*
X780388D01*
X782081Y127888D01*
X842277Y323735D02*
Y330506D01*
X843970Y332199D01*
X847355D01*
X849048Y330506D01*
Y323735D01*
X847355Y322042D01*
X843970D01*
X845663Y325428D02*
X842277Y322042D01*
X843970D02*
X842277Y323735D01*
X838892Y322042D02*
X835506D01*
X837199D01*
Y332199D01*
X838892Y330506D01*
X830427Y320349D02*
X823656D01*
X820271Y322042D02*
Y328813D01*
X816885Y332199D01*
X813500Y328813D01*
Y322042D01*
Y327120D01*
X820271D01*
X738696Y331274D02*
Y338045D01*
X743774D01*
Y334660D01*
Y338045D01*
X748852D01*
Y327888D02*
Y324503D01*
Y326195D01*
X738696D01*
X740388Y327888D01*
M02*
