G04*
G04 #@! TF.GenerationSoftware,Altium Limited,Altium Designer,26.3.0 (6)*
G04*
G04 Layer_Physical_Order=1*
G04 Layer_Color=255*
%FSLAX44Y44*%
%MOMM*%
G71*
G04*
G04 #@! TF.SameCoordinates,6CDC7679-250A-49CF-B699-AA4DA3C9BEAB*
G04*
G04*
G04 #@! TF.FilePolarity,Positive*
G04*
G01*
G75*
%ADD12C,0.2000*%
%ADD16C,0.3000*%
%ADD19R,1.0000X2.7000*%
%ADD20R,0.6000X1.7000*%
%ADD21R,2.4500X1.0000*%
%ADD22R,1.1000X1.5000*%
%ADD23R,2.4130X5.3340*%
%ADD24R,1.7000X0.6000*%
%ADD25R,1.3098X0.9061*%
%ADD26R,1.4500X1.3000*%
%ADD27R,4.4000X2.5000*%
%ADD28R,2.1082X1.3970*%
%ADD29R,0.9061X1.3098*%
%ADD30R,1.7000X3.3000*%
%ADD31R,0.6000X0.2300*%
%ADD32R,1.0000X2.4500*%
%ADD33R,0.7000X1.0000*%
%ADD34R,0.7000X0.3000*%
%ADD35R,0.9000X1.4000*%
%ADD36R,1.3000X1.4500*%
%ADD37R,2.8000X1.0000*%
%ADD38R,1.0000X2.8000*%
%ADD39R,2.7000X1.0000*%
%ADD43C,1.3900*%
%ADD44R,1.3900X1.3900*%
G04:AMPARAMS|DCode=51|XSize=1.1mm|YSize=2.1mm|CornerRadius=0.55mm|HoleSize=0mm|Usage=FLASHONLY|Rotation=90.000|XOffset=0mm|YOffset=0mm|HoleType=Round|Shape=RoundedRectangle|*
%AMROUNDEDRECTD51*
21,1,1.1000,1.0000,0,0,90.0*
21,1,0.0000,2.1000,0,0,90.0*
1,1,1.1000,0.5000,0.0000*
1,1,1.1000,0.5000,0.0000*
1,1,1.1000,-0.5000,0.0000*
1,1,1.1000,-0.5000,0.0000*
%
%ADD51ROUNDEDRECTD51*%
G04:AMPARAMS|DCode=52|XSize=1.1mm|YSize=2.6mm|CornerRadius=0.55mm|HoleSize=0mm|Usage=FLASHONLY|Rotation=90.000|XOffset=0mm|YOffset=0mm|HoleType=Round|Shape=RoundedRectangle|*
%AMROUNDEDRECTD52*
21,1,1.1000,1.5000,0,0,90.0*
21,1,0.0000,2.6000,0,0,90.0*
1,1,1.1000,0.7500,0.0000*
1,1,1.1000,0.7500,0.0000*
1,1,1.1000,-0.7500,0.0000*
1,1,1.1000,-0.7500,0.0000*
%
%ADD52ROUNDEDRECTD52*%
%ADD55C,0.7000*%
%ADD56C,0.3048*%
%ADD57C,0.2200*%
%ADD58C,0.2540*%
%ADD59C,0.5000*%
%ADD60R,2.0000X2.0000*%
%ADD61C,4.6500*%
%ADD62C,2.0000*%
%ADD63C,2.7000*%
%ADD64C,1.0000*%
%ADD65C,5.3850*%
%ADD66C,0.4500*%
%ADD67C,0.7000*%
G36*
X909502Y588126D02*
X909502Y588126D01*
X912004Y588126D01*
X916911Y587150D01*
X921534Y585235D01*
X925694Y582455D01*
X929232Y578917D01*
X932011Y574757D01*
X933926Y570135D01*
X934902Y565228D01*
X934902Y562726D01*
X934902D01*
X934902Y562726D01*
Y514040D01*
X930540D01*
X929960Y514040D01*
X928540D01*
X927960Y514040D01*
X924270D01*
Y503000D01*
Y491960D01*
X927861D01*
X928540Y491960D01*
X929861Y490507D01*
Y489128D01*
X927755Y487022D01*
X925579Y486120D01*
X923879Y484421D01*
X922960Y482201D01*
Y479799D01*
X923879Y477579D01*
X925579Y475880D01*
X927799Y474960D01*
X930201D01*
X932421Y475880D01*
X932902Y476360D01*
X934902Y475532D01*
Y429462D01*
X933239Y428351D01*
X932725Y428564D01*
X930322D01*
X928614Y427856D01*
X926614Y428769D01*
Y429314D01*
X925611D01*
X924275Y431314D01*
X924507Y431875D01*
X924783Y433974D01*
X924507Y436073D01*
X923697Y438028D01*
X922408Y439708D01*
X920729Y440997D01*
X918773Y441807D01*
X916674Y442083D01*
X906674D01*
X904575Y441807D01*
X902619Y440997D01*
X900940Y439708D01*
X899651Y438028D01*
X898841Y436073D01*
X898565Y433974D01*
X898841Y431875D01*
X899651Y429919D01*
X900940Y428240D01*
X902619Y426951D01*
X902950Y426814D01*
X902552Y424814D01*
X901534D01*
Y416734D01*
Y409676D01*
X901048Y409579D01*
X899712Y408686D01*
X899432Y408407D01*
X899195Y408644D01*
X896975Y409564D01*
X894573D01*
X892353Y408644D01*
X890654Y406945D01*
X889734Y404725D01*
Y402323D01*
X890385Y400750D01*
Y381927D01*
X890154Y381695D01*
X889234Y379475D01*
Y377072D01*
X890154Y374852D01*
X891852Y373153D01*
X894072Y372234D01*
X896475D01*
X896727Y372338D01*
X897280Y371968D01*
X898856Y371655D01*
X901534D01*
Y366734D01*
Y356734D01*
X902552D01*
X902950Y354734D01*
X902619Y354597D01*
X900940Y353308D01*
X899651Y351629D01*
X898841Y349673D01*
X898565Y347574D01*
X898841Y345475D01*
X899651Y343519D01*
X900940Y341840D01*
X902619Y340551D01*
X904575Y339741D01*
X906674Y339464D01*
X916674D01*
X918773Y339741D01*
X920729Y340551D01*
X922408Y341840D01*
X923697Y343519D01*
X924507Y345475D01*
X924783Y347574D01*
X924507Y349673D01*
X924275Y350234D01*
X924921Y351201D01*
X926614Y352234D01*
X928401Y351719D01*
X929573Y351234D01*
X931975D01*
X932902Y351618D01*
X934902Y350281D01*
Y276064D01*
X928484D01*
Y275663D01*
X920677D01*
X920445Y275894D01*
X918225Y276814D01*
X915823D01*
X913603Y275894D01*
X911904Y274195D01*
X910984Y271975D01*
Y269573D01*
X911904Y267353D01*
X913603Y265653D01*
X915823Y264734D01*
X918225D01*
X919798Y265385D01*
X928053D01*
X928484Y263564D01*
X928484Y263564D01*
X928484Y263564D01*
Y252484D01*
X934385D01*
Y247524D01*
X934776Y245557D01*
X934902Y245369D01*
Y164046D01*
X932902Y163829D01*
X930306Y167714D01*
X926714Y171306D01*
X922490Y174129D01*
X917797Y176073D01*
X912814Y177064D01*
X907734D01*
X902751Y176073D01*
X898058Y174129D01*
X893834Y171306D01*
X890241Y167714D01*
X887419Y163490D01*
X885475Y158797D01*
X884484Y153814D01*
Y148734D01*
X885475Y143751D01*
X887419Y139058D01*
X890241Y134834D01*
X893834Y131242D01*
X898058Y128419D01*
X902751Y126475D01*
X907734Y125484D01*
X912814D01*
X917797Y126475D01*
X922490Y128419D01*
X926714Y131242D01*
X930306Y134834D01*
X932902Y138719D01*
X934902Y138502D01*
Y16842D01*
Y15614D01*
X934423Y13206D01*
X933484Y10938D01*
X932119Y8896D01*
X930383Y7160D01*
X928342Y5796D01*
X926073Y4856D01*
X923665Y4377D01*
X104674D01*
X102172Y4377D01*
X97265Y5353D01*
X92642Y7268D01*
X88482Y10047D01*
X84944Y13585D01*
X82165Y17745D01*
X80250Y22368D01*
X79274Y27275D01*
X79274Y29777D01*
X78902Y36274D01*
Y53276D01*
X80902Y53812D01*
X81039Y53574D01*
X83374Y51239D01*
X86234Y49588D01*
X89423Y48734D01*
X92725D01*
X95914Y49588D01*
X98774Y51239D01*
X101108Y53574D01*
X102731Y56385D01*
X102937Y56434D01*
X104611D01*
X104817Y56385D01*
X106439Y53574D01*
X108774Y51239D01*
X111634Y49588D01*
X114823Y48734D01*
X118125D01*
X121314Y49588D01*
X124174Y51239D01*
X126508Y53574D01*
X128131Y56385D01*
X128337Y56434D01*
X130011D01*
X130217Y56385D01*
X131839Y53574D01*
X134174Y51239D01*
X137034Y49588D01*
X140223Y48734D01*
X143525D01*
X146714Y49588D01*
X149574Y51239D01*
X151908Y53574D01*
X153531Y56385D01*
X153737Y56434D01*
X155411D01*
X155617Y56385D01*
X157239Y53574D01*
X159574Y51239D01*
X162434Y49588D01*
X165623Y48734D01*
X168925D01*
X172114Y49588D01*
X174974Y51239D01*
X177308Y53574D01*
X178931Y56385D01*
X179137Y56434D01*
X180811D01*
X181017Y56385D01*
X182639Y53574D01*
X184974Y51239D01*
X187834Y49588D01*
X191023Y48734D01*
X194325D01*
X197514Y49588D01*
X200374Y51239D01*
X202708Y53574D01*
X204331Y56385D01*
X204537Y56434D01*
X206211D01*
X206417Y56385D01*
X208039Y53574D01*
X210374Y51239D01*
X213234Y49588D01*
X216423Y48734D01*
X219725D01*
X222914Y49588D01*
X225774Y51239D01*
X228108Y53574D01*
X229731Y56385D01*
X229937Y56434D01*
X231611D01*
X231817Y56385D01*
X233439Y53574D01*
X235774Y51239D01*
X238634Y49588D01*
X241823Y48734D01*
X245125D01*
X248314Y49588D01*
X251174Y51239D01*
X253508Y53574D01*
X255131Y56385D01*
X255337Y56434D01*
X257011D01*
X257217Y56385D01*
X258839Y53574D01*
X261174Y51239D01*
X264034Y49588D01*
X267223Y48734D01*
X270525D01*
X273714Y49588D01*
X276574Y51239D01*
X278908Y53574D01*
X280531Y56385D01*
X280737Y56434D01*
X282411D01*
X282617Y56385D01*
X284239Y53574D01*
X286574Y51239D01*
X289434Y49588D01*
X292623Y48734D01*
X295925D01*
X299114Y49588D01*
X301974Y51239D01*
X304308Y53574D01*
X305931Y56385D01*
X306137Y56434D01*
X307811D01*
X308017Y56385D01*
X309639Y53574D01*
X311974Y51239D01*
X314834Y49588D01*
X318023Y48734D01*
X321325D01*
X324514Y49588D01*
X327374Y51239D01*
X329708Y53574D01*
X331331Y56385D01*
X331537Y56434D01*
X333211D01*
X333417Y56385D01*
X335039Y53574D01*
X337374Y51239D01*
X340234Y49588D01*
X343423Y48734D01*
X346725D01*
X349914Y49588D01*
X352774Y51239D01*
X355108Y53574D01*
X356731Y56385D01*
X356937Y56434D01*
X358611D01*
X358817Y56385D01*
X360439Y53574D01*
X362774Y51239D01*
X365634Y49588D01*
X368823Y48734D01*
X372125D01*
X375314Y49588D01*
X378174Y51239D01*
X380508Y53574D01*
X382131Y56385D01*
X382337Y56434D01*
X384011D01*
X384217Y56385D01*
X385839Y53574D01*
X388174Y51239D01*
X389116Y50696D01*
Y23274D01*
X389234Y22679D01*
Y22073D01*
X389466Y21512D01*
X389584Y20917D01*
X389921Y20413D01*
X390153Y19852D01*
X390582Y19424D01*
X390919Y18919D01*
X391424Y18582D01*
X391852Y18153D01*
X392413Y17921D01*
X392917Y17584D01*
X393512Y17466D01*
X394072Y17234D01*
X394679D01*
X395274Y17116D01*
X825274D01*
X825869Y17234D01*
X826475D01*
X827036Y17466D01*
X827631Y17584D01*
X828135Y17921D01*
X828695Y18153D01*
X829124Y18582D01*
X829629Y18919D01*
X829966Y19424D01*
X830394Y19852D01*
X830627Y20413D01*
X830964Y20917D01*
X831082Y21512D01*
X831314Y22073D01*
Y22679D01*
X831432Y23274D01*
X831314Y23869D01*
Y24475D01*
X831082Y25036D01*
X830964Y25631D01*
X830627Y26135D01*
X830394Y26695D01*
X829966Y27124D01*
X829629Y27629D01*
X829124Y27966D01*
X828695Y28394D01*
X828135Y28626D01*
X827631Y28963D01*
X827036Y29082D01*
X826475Y29314D01*
X825869D01*
X825274Y29432D01*
X401432D01*
Y50003D01*
X403574Y51239D01*
X405908Y53574D01*
X407531Y56385D01*
X407737Y56434D01*
X409411D01*
X409617Y56385D01*
X411239Y53574D01*
X413574Y51239D01*
X416434Y49588D01*
X419623Y48734D01*
X422925D01*
X426114Y49588D01*
X428974Y51239D01*
X431308Y53574D01*
X432959Y56434D01*
X433814Y59623D01*
Y62925D01*
X432959Y66114D01*
X431308Y68974D01*
X428974Y71308D01*
X426114Y72959D01*
X422925Y73814D01*
X419623D01*
X416434Y72959D01*
X413574Y71308D01*
X411239Y68974D01*
X409617Y66163D01*
X409411Y66114D01*
X407737D01*
X407531Y66163D01*
X405908Y68974D01*
X403574Y71308D01*
X400714Y72959D01*
X397525Y73814D01*
X394223D01*
X391034Y72959D01*
X388174Y71308D01*
X385839Y68974D01*
X384217Y66163D01*
X384011Y66114D01*
X382337D01*
X382131Y66163D01*
X380508Y68974D01*
X378174Y71308D01*
X375314Y72959D01*
X372125Y73814D01*
X368823D01*
X365634Y72959D01*
X362774Y71308D01*
X360439Y68974D01*
X358817Y66163D01*
X358611Y66114D01*
X356937D01*
X356731Y66163D01*
X355108Y68974D01*
X352774Y71308D01*
X349914Y72959D01*
X346725Y73814D01*
X343423D01*
X340234Y72959D01*
X337374Y71308D01*
X335039Y68974D01*
X333417Y66163D01*
X333211Y66114D01*
X331537D01*
X331331Y66163D01*
X329708Y68974D01*
X327374Y71308D01*
X324514Y72959D01*
X321325Y73814D01*
X318023D01*
X314834Y72959D01*
X311974Y71308D01*
X309639Y68974D01*
X308017Y66163D01*
X307811Y66114D01*
X306137D01*
X305931Y66163D01*
X304308Y68974D01*
X301974Y71308D01*
X299114Y72959D01*
X295925Y73814D01*
X292623D01*
X289434Y72959D01*
X286574Y71308D01*
X284239Y68974D01*
X282617Y66163D01*
X282411Y66114D01*
X280737D01*
X280531Y66163D01*
X278908Y68974D01*
X276574Y71308D01*
X273714Y72959D01*
X270525Y73814D01*
X267223D01*
X264034Y72959D01*
X261174Y71308D01*
X258839Y68974D01*
X257217Y66163D01*
X257011Y66114D01*
X255337D01*
X255131Y66163D01*
X253508Y68974D01*
X251174Y71308D01*
X248314Y72959D01*
X245125Y73814D01*
X241823D01*
X238634Y72959D01*
X235774Y71308D01*
X233439Y68974D01*
X231817Y66163D01*
X231611Y66114D01*
X229937D01*
X229731Y66163D01*
X228108Y68974D01*
X225774Y71308D01*
X222914Y72959D01*
X222218Y73146D01*
Y124474D01*
X221902Y126060D01*
X221004Y127404D01*
X84482Y263926D01*
Y279057D01*
X84166Y280643D01*
X83268Y281987D01*
X80887Y284368D01*
X79543Y285266D01*
X78902Y285394D01*
Y307276D01*
X80902Y307812D01*
X81039Y307574D01*
X83374Y305239D01*
X86234Y303589D01*
X89423Y302734D01*
X92725D01*
X95914Y303589D01*
X98774Y305239D01*
X101108Y307574D01*
X102731Y310385D01*
X102937Y310434D01*
X104611D01*
X104817Y310385D01*
X106439Y307574D01*
X108774Y305239D01*
X111634Y303589D01*
X114823Y302734D01*
X118125D01*
X121314Y303589D01*
X124174Y305239D01*
X126508Y307574D01*
X128131Y310385D01*
X128337Y310434D01*
X130011D01*
X130217Y310385D01*
X131839Y307574D01*
X134174Y305239D01*
X137034Y303589D01*
X140223Y302734D01*
X143525D01*
X146714Y303589D01*
X149574Y305239D01*
X151908Y307574D01*
X153531Y310385D01*
X153737Y310434D01*
X155411D01*
X155617Y310385D01*
X157239Y307574D01*
X159574Y305239D01*
X162434Y303589D01*
X165623Y302734D01*
X168925D01*
X172114Y303589D01*
X172971Y304083D01*
X288271Y188783D01*
X289531Y187941D01*
X291018Y187645D01*
X332909D01*
X449734Y70820D01*
Y69072D01*
X450653Y66852D01*
X452352Y65153D01*
X454572Y64234D01*
X456975D01*
X459195Y65153D01*
X460894Y66852D01*
X461814Y69072D01*
Y71475D01*
X460894Y73695D01*
X459195Y75394D01*
X456975Y76314D01*
X455228D01*
X337265Y194277D01*
X336004Y195119D01*
X334518Y195415D01*
X292627D01*
X185299Y302742D01*
X186527Y304343D01*
X187834Y303589D01*
X191023Y302734D01*
X194325D01*
X197514Y303589D01*
X200374Y305239D01*
X202708Y307574D01*
X204331Y310385D01*
X204537Y310434D01*
X206211D01*
X206417Y310385D01*
X208039Y307574D01*
X210374Y305239D01*
X213234Y303589D01*
X216423Y302734D01*
X219725D01*
X222914Y303589D01*
X225774Y305239D01*
X228108Y307574D01*
X229731Y310385D01*
X229937Y310434D01*
X231611D01*
X231817Y310385D01*
X233439Y307574D01*
X235774Y305239D01*
X238634Y303589D01*
X241823Y302734D01*
X245125D01*
X248314Y303589D01*
X251174Y305239D01*
X253508Y307574D01*
X255131Y310385D01*
X255337Y310434D01*
X257011D01*
X257217Y310385D01*
X258839Y307574D01*
X261174Y305239D01*
X264034Y303589D01*
X267223Y302734D01*
X270525D01*
X273714Y303589D01*
X276574Y305239D01*
X278908Y307574D01*
X280531Y310385D01*
X280737Y310434D01*
X282411D01*
X282617Y310385D01*
X284239Y307574D01*
X286574Y305239D01*
X289434Y303589D01*
X290014Y303433D01*
Y269556D01*
X288403Y267945D01*
X287484Y265725D01*
Y263323D01*
X288403Y261103D01*
X290103Y259403D01*
X292323Y258484D01*
X294725D01*
X296945Y259403D01*
X298644Y261103D01*
X299564Y263323D01*
Y265725D01*
X298644Y267945D01*
X297784Y268806D01*
Y303232D01*
X299114Y303589D01*
X301974Y305239D01*
X304308Y307574D01*
X305931Y310385D01*
X306137Y310434D01*
X307811D01*
X308017Y310385D01*
X309639Y307574D01*
X311974Y305239D01*
X314834Y303589D01*
X315789Y303332D01*
Y225862D01*
X316085Y224375D01*
X316927Y223115D01*
X322515Y217527D01*
X322551Y217503D01*
X466389Y73665D01*
Y60383D01*
X459320Y53314D01*
X457573D01*
X455353Y52394D01*
X453653Y50695D01*
X452734Y48475D01*
Y46073D01*
X453112Y45159D01*
X451776Y43158D01*
X447931D01*
X446695Y44394D01*
X444475Y45314D01*
X442072D01*
X439852Y44394D01*
X438153Y42695D01*
X437234Y40475D01*
Y38073D01*
X438153Y35852D01*
X439852Y34153D01*
X442072Y33234D01*
X444475D01*
X446695Y34153D01*
X447931Y35389D01*
X510584D01*
X512071Y35685D01*
X512661Y36079D01*
X803507Y36079D01*
X803594Y36096D01*
X805072Y35484D01*
X807475D01*
X809695Y36403D01*
X811394Y38103D01*
X812314Y40322D01*
Y42725D01*
X811394Y44945D01*
X809695Y46644D01*
X807475Y47564D01*
X805072D01*
X802852Y46644D01*
X801153Y44945D01*
X800699Y43849D01*
X511274Y43849D01*
X509787Y43553D01*
X509197Y43158D01*
X465772D01*
X464435Y45159D01*
X464814Y46073D01*
Y47820D01*
X473021Y56027D01*
X473863Y57287D01*
X474159Y58774D01*
Y75274D01*
X473863Y76761D01*
X473021Y78021D01*
X328021Y223021D01*
X327984Y223045D01*
X323559Y227471D01*
Y303332D01*
X324514Y303589D01*
X327374Y305239D01*
X329708Y307574D01*
X331331Y310385D01*
X331537Y310434D01*
X333211D01*
X333417Y310385D01*
X335039Y307574D01*
X337374Y305239D01*
X340234Y303589D01*
X343423Y302734D01*
X346725D01*
X349914Y303589D01*
X352774Y305239D01*
X355108Y307574D01*
X356731Y310385D01*
X356937Y310434D01*
X358611D01*
X358817Y310385D01*
X360439Y307574D01*
X362774Y305239D01*
X365634Y303589D01*
X368823Y302734D01*
X372125D01*
X375314Y303589D01*
X378174Y305239D01*
X380508Y307574D01*
X382131Y310385D01*
X382337Y310434D01*
X384011D01*
X384217Y310385D01*
X385839Y307574D01*
X388174Y305239D01*
X391034Y303589D01*
X394223Y302734D01*
X397525D01*
X400714Y303589D01*
X403574Y305239D01*
X405908Y307574D01*
X406734Y309004D01*
X408734Y308468D01*
Y302734D01*
X420004D01*
Y315274D01*
Y327814D01*
X408734D01*
Y322080D01*
X406734Y321544D01*
X405908Y322974D01*
X403574Y325308D01*
X400714Y326959D01*
X397525Y327814D01*
X394223D01*
X391034Y326959D01*
X388174Y325308D01*
X385839Y322974D01*
X384217Y320163D01*
X384011Y320114D01*
X382337D01*
X382131Y320163D01*
X380508Y322974D01*
X378174Y325308D01*
X375314Y326959D01*
X372125Y327814D01*
X368823D01*
X365634Y326959D01*
X362774Y325308D01*
X360439Y322974D01*
X358817Y320163D01*
X358611Y320114D01*
X356937D01*
X356731Y320163D01*
X355108Y322974D01*
X352774Y325308D01*
X349914Y326959D01*
X346725Y327814D01*
X343423D01*
X340234Y326959D01*
X337374Y325308D01*
X335039Y322974D01*
X333417Y320163D01*
X333211Y320114D01*
X331537D01*
X331331Y320163D01*
X329708Y322974D01*
X327374Y325308D01*
X324514Y326959D01*
X321325Y327814D01*
X318023D01*
X314834Y326959D01*
X311974Y325308D01*
X309639Y322974D01*
X308017Y320163D01*
X307811Y320114D01*
X306137D01*
X305931Y320163D01*
X304308Y322974D01*
X301974Y325308D01*
X299114Y326959D01*
X295925Y327814D01*
X292623D01*
X289434Y326959D01*
X288127Y326205D01*
X286899Y327805D01*
X299733Y340639D01*
X433915D01*
X442389Y332165D01*
Y259931D01*
X441153Y258695D01*
X440234Y256475D01*
Y254072D01*
X441153Y251852D01*
X442853Y250153D01*
X445073Y249234D01*
X447475D01*
X448355Y249598D01*
X450355Y248262D01*
Y220308D01*
X450651Y218821D01*
X451493Y217561D01*
X496277Y172777D01*
X497537Y171935D01*
X499024Y171639D01*
X685503D01*
X719296Y137846D01*
X718827Y135487D01*
X718603Y135394D01*
X716904Y133695D01*
X715984Y131475D01*
Y129073D01*
X716904Y126853D01*
X718139Y125617D01*
Y118524D01*
X718212Y118158D01*
X716369Y117173D01*
X706064Y127478D01*
Y129225D01*
X705144Y131445D01*
X703445Y133144D01*
X701225Y134064D01*
X698822D01*
X696602Y133144D01*
X694903Y131445D01*
X693984Y129225D01*
Y126823D01*
X694903Y124602D01*
X696602Y122903D01*
X698822Y121984D01*
X700570D01*
X715734Y106820D01*
Y90234D01*
X726814D01*
X726814Y90234D01*
X728234D01*
Y90234D01*
X728814Y90234D01*
X739314D01*
Y90234D01*
X740734D01*
Y90234D01*
X751234D01*
X751814Y90234D01*
X753234D01*
X753814Y90234D01*
X763734D01*
X764314Y90234D01*
X765734D01*
X766314Y90234D01*
X770004D01*
Y101274D01*
Y112314D01*
X766314D01*
X765734Y112314D01*
X764314D01*
X762659Y113868D01*
Y121665D01*
X765228Y124234D01*
X766975D01*
X769195Y125153D01*
X770894Y126853D01*
X771814Y129073D01*
Y131475D01*
X770894Y133695D01*
X769195Y135394D01*
X766975Y136314D01*
X764573D01*
X762353Y135394D01*
X760654Y133695D01*
X759734Y131475D01*
Y129728D01*
X756027Y126021D01*
X755185Y124761D01*
X754889Y123274D01*
Y113728D01*
X753475Y112314D01*
X751814Y112314D01*
X750159Y113868D01*
Y126887D01*
X751064Y129073D01*
Y131475D01*
X750144Y133695D01*
X748445Y135394D01*
X746225Y136314D01*
X743822D01*
X741602Y135394D01*
X740367Y134158D01*
X733971D01*
X689859Y178271D01*
X688598Y179113D01*
X687112Y179408D01*
X500633D01*
X458125Y221917D01*
Y431897D01*
X467321D01*
Y450947D01*
X441159D01*
Y431897D01*
X450355D01*
Y338015D01*
X448355Y337186D01*
X438271Y347271D01*
X437010Y348113D01*
X435524Y348409D01*
X298124D01*
X296637Y348113D01*
X295377Y347271D01*
X274571Y326465D01*
X273714Y326959D01*
X270525Y327814D01*
X267223D01*
X264034Y326959D01*
X261174Y325308D01*
X258839Y322974D01*
X257217Y320163D01*
X257011Y320114D01*
X255337D01*
X255131Y320163D01*
X253508Y322974D01*
X251174Y325308D01*
X248314Y326959D01*
X245125Y327814D01*
X241823D01*
X238634Y326959D01*
X237327Y326205D01*
X236099Y327805D01*
X313771Y405477D01*
X314613Y406737D01*
X314909Y408224D01*
Y474298D01*
X314613Y475785D01*
X313771Y477045D01*
X291964Y498852D01*
Y509314D01*
X293964Y509792D01*
X294603Y509153D01*
X296822Y508234D01*
X299225D01*
X301445Y509153D01*
X303144Y510853D01*
X304064Y513073D01*
Y515475D01*
X303144Y517695D01*
X302714Y518126D01*
X303542Y520126D01*
X394000Y520126D01*
X405412Y520006D01*
X406000Y520000D01*
X406000Y520000D01*
X406195Y520019D01*
X406555Y520168D01*
X406831Y520444D01*
X406981Y520805D01*
X407000Y521000D01*
X407000Y521000D01*
X407000Y521582D01*
X407000Y538228D01*
X407976Y543135D01*
X409891Y547757D01*
X412671Y551917D01*
X416208Y555455D01*
X420369Y558235D01*
X424991Y560150D01*
X429898Y561126D01*
X818731D01*
X820234Y561200D01*
X823181Y561786D01*
X825958Y562936D01*
X828456Y564605D01*
X830581Y566730D01*
X832251Y569229D01*
X833401Y572006D01*
X833987Y574953D01*
X834061Y576456D01*
X834061Y581959D01*
X834324Y583280D01*
X834840Y584525D01*
X835588Y585646D01*
X836541Y586599D01*
X837662Y587347D01*
X838907Y587863D01*
X840228Y588126D01*
X840902Y588126D01*
X909502Y588126D01*
X909502Y588126D01*
D02*
G37*
G36*
X262384Y506734D02*
Y492734D01*
Y478734D01*
Y464734D01*
Y460069D01*
X261614Y459682D01*
X260384Y459456D01*
X258945Y460894D01*
X256725Y461814D01*
X254322D01*
X252103Y460894D01*
X250403Y459195D01*
X249484Y456975D01*
Y454572D01*
X250403Y452352D01*
X252103Y450653D01*
X254322Y449734D01*
X255604D01*
Y438800D01*
X255684Y438400D01*
Y420534D01*
X263677D01*
X264443Y418686D01*
X236165Y390409D01*
X230681D01*
X229445Y391644D01*
X227225Y392564D01*
X224823D01*
X222603Y391644D01*
X220903Y389945D01*
X219984Y387725D01*
Y385322D01*
X220903Y383102D01*
X222603Y381403D01*
X224823Y380484D01*
X227225D01*
X229445Y381403D01*
X230681Y382639D01*
X236817D01*
X237645Y380639D01*
X231058Y374052D01*
X120567D01*
X119080Y373756D01*
X117820Y372914D01*
X80750Y335844D01*
X78902Y336609D01*
Y357251D01*
X79448Y358569D01*
Y360972D01*
X78902Y362290D01*
Y392185D01*
X86105D01*
Y410363D01*
X78902D01*
Y419685D01*
X85844D01*
Y427504D01*
X78774D01*
Y430044D01*
X85844D01*
Y437863D01*
X78902D01*
Y494675D01*
X78902Y494675D01*
X78902Y494675D01*
X78897Y497180D01*
X79866Y502095D01*
X81776Y506726D01*
X84554Y510895D01*
X88093Y514441D01*
X92257Y517228D01*
X96884Y519147D01*
X101797Y520126D01*
X104302D01*
X127144Y520126D01*
X127910Y518278D01*
X92777Y483145D01*
X91935Y481885D01*
X91639Y480398D01*
Y427185D01*
X91935Y425699D01*
X92777Y424438D01*
X92841Y424375D01*
Y376221D01*
X91605Y374985D01*
X90685Y372765D01*
Y370363D01*
X91605Y368143D01*
X93304Y366443D01*
X95524Y365524D01*
X97927D01*
X100147Y366443D01*
X101846Y368143D01*
X102765Y370363D01*
Y372765D01*
X101846Y374985D01*
X100610Y376221D01*
Y385568D01*
X102610Y386396D01*
X102853Y386153D01*
X105072Y385234D01*
X107475D01*
X109695Y386153D01*
X111394Y387853D01*
X112314Y390073D01*
Y391454D01*
X136095Y415235D01*
X136115D01*
X138335Y416155D01*
X140034Y417854D01*
X140953Y420074D01*
Y422477D01*
X140034Y424697D01*
X138335Y426396D01*
X136115Y427315D01*
X133712D01*
X131492Y426396D01*
X129793Y424697D01*
X128873Y422477D01*
Y420074D01*
X128973Y419833D01*
X106454Y397314D01*
X105072D01*
X102853Y396394D01*
X102610Y396152D01*
X100610Y396980D01*
Y425984D01*
X100314Y427470D01*
X99472Y428731D01*
X99409Y428794D01*
Y478789D01*
X119234Y498615D01*
X121234Y497786D01*
Y497072D01*
X122154Y494852D01*
X123853Y493153D01*
X126004Y492262D01*
Y498274D01*
X127274D01*
Y499544D01*
X133286D01*
X132394Y501695D01*
X130695Y503394D01*
X128475Y504314D01*
X127762D01*
X126933Y506314D01*
X134636Y514017D01*
X136484Y513251D01*
Y506734D01*
Y501544D01*
X166064D01*
Y506734D01*
Y520126D01*
X262384Y520126D01*
Y506734D01*
D02*
G37*
G36*
X291964Y450734D02*
X292139Y448806D01*
Y435133D01*
X277379Y420372D01*
X275379Y421201D01*
Y450734D01*
X291964D01*
D02*
G37*
G36*
X307139Y421417D02*
Y409833D01*
X223771Y326465D01*
X222914Y326959D01*
X219725Y327814D01*
X216423D01*
X213234Y326959D01*
X211927Y326205D01*
X210699Y327805D01*
X305139Y422245D01*
X307139Y421417D01*
D02*
G37*
G36*
X298986Y428163D02*
X299126Y427219D01*
X198371Y326465D01*
X197514Y326959D01*
X194325Y327814D01*
X191023D01*
X187834Y326959D01*
X184974Y325308D01*
X182639Y322974D01*
X181017Y320163D01*
X180811Y320114D01*
X179137D01*
X178931Y320163D01*
X177308Y322974D01*
X174974Y325308D01*
X172114Y326959D01*
X168925Y327814D01*
X165623D01*
X162434Y326959D01*
X159574Y325308D01*
X157239Y322974D01*
X155617Y320163D01*
X155411Y320114D01*
X153737D01*
X153531Y320163D01*
X151908Y322974D01*
X149574Y325308D01*
X146714Y326959D01*
X143525Y327814D01*
X140223D01*
X137034Y326959D01*
X134174Y325308D01*
X131839Y322974D01*
X130217Y320163D01*
X130011Y320114D01*
X128337D01*
X128131Y320163D01*
X126508Y322974D01*
X124174Y325308D01*
X121314Y326959D01*
X118125Y327814D01*
X114823D01*
X111634Y326959D01*
X108774Y325308D01*
X106439Y322974D01*
X104817Y320163D01*
X104611Y320114D01*
X102937D01*
X102731Y320163D01*
X101108Y322974D01*
X98774Y325308D01*
X95914Y326959D01*
X92725Y327814D01*
X89423D01*
X86234Y326959D01*
X84927Y326205D01*
X83699Y327805D01*
X122176Y366282D01*
X232667D01*
X234154Y366578D01*
X235414Y367420D01*
X296860Y428866D01*
X298986Y428163D01*
D02*
G37*
G36*
X729615Y127527D02*
X730875Y126685D01*
X732362Y126389D01*
X740367D01*
X741602Y125153D01*
X742389Y124827D01*
Y113146D01*
X740734Y112314D01*
X739314D01*
Y112314D01*
X733728D01*
X725909Y120133D01*
Y125617D01*
X727144Y126853D01*
X727237Y127076D01*
X729596Y127546D01*
X729615Y127527D01*
D02*
G37*
G36*
X213930Y122758D02*
Y73146D01*
X213234Y72959D01*
X210374Y71308D01*
X208039Y68974D01*
X206417Y66163D01*
X206211Y66114D01*
X204537D01*
X204331Y66163D01*
X202708Y68974D01*
X200374Y71308D01*
X197514Y72959D01*
X194325Y73814D01*
X191023D01*
X187834Y72959D01*
X184974Y71308D01*
X182639Y68974D01*
X181017Y66163D01*
X180811Y66114D01*
X179137D01*
X178931Y66163D01*
X177308Y68974D01*
X174974Y71308D01*
X172114Y72959D01*
X168925Y73814D01*
X165623D01*
X162434Y72959D01*
X159574Y71308D01*
X157239Y68974D01*
X155617Y66163D01*
X155411Y66114D01*
X153737D01*
X153531Y66163D01*
X151908Y68974D01*
X149574Y71308D01*
X146714Y72959D01*
X145759Y73215D01*
Y112515D01*
X179254Y146010D01*
X181002D01*
X183222Y146930D01*
X184921Y148629D01*
X185151Y149185D01*
X187113Y149575D01*
X213930Y122758D01*
D02*
G37*
G36*
X177325Y159363D02*
X176935Y157401D01*
X176379Y157171D01*
X174680Y155472D01*
X173760Y153252D01*
Y151504D01*
X139127Y116871D01*
X138285Y115611D01*
X137989Y114124D01*
Y73215D01*
X137034Y72959D01*
X134174Y71308D01*
X131839Y68974D01*
X130217Y66163D01*
X130011Y66114D01*
X128337D01*
X128131Y66163D01*
X126508Y68974D01*
X124174Y71308D01*
X121314Y72959D01*
X118125Y73814D01*
X114823D01*
X111634Y72959D01*
X108774Y71308D01*
X106439Y68974D01*
X104817Y66163D01*
X104611Y66114D01*
X102937D01*
X102731Y66163D01*
X101108Y68974D01*
X98774Y71308D01*
X95914Y72959D01*
X92725Y73814D01*
X89423D01*
X86234Y72959D01*
X83374Y71308D01*
X81039Y68974D01*
X80902Y68736D01*
X78902Y69272D01*
Y255173D01*
X80750Y255938D01*
X177325Y159363D01*
D02*
G37*
%LPC*%
G36*
X912040Y551040D02*
X896960D01*
Y518960D01*
X912040D01*
Y551040D01*
D02*
G37*
G36*
X333544Y515285D02*
Y510544D01*
X338285D01*
X337394Y512695D01*
X335695Y514394D01*
X333544Y515285D01*
D02*
G37*
G36*
X331004D02*
X328853Y514394D01*
X327153Y512695D01*
X326262Y510544D01*
X331004D01*
Y515285D01*
D02*
G37*
G36*
X921730Y514040D02*
X917460D01*
Y504270D01*
X921730D01*
Y514040D01*
D02*
G37*
G36*
X338285Y508004D02*
X333544D01*
Y503262D01*
X335695Y504153D01*
X337394Y505853D01*
X338285Y508004D01*
D02*
G37*
G36*
X331004D02*
X326262D01*
X327153Y505853D01*
X328853Y504153D01*
X331004Y503262D01*
Y508004D01*
D02*
G37*
G36*
X921730Y501730D02*
X917460D01*
Y491960D01*
X921730D01*
Y501730D01*
D02*
G37*
G36*
X333544Y496286D02*
Y491544D01*
X338285D01*
X337394Y493695D01*
X335695Y495394D01*
X333544Y496286D01*
D02*
G37*
G36*
X331004D02*
X328853Y495394D01*
X327153Y493695D01*
X326262Y491544D01*
X331004D01*
Y496286D01*
D02*
G37*
G36*
X599821Y495651D02*
X573659D01*
Y490010D01*
X508889D01*
Y495651D01*
X482727D01*
Y476601D01*
X508889D01*
Y482241D01*
X567086D01*
X567623Y480948D01*
X567699Y480241D01*
X566153Y478695D01*
X565234Y476475D01*
Y474072D01*
X566153Y471852D01*
X567853Y470153D01*
X570073Y469234D01*
X572475D01*
X574695Y470153D01*
X576394Y471852D01*
X577314Y474072D01*
Y474762D01*
X579153Y476601D01*
X599821D01*
Y495651D01*
D02*
G37*
G36*
X467321Y495651D02*
X455510D01*
Y487396D01*
X467321D01*
Y495651D01*
D02*
G37*
G36*
X452970D02*
X441159D01*
Y487396D01*
X452970D01*
Y495651D01*
D02*
G37*
G36*
X338285Y489004D02*
X333544D01*
Y484262D01*
X335695Y485153D01*
X337394Y486852D01*
X338285Y489004D01*
D02*
G37*
G36*
X331004D02*
X326262D01*
X327153Y486852D01*
X328853Y485153D01*
X331004Y484262D01*
Y489004D01*
D02*
G37*
G36*
X467321Y484856D02*
X455510D01*
Y476601D01*
X467321D01*
Y484856D01*
D02*
G37*
G36*
X452970D02*
X441159D01*
Y476601D01*
X452970D01*
Y484856D01*
D02*
G37*
G36*
X376389Y495651D02*
X350227D01*
Y476601D01*
X376389D01*
Y495651D01*
D02*
G37*
G36*
X338544Y468285D02*
Y463544D01*
X343285D01*
X342394Y465695D01*
X340695Y467394D01*
X338544Y468285D01*
D02*
G37*
G36*
X336004D02*
X333853Y467394D01*
X332154Y465695D01*
X331262Y463544D01*
X336004D01*
Y468285D01*
D02*
G37*
G36*
X343285Y461004D02*
X338544D01*
Y456262D01*
X340695Y457153D01*
X342394Y458853D01*
X343285Y461004D01*
D02*
G37*
G36*
X336004D02*
X331262D01*
X332154Y458853D01*
X333853Y457153D01*
X336004Y456262D01*
Y461004D01*
D02*
G37*
G36*
X643564Y478064D02*
X623984D01*
Y472909D01*
X617898D01*
X616411Y472613D01*
X615151Y471771D01*
X594327Y450947D01*
X573659D01*
Y445307D01*
X508889D01*
Y450947D01*
X482727D01*
Y431897D01*
X490139D01*
Y395931D01*
X488904Y394695D01*
X487984Y392475D01*
Y390073D01*
X488904Y387853D01*
X490602Y386153D01*
X492822Y385234D01*
X495225D01*
X497445Y386153D01*
X499144Y387853D01*
X500064Y390073D01*
Y392475D01*
X499144Y394695D01*
X497909Y395931D01*
Y431897D01*
X508889D01*
Y437537D01*
X573659D01*
Y431897D01*
X599821D01*
Y445453D01*
X619507Y465139D01*
X623984D01*
Y459984D01*
Y453794D01*
X643564D01*
Y459984D01*
Y478064D01*
D02*
G37*
G36*
X821064Y458564D02*
X812544D01*
Y450794D01*
X821064D01*
Y458564D01*
D02*
G37*
G36*
X810004D02*
X801484D01*
Y450794D01*
X810004D01*
Y458564D01*
D02*
G37*
G36*
X850363Y456105D02*
X842544D01*
Y450305D01*
X850363D01*
Y456105D01*
D02*
G37*
G36*
X840004D02*
X832185D01*
Y450305D01*
X840004D01*
Y456105D01*
D02*
G37*
G36*
X643564Y451254D02*
X635044D01*
Y443484D01*
X643564D01*
Y451254D01*
D02*
G37*
G36*
X632504D02*
X623984D01*
Y443484D01*
X632504D01*
Y451254D01*
D02*
G37*
G36*
X376389Y450947D02*
X350227D01*
Y431897D01*
X376389D01*
Y450947D01*
D02*
G37*
G36*
X467532Y415555D02*
Y410814D01*
X472274D01*
X471383Y412965D01*
X469684Y414664D01*
X467532Y415555D01*
D02*
G37*
G36*
X464992D02*
X462841Y414664D01*
X461142Y412965D01*
X460251Y410814D01*
X464992D01*
Y415555D01*
D02*
G37*
G36*
X441555Y414016D02*
Y409274D01*
X446297D01*
X445406Y411425D01*
X443707Y413124D01*
X441555Y414016D01*
D02*
G37*
G36*
X439016D02*
X436864Y413124D01*
X435165Y411425D01*
X434274Y409274D01*
X439016D01*
Y414016D01*
D02*
G37*
G36*
X472274Y408274D02*
X467532D01*
Y403532D01*
X469684Y404423D01*
X471383Y406123D01*
X472274Y408274D01*
D02*
G37*
G36*
X464992D02*
X460251D01*
X461142Y406123D01*
X462841Y404423D01*
X464992Y403532D01*
Y408274D01*
D02*
G37*
G36*
X446297Y406734D02*
X441555D01*
Y401992D01*
X443707Y402883D01*
X445406Y404582D01*
X446297Y406734D01*
D02*
G37*
G36*
X439016D02*
X434274D01*
X435165Y404582D01*
X436864Y402883D01*
X439016Y401992D01*
Y406734D01*
D02*
G37*
G36*
X821064Y448254D02*
X811274D01*
X801484D01*
Y440484D01*
Y423984D01*
X821064D01*
Y429904D01*
X832185D01*
Y426443D01*
X837665D01*
Y418269D01*
X828210Y408814D01*
X826072D01*
X823852Y407894D01*
X822153Y406195D01*
X821234Y403975D01*
Y401572D01*
X822153Y399352D01*
X821294Y397383D01*
X810814D01*
Y397464D01*
X807153D01*
Y398628D01*
X806879Y400010D01*
X806096Y401181D01*
X803681Y403596D01*
X802510Y404379D01*
X801128Y404653D01*
X785715D01*
X784604Y406316D01*
X784814Y406823D01*
Y408682D01*
X790363D01*
Y422822D01*
X790363Y422822D01*
Y424204D01*
X790363D01*
X790363Y424823D01*
Y438344D01*
X772185D01*
Y429308D01*
X768452Y425575D01*
X767669Y424404D01*
X767395Y423023D01*
Y391269D01*
X767611Y390180D01*
X766953Y389142D01*
X766251Y388411D01*
X766190Y388423D01*
X756064D01*
Y388564D01*
X736484D01*
Y370484D01*
Y368163D01*
X722074D01*
Y390484D01*
X692864D01*
Y332064D01*
X722074D01*
Y357885D01*
X736484D01*
Y353984D01*
X742127D01*
X742892Y352136D01*
X737756Y347000D01*
X735156D01*
X734945Y347210D01*
X732725Y348130D01*
X730322D01*
X728102Y347210D01*
X726403Y345511D01*
X725484Y343291D01*
Y340888D01*
X726403Y338669D01*
X728102Y336969D01*
X730322Y336050D01*
X732725D01*
X734945Y336969D01*
X736181Y338205D01*
X738340D01*
X739827Y338501D01*
X741087Y339343D01*
X751113Y349369D01*
X774754D01*
X776240Y349665D01*
X777501Y350507D01*
X778386Y351392D01*
X780720Y350898D01*
X781153Y349852D01*
X782155Y348851D01*
Y321947D01*
X780654Y320445D01*
X779734Y318225D01*
Y315823D01*
X780654Y313603D01*
X782353Y311903D01*
X784573Y310984D01*
X786975D01*
X789195Y311903D01*
X790894Y313603D01*
X791814Y315823D01*
Y318225D01*
X790894Y320445D01*
X790393Y320947D01*
Y325940D01*
X792185Y326443D01*
Y326443D01*
X810363D01*
Y335479D01*
X813375Y338491D01*
X814157Y339662D01*
X814432Y341043D01*
Y354808D01*
X814157Y356189D01*
X813375Y357360D01*
X810883Y359852D01*
Y368624D01*
X810856Y368759D01*
X811071Y369009D01*
X813028Y369416D01*
X818722Y363722D01*
X819893Y362939D01*
X821274Y362665D01*
X826274D01*
X827655Y362939D01*
X828826Y363722D01*
X829443Y364338D01*
X831443Y363510D01*
Y347185D01*
X844965D01*
X846964Y347185D01*
X847583Y347185D01*
X861105D01*
Y352563D01*
X868693D01*
X870352Y350903D01*
X872572Y349984D01*
X874975D01*
X877195Y350903D01*
X878894Y352603D01*
X879814Y354823D01*
Y357225D01*
X878894Y359445D01*
X877195Y361144D01*
X874975Y362064D01*
X872572D01*
X870352Y361144D01*
X869193Y359985D01*
X861105D01*
Y365363D01*
X849003D01*
X847666Y367363D01*
X848064Y368322D01*
Y370725D01*
X847144Y372945D01*
X845606Y374484D01*
X845690Y375226D01*
X846219Y376484D01*
X868564D01*
Y381579D01*
X869822Y382108D01*
X870564Y382192D01*
X872103Y380653D01*
X874323Y379734D01*
X876725D01*
X878945Y380653D01*
X880644Y382352D01*
X881564Y384572D01*
Y386975D01*
X880644Y389195D01*
X878945Y390894D01*
X876725Y391814D01*
X874323D01*
X872103Y390894D01*
X871193Y389985D01*
X868564D01*
Y396064D01*
X833984D01*
Y391453D01*
X831984Y390624D01*
X827874Y394734D01*
X828256Y396005D01*
X828636Y396800D01*
X830695Y397653D01*
X832394Y399352D01*
X833314Y401572D01*
Y403709D01*
X843826Y414222D01*
X844609Y415393D01*
X844883Y416774D01*
Y426443D01*
X850363D01*
Y439964D01*
X850363Y441964D01*
X850363Y442583D01*
Y447765D01*
X841274D01*
X832185D01*
Y442583D01*
X832185Y440583D01*
X832185Y439964D01*
Y437122D01*
X821064D01*
Y440484D01*
Y448254D01*
D02*
G37*
G36*
X754361Y441342D02*
X751959D01*
X749739Y440422D01*
X748039Y438723D01*
X747120Y436503D01*
Y434100D01*
X748039Y431880D01*
X748135Y431784D01*
Y428814D01*
X743484D01*
Y410734D01*
Y394234D01*
X763064D01*
Y410734D01*
Y428814D01*
X758413D01*
Y432199D01*
X759200Y434100D01*
Y436503D01*
X758280Y438723D01*
X756581Y440422D01*
X754361Y441342D01*
D02*
G37*
G36*
X580764Y395764D02*
X572544D01*
Y387544D01*
X580764D01*
Y395764D01*
D02*
G37*
G36*
X570004D02*
X561784D01*
Y387544D01*
X570004D01*
Y395764D01*
D02*
G37*
G36*
X326475Y427314D02*
X324072D01*
X321852Y426394D01*
X320154Y424695D01*
X319234Y422475D01*
Y420073D01*
X320135Y417897D01*
Y392651D01*
X319234Y390475D01*
Y388073D01*
X320154Y385853D01*
X321852Y384153D01*
X324072Y383234D01*
X326475D01*
X328695Y384153D01*
X330394Y385853D01*
X331314Y388073D01*
Y390475D01*
X330413Y392651D01*
Y417897D01*
X331314Y420073D01*
Y422475D01*
X330394Y424695D01*
X328695Y426394D01*
X326475Y427314D01*
D02*
G37*
G36*
X649684Y390484D02*
X636349D01*
Y362544D01*
X649684D01*
Y390484D01*
D02*
G37*
G36*
X633809D02*
X620474D01*
Y362544D01*
X633809D01*
Y390484D01*
D02*
G37*
G36*
X433544Y364286D02*
Y359544D01*
X438285D01*
X437394Y361695D01*
X435695Y363394D01*
X433544Y364286D01*
D02*
G37*
G36*
X431004D02*
X428853Y363394D01*
X427154Y361695D01*
X426262Y359544D01*
X431004D01*
Y364286D01*
D02*
G37*
G36*
X438285Y357004D02*
X433544D01*
Y352262D01*
X435695Y353153D01*
X437394Y354852D01*
X438285Y357004D01*
D02*
G37*
G36*
X431004D02*
X426262D01*
X427154Y354852D01*
X428853Y353153D01*
X431004Y352262D01*
Y357004D01*
D02*
G37*
G36*
X571274Y386274D02*
D01*
Y385004D01*
X561784D01*
Y376784D01*
X566498D01*
X567034Y374784D01*
X565447Y373868D01*
X563680Y372101D01*
X562431Y369937D01*
X561784Y367523D01*
Y365024D01*
X562431Y362611D01*
X563680Y360447D01*
X565447Y358680D01*
X567611Y357431D01*
X568064Y357309D01*
Y355239D01*
X567611Y355117D01*
X565447Y353868D01*
X563680Y352101D01*
X562431Y349937D01*
X561784Y347523D01*
Y345024D01*
X562431Y342611D01*
X563680Y340447D01*
X565447Y338680D01*
X567611Y337431D01*
X570024Y336784D01*
X572523D01*
X574937Y337431D01*
X577101Y338680D01*
X578868Y340447D01*
X580117Y342611D01*
X580764Y345024D01*
Y347523D01*
X580117Y349937D01*
X578868Y352101D01*
X577101Y353868D01*
X574937Y355117D01*
X574484Y355239D01*
Y357309D01*
X574937Y357431D01*
X577101Y358680D01*
X578868Y360447D01*
X580117Y362611D01*
X580764Y365024D01*
Y367523D01*
X580117Y369937D01*
X578868Y372101D01*
X577101Y373868D01*
X575514Y374784D01*
X576050Y376784D01*
X580764D01*
Y385004D01*
X571274D01*
Y386274D01*
D02*
G37*
G36*
X649684Y360004D02*
X636349D01*
Y332064D01*
X649684D01*
Y360004D01*
D02*
G37*
G36*
X633809D02*
X620474D01*
Y332064D01*
X633809D01*
Y360004D01*
D02*
G37*
G36*
X433814Y327814D02*
X422544D01*
Y316544D01*
X433814D01*
Y327814D01*
D02*
G37*
G36*
X501867Y318614D02*
X499881D01*
X497964Y318100D01*
X496244Y317107D01*
X494840Y315704D01*
X493848Y313984D01*
X493334Y312067D01*
Y310081D01*
X493848Y308164D01*
X494840Y306444D01*
X496244Y305040D01*
X497964Y304048D01*
X499881Y303534D01*
X501867D01*
X503784Y304048D01*
X505504Y305040D01*
X506907Y306444D01*
X507900Y308164D01*
X508414Y310081D01*
Y312067D01*
X507900Y313984D01*
X506907Y315704D01*
X505504Y317107D01*
X503784Y318100D01*
X501867Y318614D01*
D02*
G37*
G36*
X433814Y314004D02*
X422544D01*
Y302734D01*
X433814D01*
Y314004D01*
D02*
G37*
G36*
X623274Y325432D02*
X615274D01*
X612917Y324963D01*
X610919Y323629D01*
X607919Y320629D01*
X607582Y320124D01*
X607154Y319695D01*
X606921Y319135D01*
X606584Y318631D01*
X606466Y318036D01*
X606234Y317475D01*
Y316869D01*
X606116Y316274D01*
X606234Y315679D01*
Y315072D01*
X606466Y314512D01*
X606584Y313917D01*
X606921Y313413D01*
X607154Y312852D01*
X607582Y312424D01*
X607919Y311919D01*
X608424Y311582D01*
X608853Y311153D01*
X609413Y310921D01*
X609917Y310584D01*
X610512Y310466D01*
X611073Y310234D01*
X611679D01*
X612274Y310116D01*
X612869Y310234D01*
X613475D01*
X614036Y310466D01*
X614631Y310584D01*
X615135Y310921D01*
X615695Y311153D01*
X616124Y311582D01*
X616628Y311919D01*
X617825Y313116D01*
X620723D01*
X641919Y291919D01*
X642424Y291582D01*
X642852Y291153D01*
X643413Y290921D01*
X643917Y290584D01*
X644512Y290466D01*
X645072Y290234D01*
X645679D01*
X646274Y290116D01*
X646869Y290234D01*
X647475D01*
X648036Y290466D01*
X648631Y290584D01*
X649135Y290921D01*
X649695Y291153D01*
X650124Y291582D01*
X650629Y291919D01*
X650965Y292424D01*
X651394Y292852D01*
X651627Y293413D01*
X651964Y293917D01*
X652082Y294512D01*
X652314Y295072D01*
Y295679D01*
X652432Y296274D01*
X652314Y296869D01*
Y297475D01*
X652082Y298036D01*
X651964Y298631D01*
X651627Y299135D01*
X651394Y299695D01*
X650965Y300124D01*
X650629Y300629D01*
X627629Y323629D01*
X625631Y324963D01*
X623274Y325432D01*
D02*
G37*
G36*
X518544Y291285D02*
Y286544D01*
X523285D01*
X522394Y288695D01*
X520695Y290394D01*
X518544Y291285D01*
D02*
G37*
G36*
X516004D02*
X513853Y290394D01*
X512154Y288695D01*
X511262Y286544D01*
X516004D01*
Y291285D01*
D02*
G37*
G36*
X612564Y296064D02*
X579484D01*
Y280984D01*
X612564D01*
Y296064D01*
D02*
G37*
G36*
X523285Y284004D02*
X518544D01*
Y279262D01*
X520695Y280153D01*
X522394Y281852D01*
X523285Y284004D01*
D02*
G37*
G36*
X516004D02*
X511262D01*
X512154Y281852D01*
X513853Y280153D01*
X516004Y279262D01*
Y284004D01*
D02*
G37*
G36*
X395544Y281285D02*
Y276544D01*
X400285D01*
X399394Y278695D01*
X397695Y280394D01*
X395544Y281285D01*
D02*
G37*
G36*
X393004D02*
X390853Y280394D01*
X389154Y278695D01*
X388262Y276544D01*
X393004D01*
Y281285D01*
D02*
G37*
G36*
X400285Y274004D02*
X395544D01*
Y269262D01*
X397695Y270153D01*
X399394Y271852D01*
X400285Y274004D01*
D02*
G37*
G36*
X393004D02*
X388262D01*
X389154Y271852D01*
X390853Y270153D01*
X393004Y269262D01*
Y274004D01*
D02*
G37*
G36*
X640564Y275564D02*
X618484D01*
Y273909D01*
X486274D01*
X484787Y273613D01*
X483527Y272771D01*
X473820Y263064D01*
X472323D01*
X470103Y262144D01*
X468404Y260445D01*
X467484Y258225D01*
Y255823D01*
X468404Y253603D01*
X470103Y251903D01*
X472323Y250984D01*
X474725D01*
X476945Y251903D01*
X478644Y253603D01*
X479564Y255823D01*
Y257820D01*
X487883Y266139D01*
X617070D01*
X618484Y264725D01*
X618484Y263064D01*
X616929Y261409D01*
X492024D01*
X490537Y261113D01*
X489277Y260271D01*
X469027Y240021D01*
X468898Y239827D01*
X467853Y239394D01*
X466153Y237695D01*
X465234Y235475D01*
Y233072D01*
X466153Y230853D01*
X467853Y229153D01*
X470073Y228234D01*
X472475D01*
X474695Y229153D01*
X476394Y230853D01*
X477314Y233072D01*
Y235475D01*
X476773Y236780D01*
X493633Y253639D01*
X617070D01*
X618484Y252225D01*
X618484Y250564D01*
X618484Y249984D01*
Y246294D01*
X629524D01*
X640564D01*
Y249984D01*
X640564Y250564D01*
Y251984D01*
X640564Y252564D01*
Y262484D01*
X640564Y263064D01*
Y264484D01*
X640564Y265064D01*
Y275564D01*
D02*
G37*
G36*
X713814Y256314D02*
X690544D01*
Y242544D01*
X713814D01*
Y256314D01*
D02*
G37*
G36*
X688004D02*
X664734D01*
Y242544D01*
X688004D01*
Y256314D01*
D02*
G37*
G36*
X126544Y244286D02*
Y239544D01*
X131285D01*
X130394Y241695D01*
X128695Y243394D01*
X126544Y244286D01*
D02*
G37*
G36*
X124004D02*
X121853Y243394D01*
X120154Y241695D01*
X119262Y239544D01*
X124004D01*
Y244286D01*
D02*
G37*
G36*
X131285Y237004D02*
X126544D01*
Y232262D01*
X128695Y233153D01*
X130394Y234853D01*
X131285Y237004D01*
D02*
G37*
G36*
X124004D02*
X119262D01*
X120154Y234853D01*
X121853Y233153D01*
X124004Y232262D01*
Y237004D01*
D02*
G37*
G36*
X797814Y256314D02*
X748734D01*
Y226234D01*
X797814D01*
Y256314D01*
D02*
G37*
G36*
X713814Y240004D02*
X690544D01*
Y226234D01*
X713814D01*
Y240004D01*
D02*
G37*
G36*
X688004D02*
X664734D01*
Y226234D01*
X688004D01*
Y240004D01*
D02*
G37*
G36*
X337725Y270564D02*
X335322D01*
X333102Y269644D01*
X331404Y267945D01*
X330484Y265725D01*
Y263323D01*
X331404Y261103D01*
X333102Y259403D01*
X335322Y258484D01*
X337725D01*
X339945Y259403D01*
X341431Y260889D01*
X374915D01*
X403734Y232070D01*
Y230322D01*
X404654Y228102D01*
X406353Y226403D01*
X408573Y225484D01*
X410975D01*
X413195Y226403D01*
X414894Y228102D01*
X415814Y230322D01*
Y232725D01*
X414894Y234945D01*
X413195Y236644D01*
X410975Y237564D01*
X409228D01*
X379271Y267521D01*
X378010Y268363D01*
X376524Y268659D01*
X340931D01*
X339945Y269644D01*
X337725Y270564D01*
D02*
G37*
G36*
X440544Y218286D02*
Y213544D01*
X445285D01*
X444394Y215695D01*
X442695Y217394D01*
X440544Y218286D01*
D02*
G37*
G36*
X438004D02*
X435853Y217394D01*
X434154Y215695D01*
X433262Y213544D01*
X438004D01*
Y218286D01*
D02*
G37*
G36*
X640564Y243754D02*
X629524D01*
X618484D01*
Y240064D01*
X618484Y239484D01*
Y238064D01*
X618484Y237484D01*
Y226984D01*
X631389D01*
Y220931D01*
X630154Y219695D01*
X629234Y217475D01*
Y215072D01*
X630154Y212852D01*
X631852Y211153D01*
X634072Y210234D01*
X636475D01*
X638695Y211153D01*
X640394Y212852D01*
X641314Y215072D01*
Y217475D01*
X640394Y219695D01*
X639159Y220931D01*
Y226984D01*
X640564D01*
Y237484D01*
X640564Y238064D01*
Y239484D01*
X640564Y240064D01*
Y243754D01*
D02*
G37*
G36*
X612564Y221564D02*
X579484D01*
Y206484D01*
X612564D01*
Y221564D01*
D02*
G37*
G36*
X445285Y211004D02*
X440544D01*
Y206262D01*
X442695Y207153D01*
X444394Y208853D01*
X445285Y211004D01*
D02*
G37*
G36*
X438004D02*
X433262D01*
X434154Y208853D01*
X435853Y207153D01*
X438004Y206262D01*
Y211004D01*
D02*
G37*
G36*
X261544Y201285D02*
Y196544D01*
X266285D01*
X265394Y198695D01*
X263695Y200394D01*
X261544Y201285D01*
D02*
G37*
G36*
X259004D02*
X256852Y200394D01*
X255154Y198695D01*
X254262Y196544D01*
X259004D01*
Y201285D01*
D02*
G37*
G36*
X555544Y198286D02*
Y193544D01*
X560285D01*
X559394Y195695D01*
X557695Y197394D01*
X555544Y198286D01*
D02*
G37*
G36*
X553004D02*
X550853Y197394D01*
X549154Y195695D01*
X548262Y193544D01*
X553004D01*
Y198286D01*
D02*
G37*
G36*
X703544Y195285D02*
Y190544D01*
X708286D01*
X707394Y192695D01*
X705695Y194394D01*
X703544Y195285D01*
D02*
G37*
G36*
X701004D02*
X698853Y194394D01*
X697153Y192695D01*
X696262Y190544D01*
X701004D01*
Y195285D01*
D02*
G37*
G36*
X266285Y194004D02*
X261544D01*
Y189262D01*
X263695Y190153D01*
X265394Y191852D01*
X266285Y194004D01*
D02*
G37*
G36*
X259004D02*
X254262D01*
X255154Y191852D01*
X256852Y190153D01*
X259004Y189262D01*
Y194004D01*
D02*
G37*
G36*
X427544Y192285D02*
Y187544D01*
X432285D01*
X431394Y189695D01*
X429695Y191394D01*
X427544Y192285D01*
D02*
G37*
G36*
X425004D02*
X422853Y191394D01*
X421153Y189695D01*
X420262Y187544D01*
X425004D01*
Y192285D01*
D02*
G37*
G36*
X560285Y191004D02*
X555544D01*
Y186262D01*
X557695Y187153D01*
X559394Y188853D01*
X560285Y191004D01*
D02*
G37*
G36*
X553004D02*
X548262D01*
X549154Y188853D01*
X550853Y187153D01*
X553004Y186262D01*
Y191004D01*
D02*
G37*
G36*
X708286Y188004D02*
X703544D01*
Y183262D01*
X705695Y184153D01*
X707394Y185853D01*
X708286Y188004D01*
D02*
G37*
G36*
X701004D02*
X696262D01*
X697153Y185853D01*
X698853Y184153D01*
X701004Y183262D01*
Y188004D01*
D02*
G37*
G36*
X432285Y185004D02*
X427544D01*
Y180262D01*
X429695Y181153D01*
X431394Y182852D01*
X432285Y185004D01*
D02*
G37*
G36*
X425004D02*
X420262D01*
X421153Y182852D01*
X422853Y181153D01*
X425004Y180262D01*
Y185004D01*
D02*
G37*
G36*
X876814Y225064D02*
X871734D01*
X866751Y224073D01*
X862058Y222129D01*
X857834Y219306D01*
X854241Y215714D01*
X851419Y211490D01*
X849475Y206797D01*
X848484Y201814D01*
Y196734D01*
X849475Y191751D01*
X851419Y187058D01*
X854241Y182834D01*
X855011Y182064D01*
X854056Y180190D01*
X850593Y180739D01*
X845955D01*
X841374Y180013D01*
X836963Y178580D01*
X832831Y176475D01*
X829079Y173748D01*
X825799Y170469D01*
X823073Y166717D01*
X820968Y162584D01*
X819535Y158174D01*
X818809Y153593D01*
Y148955D01*
X819535Y144374D01*
X820968Y139963D01*
X823073Y135831D01*
X825799Y132079D01*
X829079Y128799D01*
X832831Y126073D01*
X836963Y123968D01*
X841374Y122534D01*
X845955Y121809D01*
X850593D01*
X855174Y122534D01*
X859585Y123968D01*
X863717Y126073D01*
X867469Y128799D01*
X870749Y132079D01*
X873475Y135831D01*
X875580Y139963D01*
X877013Y144374D01*
X877739Y148955D01*
Y153593D01*
X877013Y158174D01*
X875580Y162584D01*
X873475Y166717D01*
X870749Y170469D01*
X869286Y171932D01*
X870271Y173775D01*
X871734Y173484D01*
X876814D01*
X881797Y174475D01*
X886490Y176419D01*
X890714Y179242D01*
X894306Y182834D01*
X897129Y187058D01*
X899073Y191751D01*
X900064Y196734D01*
Y201814D01*
X899073Y206797D01*
X897129Y211490D01*
X894306Y215714D01*
X890714Y219306D01*
X886490Y222129D01*
X881797Y224073D01*
X876814Y225064D01*
D02*
G37*
G36*
X519544Y162285D02*
Y157544D01*
X524286D01*
X523394Y159695D01*
X521695Y161394D01*
X519544Y162285D01*
D02*
G37*
G36*
X517004D02*
X514852Y161394D01*
X513153Y159695D01*
X512262Y157544D01*
X517004D01*
Y162285D01*
D02*
G37*
G36*
X678544Y161285D02*
Y156544D01*
X683286D01*
X682394Y158695D01*
X680695Y160394D01*
X678544Y161285D01*
D02*
G37*
G36*
X676004D02*
X673853Y160394D01*
X672153Y158695D01*
X671262Y156544D01*
X676004D01*
Y161285D01*
D02*
G37*
G36*
X524286Y155004D02*
X519544D01*
Y150262D01*
X521695Y151153D01*
X523394Y152852D01*
X524286Y155004D01*
D02*
G37*
G36*
X517004D02*
X512262D01*
X513153Y152852D01*
X514852Y151153D01*
X517004Y150262D01*
Y155004D01*
D02*
G37*
G36*
X683286Y154004D02*
X678544D01*
Y149262D01*
X680695Y150153D01*
X682394Y151853D01*
X683286Y154004D01*
D02*
G37*
G36*
X676004D02*
X671262D01*
X672153Y151853D01*
X673853Y150153D01*
X676004Y149262D01*
Y154004D01*
D02*
G37*
G36*
X238725Y161564D02*
X236322D01*
X234102Y160644D01*
X232403Y158945D01*
X231484Y156725D01*
Y154323D01*
X232403Y152102D01*
X234102Y150403D01*
X236322Y149484D01*
X238725D01*
X239704Y149889D01*
X346117D01*
X347352Y148653D01*
X349572Y147734D01*
X351975D01*
X354195Y148653D01*
X355894Y150352D01*
X356814Y152572D01*
Y154975D01*
X355894Y157195D01*
X354195Y158894D01*
X351975Y159814D01*
X349572D01*
X347352Y158894D01*
X346117Y157659D01*
X243177D01*
X242644Y158945D01*
X240945Y160644D01*
X238725Y161564D01*
D02*
G37*
G36*
X221544Y150286D02*
Y145544D01*
X226285D01*
X225394Y147695D01*
X223695Y149394D01*
X221544Y150286D01*
D02*
G37*
G36*
X219004D02*
X216853Y149394D01*
X215154Y147695D01*
X214262Y145544D01*
X219004D01*
Y150286D01*
D02*
G37*
G36*
X226285Y143004D02*
X221544D01*
Y138262D01*
X223695Y139153D01*
X225394Y140852D01*
X226285Y143004D01*
D02*
G37*
G36*
X219004D02*
X214262D01*
X215154Y140852D01*
X216853Y139153D01*
X219004Y138262D01*
Y143004D01*
D02*
G37*
G36*
X657414Y155814D02*
X641334D01*
Y135734D01*
X645489D01*
Y129281D01*
X643904Y127695D01*
X642984Y125475D01*
Y123073D01*
X643904Y120852D01*
X645602Y119153D01*
X647822Y118234D01*
X650225D01*
X652445Y119153D01*
X654144Y120852D01*
X655064Y123073D01*
Y125475D01*
X654144Y127695D01*
X653259Y128581D01*
Y135734D01*
X657414D01*
Y155814D01*
D02*
G37*
G36*
X632014D02*
X615934D01*
Y135734D01*
X620089D01*
Y130131D01*
X618653Y128695D01*
X617734Y126475D01*
Y124728D01*
X603165Y110159D01*
X590825D01*
X590628Y112158D01*
X590760Y112185D01*
X592021Y113027D01*
X597728Y118734D01*
X599475D01*
X601695Y119653D01*
X603394Y121353D01*
X604314Y123573D01*
Y125975D01*
X603394Y128195D01*
X602458Y129131D01*
Y135734D01*
X606614D01*
Y155814D01*
X590534D01*
Y135734D01*
X594689D01*
Y129731D01*
X593153Y128195D01*
X592234Y125975D01*
Y124228D01*
X587665Y119658D01*
X579063D01*
X578125Y121659D01*
X578814Y123322D01*
Y125725D01*
X577894Y127945D01*
X577058Y128781D01*
Y135734D01*
X581214D01*
Y155814D01*
X565134D01*
Y135734D01*
X569289D01*
Y129581D01*
X568117Y128408D01*
X528854D01*
X527367Y128113D01*
X526107Y127271D01*
X525995Y127158D01*
X524931D01*
X523695Y128394D01*
X521475Y129314D01*
X519072D01*
X516852Y128394D01*
X515154Y126695D01*
X514234Y124475D01*
Y122072D01*
X515154Y119853D01*
X516852Y118153D01*
X519072Y117234D01*
X521475D01*
X523695Y118153D01*
X524136Y118594D01*
X525832Y117461D01*
X525734Y117225D01*
Y114823D01*
X526654Y112603D01*
X528353Y110903D01*
X530573Y109984D01*
X531505D01*
X532841Y107984D01*
X532734Y107725D01*
Y105323D01*
X533653Y103103D01*
X535353Y101403D01*
X537573Y100484D01*
X539975D01*
X542195Y101403D01*
X543181Y102389D01*
X604774D01*
X606260Y102685D01*
X607521Y103527D01*
X623228Y119234D01*
X624975D01*
X627195Y120153D01*
X628894Y121853D01*
X629814Y124073D01*
Y126475D01*
X628894Y128695D01*
X627859Y129731D01*
Y135734D01*
X632014D01*
Y155814D01*
D02*
G37*
G36*
X772544Y112314D02*
Y102544D01*
X776814D01*
Y112314D01*
X772544D01*
D02*
G37*
G36*
X776814Y100004D02*
X772544D01*
Y90234D01*
X776814D01*
Y100004D01*
D02*
G37*
G36*
X795475Y102314D02*
X793073D01*
X790853Y101394D01*
X789154Y99695D01*
X789007Y99341D01*
X788527Y99021D01*
X768820Y79314D01*
X767073D01*
X764853Y78394D01*
X763492Y77034D01*
X750806D01*
X749695Y78144D01*
X747475Y79064D01*
X745072D01*
X742852Y78144D01*
X741775Y77067D01*
X729965D01*
X728571Y78460D01*
X726351Y79380D01*
X723948D01*
X721728Y78460D01*
X720029Y76761D01*
X719109Y74541D01*
Y72139D01*
X720029Y69919D01*
X721728Y68219D01*
X723948Y67300D01*
X726351D01*
X728571Y68219D01*
X729649Y69297D01*
X741459D01*
X742852Y67903D01*
X745072Y66984D01*
X747475D01*
X749695Y67903D01*
X751056Y69264D01*
X763742D01*
X764853Y68153D01*
X767073Y67234D01*
X769475D01*
X771695Y68153D01*
X773394Y69852D01*
X774314Y72073D01*
Y73820D01*
X780386Y79892D01*
X782234Y79127D01*
Y51234D01*
X797314D01*
Y84314D01*
X787421D01*
X786655Y86162D01*
X791414Y90921D01*
X793073Y90234D01*
X795475D01*
X797695Y91153D01*
X799394Y92852D01*
X800314Y95072D01*
Y97475D01*
X799394Y99695D01*
X797695Y101394D01*
X795475Y102314D01*
D02*
G37*
G36*
X501867Y73514D02*
X499881D01*
X497964Y73000D01*
X496244Y72007D01*
X494840Y70603D01*
X493848Y68884D01*
X493334Y66967D01*
Y64981D01*
X493848Y63064D01*
X494840Y61344D01*
X496244Y59940D01*
X497964Y58948D01*
X499881Y58434D01*
X501867D01*
X503784Y58948D01*
X505504Y59940D01*
X506907Y61344D01*
X507900Y63064D01*
X508414Y64981D01*
Y66967D01*
X507900Y68884D01*
X506907Y70603D01*
X505504Y72007D01*
X503784Y73000D01*
X501867Y73514D01*
D02*
G37*
G36*
X657414Y66814D02*
X650644D01*
Y58044D01*
X657414D01*
Y66814D01*
D02*
G37*
G36*
X632014D02*
X625244D01*
Y58044D01*
X632014D01*
Y66814D01*
D02*
G37*
G36*
X606614D02*
X599844D01*
Y58044D01*
X606614D01*
Y66814D01*
D02*
G37*
G36*
X581214D02*
X574444D01*
Y58044D01*
X581214D01*
Y66814D01*
D02*
G37*
G36*
X648104D02*
X641334D01*
Y58044D01*
X648104D01*
Y66814D01*
D02*
G37*
G36*
X622704D02*
X615934D01*
Y58044D01*
X622704D01*
Y66814D01*
D02*
G37*
G36*
X597304D02*
X590534D01*
Y58044D01*
X597304D01*
Y66814D01*
D02*
G37*
G36*
X571904D02*
X565134D01*
Y58044D01*
X571904D01*
Y66814D01*
D02*
G37*
G36*
X673274Y101432D02*
X672679Y101314D01*
X672073D01*
X671512Y101082D01*
X670917Y100963D01*
X670413Y100626D01*
X669853Y100394D01*
X669424Y99965D01*
X668919Y99628D01*
X668582Y99124D01*
X668154Y98695D01*
X667921Y98135D01*
X667584Y97631D01*
X667466Y97036D01*
X667234Y96475D01*
Y95869D01*
X667116Y95274D01*
Y74604D01*
X666921Y74135D01*
X666584Y73631D01*
X666466Y73036D01*
X666234Y72475D01*
Y71869D01*
X666116Y71274D01*
X666234Y70679D01*
Y70072D01*
X666466Y69512D01*
X666584Y68917D01*
X666921Y68413D01*
X667153Y67853D01*
X667582Y67424D01*
X667919Y66919D01*
X668424Y66582D01*
X668852Y66153D01*
X669413Y65921D01*
X669917Y65584D01*
X670512Y65466D01*
X671072Y65234D01*
X671679D01*
X672274Y65116D01*
X672828Y65226D01*
X675527Y62527D01*
X676787Y61685D01*
X678274Y61389D01*
X685617D01*
X686853Y60153D01*
X689072Y59234D01*
X691475D01*
X693234Y59962D01*
X695234Y59079D01*
Y51234D01*
X710314D01*
Y84314D01*
X695234D01*
Y71469D01*
X693234Y70585D01*
X691475Y71314D01*
X689072D01*
X686853Y70394D01*
X685617Y69159D01*
X680616D01*
X679150Y70855D01*
X679432Y72274D01*
Y95274D01*
X679314Y95869D01*
Y96475D01*
X679082Y97036D01*
X678963Y97631D01*
X678626Y98135D01*
X678394Y98695D01*
X677965Y99124D01*
X677628Y99628D01*
X677124Y99965D01*
X676695Y100394D01*
X676135Y100626D01*
X675631Y100963D01*
X675036Y101082D01*
X674475Y101314D01*
X673869D01*
X673274Y101432D01*
D02*
G37*
G36*
X657414Y55504D02*
X650644D01*
Y46734D01*
X657414D01*
Y55504D01*
D02*
G37*
G36*
X648104D02*
X641334D01*
Y46734D01*
X648104D01*
Y55504D01*
D02*
G37*
G36*
X632014D02*
X625244D01*
Y46734D01*
X632014D01*
Y55504D01*
D02*
G37*
G36*
X622704D02*
X615934D01*
Y46734D01*
X622704D01*
Y55504D01*
D02*
G37*
G36*
X606614D02*
X599844D01*
Y46734D01*
X606614D01*
Y55504D01*
D02*
G37*
G36*
X597304D02*
X590534D01*
Y46734D01*
X597304D01*
Y55504D01*
D02*
G37*
G36*
X581214D02*
X574444D01*
Y46734D01*
X581214D01*
Y55504D01*
D02*
G37*
G36*
X571904D02*
X565134D01*
Y46734D01*
X571904D01*
Y55504D01*
D02*
G37*
G36*
X248883Y516775D02*
Y512033D01*
X253625D01*
X252733Y514184D01*
X251034Y515883D01*
X248883Y516775D01*
D02*
G37*
G36*
X246343D02*
X244192Y515883D01*
X242493Y514184D01*
X241601Y512033D01*
X246343D01*
Y516775D01*
D02*
G37*
G36*
X100544Y512285D02*
Y507544D01*
X105286D01*
X104394Y509695D01*
X102695Y511394D01*
X100544Y512285D01*
D02*
G37*
G36*
X98004D02*
X95852Y511394D01*
X94153Y509695D01*
X93262Y507544D01*
X98004D01*
Y512285D01*
D02*
G37*
G36*
X253625Y509493D02*
X248883D01*
Y504752D01*
X251034Y505643D01*
X252733Y507342D01*
X253625Y509493D01*
D02*
G37*
G36*
X246343D02*
X241601D01*
X242493Y507342D01*
X244192Y505643D01*
X246343Y504752D01*
Y509493D01*
D02*
G37*
G36*
X105286Y505004D02*
X100544D01*
Y500262D01*
X102695Y501153D01*
X104394Y502853D01*
X105286Y505004D01*
D02*
G37*
G36*
X98004D02*
X93262D01*
X94153Y502853D01*
X95852Y501153D01*
X98004Y500262D01*
Y505004D01*
D02*
G37*
G36*
X133286Y497004D02*
X128544D01*
Y492262D01*
X130695Y493153D01*
X132394Y494852D01*
X133286Y497004D01*
D02*
G37*
G36*
X248424Y494707D02*
Y489965D01*
X253165D01*
X252274Y492117D01*
X250575Y493816D01*
X248424Y494707D01*
D02*
G37*
G36*
X245884D02*
X243732Y493816D01*
X242033Y492117D01*
X241142Y489965D01*
X245884D01*
Y494707D01*
D02*
G37*
G36*
X166064Y499004D02*
X136484D01*
Y492734D01*
Y487544D01*
X166064D01*
Y492734D01*
Y499004D01*
D02*
G37*
G36*
X253165Y487425D02*
X248424D01*
Y482684D01*
X250575Y483575D01*
X252274Y485274D01*
X253165Y487425D01*
D02*
G37*
G36*
X245884D02*
X241142D01*
X242033Y485274D01*
X243732Y483575D01*
X245884Y482684D01*
Y487425D01*
D02*
G37*
G36*
X166064Y485004D02*
X136484D01*
Y478734D01*
Y473544D01*
X166064D01*
Y478734D01*
Y485004D01*
D02*
G37*
G36*
X239544Y471286D02*
Y466544D01*
X244286D01*
X243394Y468695D01*
X241695Y470394D01*
X239544Y471286D01*
D02*
G37*
G36*
X237004D02*
X234853Y470394D01*
X233153Y468695D01*
X232262Y466544D01*
X237004D01*
Y471286D01*
D02*
G37*
G36*
X244286Y464004D02*
X239544D01*
Y459262D01*
X241695Y460153D01*
X243394Y461852D01*
X244286Y464004D01*
D02*
G37*
G36*
X237004D02*
X232262D01*
X233153Y461852D01*
X234853Y460153D01*
X237004Y459262D01*
Y464004D01*
D02*
G37*
G36*
X166064Y471004D02*
X136484D01*
Y464734D01*
Y456559D01*
X132179Y452254D01*
X130103Y451394D01*
X128404Y449695D01*
X127484Y447475D01*
Y445073D01*
X128404Y442853D01*
X130103Y441153D01*
X132323Y440234D01*
X134725D01*
X136945Y441153D01*
X138644Y442853D01*
X139564Y445073D01*
Y447475D01*
X139414Y447838D01*
X142309Y450734D01*
X166064D01*
Y464734D01*
Y471004D01*
D02*
G37*
G36*
X192544Y136285D02*
Y131544D01*
X197285D01*
X196394Y133695D01*
X194695Y135394D01*
X192544Y136285D01*
D02*
G37*
G36*
X190004D02*
X187853Y135394D01*
X186154Y133695D01*
X185262Y131544D01*
X190004D01*
Y136285D01*
D02*
G37*
G36*
X197285Y129004D02*
X192544D01*
Y124262D01*
X194695Y125153D01*
X196394Y126853D01*
X197285Y129004D01*
D02*
G37*
G36*
X190004D02*
X185262D01*
X186154Y126853D01*
X187853Y125153D01*
X190004Y124262D01*
Y129004D01*
D02*
G37*
G36*
X104544Y224286D02*
Y219544D01*
X109285D01*
X108394Y221695D01*
X106695Y223394D01*
X104544Y224286D01*
D02*
G37*
G36*
X102004D02*
X99853Y223394D01*
X98153Y221695D01*
X97262Y219544D01*
X102004D01*
Y224286D01*
D02*
G37*
G36*
X109285Y217004D02*
X104544D01*
Y212262D01*
X106695Y213153D01*
X108394Y214853D01*
X109285Y217004D01*
D02*
G37*
G36*
X102004D02*
X97262D01*
X98153Y214853D01*
X99853Y213153D01*
X102004Y212262D01*
Y217004D01*
D02*
G37*
G36*
X128544Y107285D02*
Y102544D01*
X133286D01*
X132394Y104695D01*
X130695Y106394D01*
X128544Y107285D01*
D02*
G37*
G36*
X126004D02*
X123853Y106394D01*
X122154Y104695D01*
X121262Y102544D01*
X126004D01*
Y107285D01*
D02*
G37*
G36*
X133286Y100004D02*
X128544D01*
Y95262D01*
X130695Y96153D01*
X132394Y97852D01*
X133286Y100004D01*
D02*
G37*
G36*
X126004D02*
X121262D01*
X122154Y97852D01*
X123853Y96153D01*
X126004Y95262D01*
Y100004D01*
D02*
G37*
%LPD*%
D12*
X22500Y415000D02*
X27500D01*
X31361Y418862D01*
Y435925D01*
X37500Y442064D01*
Y492500D01*
X98784Y506764D02*
X100000D01*
X73048Y532500D02*
X98784Y506764D01*
X37500Y532500D02*
X73048D01*
X220274Y144274D02*
Y155274D01*
X260274Y195274D01*
X191274Y130274D02*
X199274D01*
X183274D02*
X191274D01*
X199274D02*
X202193Y133193D01*
X827274Y402774D02*
X841274Y416774D01*
X707469Y361274D02*
X709219Y363024D01*
X746274D02*
X749274Y366024D01*
X746274Y379524D02*
X751564Y384814D01*
X777274Y393774D02*
X778884D01*
X779004Y393894D01*
Y398628D01*
X781420Y401044D01*
X801128D01*
X803544Y398628D01*
Y393894D02*
Y398628D01*
Y393894D02*
X803664Y393774D01*
X805274D01*
Y388774D02*
Y393774D01*
X777154Y388894D02*
X777274Y388774D01*
X773380Y388894D02*
X777154D01*
X771004Y391269D02*
X773380Y388894D01*
X771004Y391269D02*
Y423023D01*
X779255Y431274D01*
X781274D01*
X805274Y368774D02*
X807124D01*
X807274Y368624D01*
Y358357D02*
Y368624D01*
Y358357D02*
X810823Y354808D01*
Y341043D02*
Y354808D01*
X803293Y333513D02*
X810823Y341043D01*
X801274Y333513D02*
X803293D01*
X805274Y378774D02*
X805424Y378624D01*
X821274Y366274D02*
X826274D01*
X808924Y378624D02*
X821274Y366274D01*
X766190Y384814D02*
X767230Y383774D01*
X805424Y378624D02*
X808924D01*
X826274Y366274D02*
X831274Y371274D01*
X805274Y393774D02*
X823730D01*
X767230Y383774D02*
X777274D01*
X823730Y393774D02*
X831230Y386274D01*
X843024D01*
X805274Y383774D02*
X823774D01*
X826274Y381274D01*
X831274Y373774D02*
X843024Y385524D01*
X751564Y384814D02*
X766190D01*
X831274Y371274D02*
Y373774D01*
X843024Y385524D02*
Y386274D01*
X838513Y356274D02*
Y365823D01*
X842024Y369334D01*
Y369524D01*
X811763Y433513D02*
X841274D01*
X811274Y433024D02*
X811763Y433513D01*
X841274Y416774D02*
Y433513D01*
D16*
X930774Y421774D02*
X931524Y422524D01*
X920574Y421774D02*
X930774D01*
X919574Y420774D02*
X920574Y421774D01*
X907574Y420774D02*
X919574D01*
X928274Y359774D02*
X930774Y357274D01*
X920574Y359774D02*
X928274D01*
X919574Y360774D02*
X920574Y359774D01*
X134289Y448539D02*
X144024Y458274D01*
X907574Y360774D02*
X919574D01*
X144024Y458274D02*
X151274D01*
X134289Y447039D02*
Y448539D01*
X133524Y446274D02*
X134289Y447039D01*
X786274Y317524D02*
Y353274D01*
X785774Y317024D02*
X786274Y317524D01*
X749274Y366024D02*
X763274D01*
X920574Y403274D02*
X931274D01*
X902624Y405774D02*
X907574D01*
X900374Y403524D02*
X902624Y405774D01*
X895774Y403524D02*
X900374D01*
X920574Y378274D02*
X931274D01*
X931274Y378274D01*
X898856Y375774D02*
X907574D01*
X896356Y378274D02*
X898856Y375774D01*
X895274Y378274D02*
X896356D01*
D19*
X954000Y535000D02*
D03*
X904500D02*
D03*
D20*
X935500Y503000D02*
D03*
X923000D02*
D03*
X771274Y101274D02*
D03*
X746274D02*
D03*
X733774D02*
D03*
X721274D02*
D03*
X758774D02*
D03*
D21*
X151274Y472274D02*
D03*
Y486274D02*
D03*
Y500274D02*
D03*
X277174Y556274D02*
D03*
Y542274D02*
D03*
Y514274D02*
D03*
X151274Y458274D02*
D03*
Y556274D02*
D03*
Y542274D02*
D03*
Y514274D02*
D03*
X277174Y486274D02*
D03*
Y528274D02*
D03*
Y472274D02*
D03*
Y458274D02*
D03*
Y500274D02*
D03*
X151274Y528274D02*
D03*
D22*
X649374Y56774D02*
D03*
X623974D02*
D03*
X598574D02*
D03*
X573174D02*
D03*
X623974Y145774D02*
D03*
X649374D02*
D03*
X598574D02*
D03*
X573174D02*
D03*
D23*
X635079Y361274D02*
D03*
X707469D02*
D03*
D24*
X629524Y245024D02*
D03*
X939524Y258024D02*
D03*
X629524Y232524D02*
D03*
Y270024D02*
D03*
Y257524D02*
D03*
X939524Y270524D02*
D03*
D25*
X841274Y449035D02*
D03*
X781274Y415752D02*
D03*
X801274Y349035D02*
D03*
X781274Y431274D02*
D03*
X841274Y433513D02*
D03*
X801274Y333513D02*
D03*
D26*
X633774Y452524D02*
D03*
X811274Y449524D02*
D03*
X753274Y419774D02*
D03*
Y403274D02*
D03*
X811274Y433024D02*
D03*
X633774Y469024D02*
D03*
X746274Y379524D02*
D03*
Y363024D02*
D03*
D27*
X689274Y241274D02*
D03*
X773274D02*
D03*
D28*
X454240Y486126D02*
D03*
X363308Y441422D02*
D03*
Y486126D02*
D03*
X454240Y441422D02*
D03*
X495808Y486126D02*
D03*
X586740D02*
D03*
Y441422D02*
D03*
X495808D02*
D03*
D29*
X78774Y428774D02*
D03*
X854035Y356274D02*
D03*
X79035Y401274D02*
D03*
X63513D02*
D03*
X63252Y428774D02*
D03*
X838513Y356274D02*
D03*
D30*
X791274Y381274D02*
D03*
D31*
X777274Y368774D02*
D03*
Y378774D02*
D03*
X805274Y393774D02*
D03*
Y388774D02*
D03*
Y383774D02*
D03*
Y378774D02*
D03*
Y373774D02*
D03*
X777274D02*
D03*
Y383774D02*
D03*
Y388774D02*
D03*
Y393774D02*
D03*
X805274Y368774D02*
D03*
D32*
X263224Y435324D02*
D03*
D33*
X920574Y421774D02*
D03*
Y359774D02*
D03*
D34*
X907574Y360774D02*
D03*
Y420774D02*
D03*
X920574Y413274D02*
D03*
Y408274D02*
D03*
Y403274D02*
D03*
Y398274D02*
D03*
Y393274D02*
D03*
Y388274D02*
D03*
Y383274D02*
D03*
Y378274D02*
D03*
Y373274D02*
D03*
Y368274D02*
D03*
X907574Y365774D02*
D03*
Y370774D02*
D03*
Y375774D02*
D03*
Y380774D02*
D03*
Y385774D02*
D03*
Y395774D02*
D03*
Y400774D02*
D03*
Y405774D02*
D03*
Y410774D02*
D03*
Y415774D02*
D03*
D35*
X21885Y429706D02*
D03*
X21774Y401274D02*
D03*
X40774D02*
D03*
X40885Y429706D02*
D03*
D36*
X859524Y386274D02*
D03*
X843024D02*
D03*
D37*
X596024Y288524D02*
D03*
Y214024D02*
D03*
D38*
X702774Y67774D02*
D03*
X789774D02*
D03*
D39*
X971524Y289024D02*
D03*
Y239524D02*
D03*
D43*
X37500Y492500D02*
D03*
Y512500D02*
D03*
X571274Y346274D02*
D03*
Y366274D02*
D03*
D44*
X37500Y532500D02*
D03*
X571274Y386274D02*
D03*
D51*
X911674Y347574D02*
D03*
Y433974D02*
D03*
D52*
X965274Y334274D02*
D03*
Y447274D02*
D03*
D55*
X635079Y361274D02*
G03*
X624079Y372274I-11000J0D01*
G01*
X517274Y285274D02*
G03*
X523274Y291274I0J6000D01*
G01*
X45274Y34274D02*
X59274Y20274D01*
X49634Y308630D02*
X59030Y299234D01*
X701274Y190274D02*
X702274Y189274D01*
X609274Y372274D02*
X624079D01*
X45274Y34274D02*
Y63558D01*
X700274Y190274D02*
X701274D01*
X84314Y299234D02*
X90274Y293274D01*
X151274Y486274D02*
X244191D01*
X523274Y291274D02*
Y291274D01*
X244191Y486274D02*
X246612Y488695D01*
X59030Y299234D02*
X84314D01*
X246612Y488695D02*
X247153D01*
X151274Y472274D02*
Y486274D01*
X67741Y86025D02*
X86169D01*
X49634Y308630D02*
Y321918D01*
X151274Y500274D02*
X237124D01*
X247613Y510763D01*
X151274Y472274D02*
X230733D01*
X237733Y465274D01*
X238274D01*
X79990Y352274D02*
X85274D01*
X49634Y321918D02*
X79990Y352274D01*
X151274Y488313D02*
Y500274D01*
X59274Y20274D02*
X91274D01*
X45274Y63558D02*
X67741Y86025D01*
X554274Y192274D02*
X555274D01*
X558274Y195274D01*
X395274Y23274D02*
X825274D01*
X395274Y60674D02*
X395874Y61274D01*
X395274Y23274D02*
Y60674D01*
X673274Y72274D02*
Y95274D01*
X612274Y316274D02*
X615274Y319274D01*
X623274D02*
X646274Y296274D01*
X672274Y71274D02*
X673274Y72274D01*
X615274Y319274D02*
X623274D01*
D56*
X298524Y542274D02*
G03*
X298774Y542524I0J250D01*
G01*
X21774Y401274D02*
Y415524D01*
X21774Y401274D02*
X21774Y401274D01*
X21885Y415635D02*
Y429706D01*
X255524Y455774D02*
X259748Y451550D01*
Y438800D02*
Y451550D01*
Y438800D02*
X263224Y435324D01*
X298024Y514274D02*
Y514274D01*
X277174D02*
X298024D01*
X277174Y542274D02*
X298524D01*
X299024Y556274D02*
Y556274D01*
X277174D02*
X299024D01*
X41274Y297274D02*
X57110Y281438D01*
X134913Y419913D02*
Y421275D01*
X80338Y262210D02*
Y279057D01*
X218074Y61274D02*
Y124474D01*
X77957Y281438D02*
X80338Y279057D01*
X41274Y297274D02*
Y327274D01*
X106274Y391274D02*
X134913Y419913D01*
X73408Y359408D02*
Y359770D01*
X80338Y262210D02*
X218074Y124474D01*
X57110Y281438D02*
X77957D01*
X41274Y327274D02*
X73408Y359408D01*
D57*
X786016Y367655D02*
Y371563D01*
Y367655D02*
X786424Y367247D01*
X786339Y371240D02*
X791274Y376174D01*
X783874Y368774D02*
X786339Y371240D01*
X791274Y376821D02*
Y381274D01*
Y376174D02*
Y381274D01*
X777324Y368774D02*
X783874D01*
X786424Y379819D02*
X787878Y381274D01*
X791274D01*
X875024Y386274D02*
X875524Y385774D01*
X859524Y386274D02*
X875024D01*
X873524Y356274D02*
X873774Y356024D01*
X854035Y356274D02*
X873524D01*
X771814Y361024D02*
X772732Y361942D01*
X775424Y368774D02*
X777274D01*
X772732Y361942D02*
Y366082D01*
X775424Y368774D01*
X764573Y377774D02*
X765573Y378774D01*
X777274D01*
X763274Y377774D02*
X764573D01*
D58*
X95524Y480398D02*
X137670Y522544D01*
X96725Y371564D02*
Y425984D01*
X95524Y427185D02*
X96725Y425984D01*
X95524Y427185D02*
Y480398D01*
X746116Y73182D02*
X746274Y73024D01*
X678274Y65274D02*
X690274D01*
X635274Y216274D02*
Y230794D01*
X768149Y73149D02*
X768274Y73274D01*
X746274Y73024D02*
X746399Y73149D01*
X768274Y73274D02*
X791274Y96274D01*
X746399Y73149D02*
X768149D01*
X629524Y232524D02*
X633544D01*
X791274Y96274D02*
X794274D01*
X672274Y71274D02*
X678274Y65274D01*
X725150Y73340D02*
X725307Y73182D01*
X633544Y232524D02*
X635274Y230794D01*
X725307Y73182D02*
X746116D01*
X749504Y353254D02*
X774754D01*
X731524Y342090D02*
X738340D01*
X749504Y353254D01*
X793584Y354706D02*
X799255Y349035D01*
X793584Y354706D02*
Y356302D01*
X774754Y353254D02*
X782084Y360584D01*
X789302D01*
X799255Y349035D02*
X801274D01*
X789302Y360584D02*
X793584Y356302D01*
X296024Y433524D02*
Y461898D01*
X275224Y458274D02*
X277174D01*
X271494Y454544D02*
X275224Y458274D01*
X226024Y386524D02*
X237774D01*
X271494Y420244D02*
Y454544D01*
X237774Y386524D02*
X271494Y420244D01*
X458774Y47274D02*
X470274Y58774D01*
X325262Y220274D02*
X325274D01*
X124274Y542274D02*
X151274D01*
X325274Y220274D02*
X470274Y75274D01*
X124024Y542524D02*
X124274Y542274D01*
X470274Y58774D02*
Y75274D01*
X721274Y101274D02*
Y106774D01*
X319674Y225862D02*
X325262Y220274D01*
X700024Y128024D02*
X721274Y106774D01*
X319674Y225862D02*
Y315274D01*
X700024Y128024D02*
X700024D01*
X649374Y124624D02*
Y145774D01*
X733774Y101274D02*
Y106774D01*
X649024Y124274D02*
X649374Y124624D01*
X722024Y118524D02*
X733774Y106774D01*
X280904Y496544D02*
X288778D01*
X745024Y130274D02*
X746274Y129024D01*
X277174Y500274D02*
X280904Y496544D01*
X746274Y101274D02*
Y129024D01*
X218074Y315274D02*
X311024Y408224D01*
X722024Y118524D02*
Y130274D01*
X288778Y496544D02*
X311024Y474298D01*
X758774Y123274D02*
X765774Y130274D01*
X311024Y408224D02*
Y474298D01*
X758774Y101274D02*
Y123274D01*
X167274Y315274D02*
X291018Y191530D01*
X732362Y130274D02*
X745024D01*
X291018Y191530D02*
X334518D01*
X41817Y428774D02*
X63252D01*
X334518Y191530D02*
X455774Y70274D01*
X40885Y429706D02*
X41817Y428774D01*
X598574Y125074D02*
Y145774D01*
X40774Y401274D02*
X63513D01*
X531774Y116024D02*
X532024Y115774D01*
X572332Y475274D02*
X583184Y486126D01*
X571274Y475274D02*
X572332D01*
X589274Y115774D02*
X598574Y125074D01*
X573174Y124924D02*
Y145774D01*
X583184Y486126D02*
X586740D01*
X572774Y124524D02*
X573174Y124924D01*
X495808Y486126D02*
X583184D01*
X527604Y123274D02*
X528854Y124524D01*
X687112Y175524D02*
X732362Y130274D01*
X499024Y175524D02*
X687112D01*
X79035Y399255D02*
Y401274D01*
X454240Y220308D02*
X499024Y175524D01*
X51864Y372084D02*
X79035Y399255D01*
X454240Y220308D02*
Y441422D01*
X144024Y528274D02*
X151274D01*
X473524Y257024D02*
Y257274D01*
X138294Y522544D02*
X144024Y528274D01*
X486274Y270024D02*
X629524D01*
X137670Y522544D02*
X138294D01*
X473524Y257274D02*
X486274Y270024D01*
X141874Y61274D02*
Y114124D01*
X268874Y315274D02*
X298124Y344524D01*
X237524Y155524D02*
X239274Y153774D01*
X298124Y344524D02*
X435524D01*
X239274Y153774D02*
X350774D01*
X435524Y344524D02*
X446274Y333774D01*
X141874Y114124D02*
X179800Y152050D01*
X446274Y255274D02*
Y333774D01*
X232667Y370167D02*
X296024Y433524D01*
X443274Y39274D02*
X510584D01*
X277174Y486274D02*
X280904Y482544D01*
X538774Y106524D02*
X539024Y106274D01*
X51864Y361364D02*
Y372084D01*
X280904Y482544D02*
X288778D01*
X51524Y361024D02*
X51864Y361364D01*
X192674Y315274D02*
X303774Y426374D01*
X65674Y315274D02*
X120567Y370167D01*
X288778Y482544D02*
X303774Y467548D01*
X120567Y370167D02*
X232667D01*
X303774Y426374D02*
Y467548D01*
X539024Y106274D02*
X604774D01*
X623974Y125474D01*
Y145774D01*
X254774Y528274D02*
X277174D01*
X254524Y528524D02*
X254774Y528274D01*
X528854Y124524D02*
X572774D01*
X494024Y439638D02*
X495808Y441422D01*
X494024Y391274D02*
Y439638D01*
X532024Y115774D02*
X589274D01*
X590296Y441422D02*
X617898Y469024D01*
X495808Y441422D02*
X586740D01*
X590296D01*
X617898Y469024D02*
X633774D01*
X336524Y264524D02*
X336774Y264774D01*
X293524Y264524D02*
X293899Y264899D01*
Y314899D01*
X336774Y264774D02*
X376524D01*
X293899Y314899D02*
X294274Y315274D01*
X376524Y264774D02*
X409774Y231524D01*
X510584Y39274D02*
X511274Y39964D01*
X471274Y234274D02*
X471774Y234774D01*
Y237274D01*
X492024Y257524D02*
X629524D01*
X471774Y237274D02*
X492024Y257524D01*
X771024Y373774D02*
X777274D01*
X763274Y366024D02*
X771024Y373774D01*
X803507Y39964D02*
X805067Y41524D01*
X806274D01*
X511274Y39964D02*
X803507Y39964D01*
X289372Y468544D02*
X289642Y468274D01*
X280904Y468544D02*
X289372D01*
X520274Y123274D02*
X527604D01*
X277174Y472274D02*
X280904Y468544D01*
X289642Y468274D02*
X289648D01*
X296024Y461898D01*
D59*
X929000Y481000D02*
X935000Y487000D01*
Y502500D01*
X935500Y503000D01*
X903000Y504000D02*
X904000Y503000D01*
X923000D01*
X778774Y408024D02*
Y413722D01*
X780804Y415752D01*
X781274D01*
X753052Y435302D02*
X753160D01*
X753024Y435274D02*
X753052Y435302D01*
X753024Y435274D02*
X753274Y435024D01*
Y419774D02*
Y435024D01*
X939524Y247524D02*
X941274Y245774D01*
X939524Y247524D02*
Y258024D01*
X325274Y389274D02*
Y421274D01*
X917274Y270524D02*
X939524D01*
X917024Y270774D02*
X917274Y270524D01*
X709219Y363024D02*
X746274D01*
X895524Y403274D02*
X895774Y403524D01*
X895524Y378524D02*
Y403274D01*
X895274Y378274D02*
X895524Y378524D01*
D60*
X421274Y315274D02*
D03*
D61*
X874274Y199274D02*
D03*
X910274Y151274D02*
D03*
D62*
X395874Y315274D02*
D03*
Y61274D02*
D03*
X65674D02*
D03*
X91074D02*
D03*
X116474D02*
D03*
X141874D02*
D03*
X167274D02*
D03*
X192674D02*
D03*
X218074D02*
D03*
X243474D02*
D03*
X268874D02*
D03*
X294274D02*
D03*
X319674D02*
D03*
X345074D02*
D03*
X370474D02*
D03*
X421274D02*
D03*
X65674Y315274D02*
D03*
X91074D02*
D03*
X116474D02*
D03*
X167274D02*
D03*
X192674D02*
D03*
X218074D02*
D03*
X243474D02*
D03*
X268874D02*
D03*
X294274D02*
D03*
X319674D02*
D03*
X345074D02*
D03*
X370474D02*
D03*
X141874D02*
D03*
D63*
X50000Y-30000D02*
D03*
X947550D02*
D03*
Y699987D02*
D03*
X50000Y700000D02*
D03*
D64*
X500874Y311074D02*
D03*
Y65974D02*
D03*
X31374D02*
D03*
Y311074D02*
D03*
D65*
X848274Y151274D02*
D03*
D66*
X786424Y367247D02*
D03*
Y379819D02*
D03*
X792227Y388892D02*
D03*
X785267Y394579D02*
D03*
D67*
X929000Y481000D02*
D03*
X518274Y156274D02*
D03*
X99274Y506274D02*
D03*
X337274Y462274D02*
D03*
X554274Y192274D02*
D03*
X103274Y218274D02*
D03*
X127274Y498274D02*
D03*
X432274Y358274D02*
D03*
X260274Y195274D02*
D03*
X191274Y130274D02*
D03*
X127274Y101274D02*
D03*
X466262Y409544D02*
D03*
X332274Y490274D02*
D03*
X439274Y212274D02*
D03*
X247613Y510763D02*
D03*
X677274Y155274D02*
D03*
X238274Y465274D02*
D03*
X247153Y488695D02*
D03*
X426274Y186274D02*
D03*
X332274Y509274D02*
D03*
X220274Y144274D02*
D03*
X517274Y285274D02*
D03*
X702274Y189274D02*
D03*
X440285Y408004D02*
D03*
X394274Y275274D02*
D03*
X125274Y238274D02*
D03*
X298024Y514274D02*
D03*
X298774Y542524D02*
D03*
X299024Y556274D02*
D03*
X794274Y96274D02*
D03*
X825274Y23274D02*
D03*
X646274Y296274D02*
D03*
X635274Y216274D02*
D03*
X875524Y385774D02*
D03*
X931524Y422524D02*
D03*
X930774Y357274D02*
D03*
X612274Y316274D02*
D03*
X768274Y73274D02*
D03*
X941274Y245774D02*
D03*
X673274Y95274D02*
D03*
X773274Y239774D02*
D03*
X873774Y356024D02*
D03*
X746274Y73024D02*
D03*
X771814Y361024D02*
D03*
X690274Y65274D02*
D03*
X672274Y71274D02*
D03*
X395274Y23274D02*
D03*
X325274Y421274D02*
D03*
X778774Y408024D02*
D03*
X753160Y435302D02*
D03*
X725150Y73340D02*
D03*
X21774Y415524D02*
D03*
X133524Y446274D02*
D03*
X255524Y455774D02*
D03*
X325274Y389274D02*
D03*
X753274Y403274D02*
D03*
X763274Y377774D02*
D03*
X731524Y342090D02*
D03*
X254524Y528524D02*
D03*
X494024Y391274D02*
D03*
X531774Y116024D02*
D03*
X293524Y264524D02*
D03*
X336524D02*
D03*
X409774Y231524D02*
D03*
X471274Y234274D02*
D03*
X895774Y403524D02*
D03*
X931274Y403274D02*
D03*
X443274Y39274D02*
D03*
X931274Y378274D02*
D03*
X786274Y353274D02*
D03*
X895274Y378274D02*
D03*
X806274Y41524D02*
D03*
X350774Y153774D02*
D03*
X96725Y371564D02*
D03*
X826274Y381274D02*
D03*
X226024Y386524D02*
D03*
X842024Y369524D02*
D03*
X538774Y106524D02*
D03*
X458774Y47274D02*
D03*
X785774Y317024D02*
D03*
X649024Y124274D02*
D03*
X827274Y402774D02*
D03*
X455774Y70274D02*
D03*
X598274Y124774D02*
D03*
X179800Y152050D02*
D03*
X917024Y270774D02*
D03*
X124024Y542524D02*
D03*
X572774Y124524D02*
D03*
X571274Y475274D02*
D03*
X700024Y128024D02*
D03*
X106274Y391274D02*
D03*
X520274Y123274D02*
D03*
X745024Y130274D02*
D03*
X237524Y155524D02*
D03*
X765774Y130274D02*
D03*
X722024D02*
D03*
X51524Y361024D02*
D03*
X473524Y257024D02*
D03*
X73408Y359770D02*
D03*
X446274Y255274D02*
D03*
X134913Y421275D02*
D03*
X623774Y125274D02*
D03*
M02*
